<svg width="1392" height="1389" viewBox="0 0 1392 1389" fill="none" xmlns="http://www.w3.org/2000/svg">
<path d="M417.596 15.4016V0C390.215 5.13388 326.041 26.525 326.897 61.6065C331.689 30.8033 389.359 21.6764 417.596 15.4016Z" fill="#774012"/>
<path d="M1022.54 88.987C902.748 83.6232 876.223 127.776 870.234 156.583C859.11 154.301 837.719 148.711 841.142 144.604C845.42 139.47 842.853 113.801 844.564 111.234C846.276 108.667 878.79 63.3176 879.646 60.7507C880.33 58.6971 923.854 53.0498 945.531 50.4829L1033.66 63.3176L1159.44 94.1209C1187.39 128.061 1232 210.489 1186.82 268.673C1173.13 121.502 1079.87 91.5539 1022.54 88.987Z" fill="#774012"/>
<path d="M1100.4 701.63C1077.3 689.65 1045.36 613.783 1043.93 587.829L1082.43 599.808L1167.14 689.65L1215.91 759.813L1196.23 855.646L1051.63 1046.45L997.725 1104.64L932.696 1120.04L925.85 1058.43L962.643 994.26C964.64 1018.79 964.526 1067.33 978.901 1075.55C993.275 1083.76 1033.66 1038.16 1051.63 1014.8C1094.41 959.179 1165.57 823.131 1167.14 783.772C1168 762.38 1165.98 735.632 1100.4 701.63Z" fill="#774012"/>
<path d="M1311.75 403.009C1280.94 404.378 1248.71 446.362 1236.45 467.183L1259.55 403.009L1304.05 363.649L1352.82 389.319L1375.06 449.214L1348.54 630.611L1292.07 720.454C1275.52 726.728 1241.24 739.278 1236.45 739.278C1230.46 739.278 1192.81 722.165 1190.24 720.454C1188.19 719.085 1170.57 689.08 1162.01 674.249L1177.41 559.592L1196.23 663.981C1197.66 675.96 1208.94 708.291 1236.45 699.918C1275.81 687.939 1302.07 618.632 1311.75 574.994C1324.58 517.095 1342.55 401.64 1311.75 403.009Z" fill="#774012"/>
<path d="M719.641 1220.15C686.784 1208.51 691.119 1158.26 697.394 1134.59L664.878 1153.41L662.312 1202.18L679.424 1237.26L739.32 1276.62L804.349 1264.65L872.8 1189.35C871.374 1163.68 863.217 1121.41 841.997 1157.69C815.472 1203.04 760.712 1234.7 719.641 1220.15Z" fill="#774012"/>
<path d="M577.603 1298.02L580.169 1300.58L626.374 1312.56L656.322 1261.22L637.497 1189.35L626.374 1134.59L563.912 1094.37L490.326 1083.25L411.607 1094.37L405.617 1127.74L421.019 1157.69L441.555 1149.13C440.129 1144 441.555 1131.51 458.668 1122.61C480.059 1111.48 526.666 1123.7 571.613 1153.41C622.096 1186.78 630.653 1228.71 626.374 1261.22C622.952 1287.23 598.708 1286.61 587.014 1286.04L577.603 1298.02Z" fill="#774012"/>
<path d="M103.573 673.393C76.1927 564.555 230.495 499.127 303.795 481.729L410.75 393.597C338.306 391.315 192.903 387.094 190.849 388.463C188.796 389.832 99.8656 481.443 55.6572 527.078L90.7387 708.475L158.335 817.142L219.941 846.234L390.215 858.213C407.898 859.068 437.618 851.539 415.029 814.575C392.439 777.611 358.271 774.074 344.01 776.926L232.776 794.039C205.966 798.032 130.954 782.231 103.573 673.393Z" fill="#774012"/>
<path fill-rule="evenodd" clip-rule="evenodd" d="M441.563 282.863C521.42 356.446 639.78 262.186 684.699 197.302C752.197 99.383 944.234 -68.3642 1172.4 44.006C1457.6 184.469 1423.38 550.242 1297.89 742.755C1172.4 935.267 904.306 1271.09 692.542 1388.03C660.755 1365.08 622.226 1335.37 579.866 1300.28C597.979 1301.27 614.212 1295.37 623.382 1276.8C646.198 1230.59 592.96 1171.03 563.489 1147.03C522.135 1113.52 459.39 1101.4 429.444 1123.5C416.516 1133.04 416.294 1146.06 420.847 1158C266.363 1008.82 107.173 819.748 44.4173 639.368C-86.0633 264.326 87.9108 50.423 345.307 5.50349C371.097 1.00267 395.323 -0.599802 418.024 0.195697C398.194 4.19439 380.851 9.64914 367.41 16.9112C282.809 62.6231 349.017 95.9308 402.985 123.081L402.992 123.085L403.441 123.311C405.718 124.456 407.972 125.591 410.191 126.715C454.112 148.96 455.111 177.338 433.007 193.737C414.675 207.339 398.783 238.942 441.563 282.863ZM1209.47 526C1223.5 484.884 1263.81 401.224 1312.86 395.52C1374.18 388.39 1361.35 541.687 1315 634.378C1268.65 727.069 1204.48 736.338 1195.21 658.62C1187.8 596.446 1201.63 544.301 1209.47 526ZM400.21 461.116C378.344 469.435 321.779 484.931 270.442 480.367C206.271 474.663 100.033 546.677 94.3288 628.673C88.6247 710.669 146.378 825.464 253.33 811.204C276.998 808.048 296.547 804.228 312.925 801.029C370.554 789.769 388.936 786.178 409.479 846.141C435.86 923.146 482.919 971.631 584.879 966.64C686.839 961.648 751.723 995.873 711.081 1101.4C707.981 1109.59 704.52 1117.72 701.114 1125.71C682.587 1169.2 665.702 1208.83 717.498 1234.73C778.817 1265.39 843.701 1180.54 856.535 1117.08C857.642 1111.61 858.759 1105.92 859.904 1100.1C872.035 1038.32 887.257 960.812 925.697 959.509C966.306 958.133 964.392 1002.6 963.569 1021.72C963.539 1022.41 963.511 1023.06 963.486 1023.68C962.773 1041.51 960.847 1147.51 1039.07 1047.21C1099.67 969.492 1138.89 912.451 1156.71 875.374C1157.07 874.631 1157.43 873.88 1157.8 873.12C1180.24 826.501 1217.44 749.21 1137.46 707.817C1057.36 666.363 986.303 569.494 1116.78 421.188C1247.26 272.882 1178.81 123.863 1086.84 92.4908C994.859 61.1184 850.118 86.0737 872.221 163.079C877.022 179.803 882.562 194.005 887.404 206.415C904.854 251.145 913.221 272.595 845.127 304.967C806.424 323.367 774.072 319.042 740.85 314.6C699.404 309.059 656.604 303.337 598.426 341.331C565.272 362.982 541.107 380.139 521.08 394.359C477.792 425.093 453.831 442.105 400.21 461.116Z" fill="url(#paint0_radial_39_440)"/>
<path fill-rule="evenodd" clip-rule="evenodd" d="M441.563 282.863C521.42 356.446 639.78 262.186 684.699 197.302C752.197 99.383 944.234 -68.3642 1172.4 44.006C1457.6 184.469 1423.38 550.242 1297.89 742.755C1172.4 935.267 904.306 1271.09 692.542 1388.03C660.755 1365.08 622.226 1335.37 579.866 1300.28C597.979 1301.27 614.212 1295.37 623.382 1276.8C646.198 1230.59 592.96 1171.03 563.489 1147.03C522.135 1113.52 459.39 1101.4 429.444 1123.5C416.516 1133.04 416.294 1146.06 420.847 1158C266.363 1008.82 107.173 819.748 44.4173 639.368C-86.0633 264.326 87.9108 50.423 345.307 5.50349C371.097 1.00267 395.323 -0.599802 418.024 0.195697C398.194 4.19439 380.851 9.64914 367.41 16.9112C282.809 62.6231 349.017 95.9308 402.985 123.081L402.992 123.085L403.441 123.311C405.718 124.456 407.972 125.591 410.191 126.715C454.112 148.96 455.111 177.338 433.007 193.737C414.675 207.339 398.783 238.942 441.563 282.863ZM1209.47 526C1223.5 484.884 1263.81 401.224 1312.86 395.52C1374.18 388.39 1361.35 541.687 1315 634.378C1268.65 727.069 1204.48 736.338 1195.21 658.62C1187.8 596.446 1201.63 544.301 1209.47 526ZM400.21 461.116C378.344 469.435 321.779 484.931 270.442 480.367C206.271 474.663 100.033 546.677 94.3288 628.673C88.6247 710.669 146.378 825.464 253.33 811.204C276.998 808.048 296.547 804.228 312.925 801.029C370.554 789.769 388.936 786.178 409.479 846.141C435.86 923.146 482.919 971.631 584.879 966.64C686.839 961.648 751.723 995.873 711.081 1101.4C707.981 1109.59 704.52 1117.72 701.114 1125.71C682.587 1169.2 665.702 1208.83 717.498 1234.73C778.817 1265.39 843.701 1180.54 856.535 1117.08C857.642 1111.61 858.759 1105.92 859.904 1100.1C872.035 1038.32 887.257 960.812 925.697 959.509C966.306 958.133 964.392 1002.6 963.569 1021.72C963.539 1022.41 963.511 1023.06 963.486 1023.68C962.773 1041.51 960.847 1147.51 1039.07 1047.21C1099.67 969.492 1138.89 912.451 1156.71 875.374C1157.07 874.631 1157.43 873.88 1157.8 873.12C1180.24 826.501 1217.44 749.21 1137.46 707.817C1057.36 666.363 986.303 569.494 1116.78 421.188C1247.26 272.882 1178.81 123.863 1086.84 92.4908C994.859 61.1184 850.118 86.0737 872.221 163.079C877.022 179.803 882.562 194.005 887.404 206.415C904.854 251.145 913.221 272.595 845.127 304.967C806.424 323.367 774.072 319.042 740.85 314.6C699.404 309.059 656.604 303.337 598.426 341.331C565.272 362.982 541.107 380.139 521.08 394.359C477.792 425.093 453.831 442.105 400.21 461.116Z" fill="url(#paint1_linear_39_440)"/>
<path fill-rule="evenodd" clip-rule="evenodd" d="M441.563 282.863C521.42 356.446 639.78 262.186 684.699 197.302C752.197 99.383 944.234 -68.3642 1172.4 44.006C1457.6 184.469 1423.38 550.242 1297.89 742.755C1172.4 935.267 904.306 1271.09 692.542 1388.03C660.755 1365.08 622.226 1335.37 579.866 1300.28C597.979 1301.27 614.212 1295.37 623.382 1276.8C646.198 1230.59 592.96 1171.03 563.489 1147.03C522.135 1113.52 459.39 1101.4 429.444 1123.5C416.516 1133.04 416.294 1146.06 420.847 1158C266.363 1008.82 107.173 819.748 44.4173 639.368C-86.0633 264.326 87.9108 50.423 345.307 5.50349C371.097 1.00267 395.323 -0.599802 418.024 0.195697C398.194 4.19439 380.851 9.64914 367.41 16.9112C282.809 62.6231 349.017 95.9308 402.985 123.081L402.992 123.085L403.441 123.311C405.718 124.456 407.972 125.591 410.191 126.715C454.112 148.96 455.111 177.338 433.007 193.737C414.675 207.339 398.783 238.942 441.563 282.863ZM1209.47 526C1223.5 484.884 1263.81 401.224 1312.86 395.52C1374.18 388.39 1361.35 541.687 1315 634.378C1268.65 727.069 1204.48 736.338 1195.21 658.62C1187.8 596.446 1201.63 544.301 1209.47 526ZM400.21 461.116C378.344 469.435 321.779 484.931 270.442 480.367C206.271 474.663 100.033 546.677 94.3288 628.673C88.6247 710.669 146.378 825.464 253.33 811.204C276.998 808.048 296.547 804.228 312.925 801.029C370.554 789.769 388.936 786.178 409.479 846.141C435.86 923.146 482.919 971.631 584.879 966.64C686.839 961.648 751.723 995.873 711.081 1101.4C707.981 1109.59 704.52 1117.72 701.114 1125.71C682.587 1169.2 665.702 1208.83 717.498 1234.73C778.817 1265.39 843.701 1180.54 856.535 1117.08C857.642 1111.61 858.759 1105.92 859.904 1100.1C872.035 1038.32 887.257 960.812 925.697 959.509C966.306 958.133 964.392 1002.6 963.569 1021.72C963.539 1022.41 963.511 1023.06 963.486 1023.68C962.773 1041.51 960.847 1147.51 1039.07 1047.21C1099.67 969.492 1138.89 912.451 1156.71 875.374C1157.07 874.631 1157.43 873.88 1157.8 873.12C1180.24 826.501 1217.44 749.21 1137.46 707.817C1057.36 666.363 986.303 569.494 1116.78 421.188C1247.26 272.882 1178.81 123.863 1086.84 92.4908C994.859 61.1184 850.118 86.0737 872.221 163.079C877.022 179.803 882.562 194.005 887.404 206.415C904.854 251.145 913.221 272.595 845.127 304.967C806.424 323.367 774.072 319.042 740.85 314.6C699.404 309.059 656.604 303.337 598.426 341.331C565.272 362.982 541.107 380.139 521.08 394.359C477.792 425.093 453.831 442.105 400.21 461.116Z" fill="url(#paint2_radial_39_440)" fill-opacity="0.25" style="mix-blend-mode:overlay"/>
<path fill-rule="evenodd" clip-rule="evenodd" d="M441.563 282.863C521.42 356.446 639.78 262.186 684.699 197.302C752.197 99.383 944.234 -68.3642 1172.4 44.006C1457.6 184.469 1423.38 550.242 1297.89 742.755C1172.4 935.267 904.306 1271.09 692.542 1388.03C660.755 1365.08 622.226 1335.37 579.866 1300.28C597.979 1301.27 614.212 1295.37 623.382 1276.8C646.198 1230.59 592.96 1171.03 563.489 1147.03C522.135 1113.52 459.39 1101.4 429.444 1123.5C416.516 1133.04 416.294 1146.06 420.847 1158C266.363 1008.82 107.173 819.748 44.4173 639.368C-86.0633 264.326 87.9109 50.423 345.307 5.50349C371.097 1.00267 395.323 -0.599802 418.024 0.195697C398.194 4.19439 380.851 9.64913 367.41 16.9112C282.809 62.6231 349.017 95.9308 402.985 123.081L402.992 123.085L403.441 123.311C405.718 124.456 407.972 125.591 410.191 126.715C454.112 148.96 455.111 177.338 433.007 193.737C414.675 207.339 398.783 238.942 441.563 282.863ZM1209.47 526C1223.5 484.884 1263.81 401.224 1312.86 395.52C1374.18 388.39 1361.35 541.687 1315 634.378C1268.65 727.069 1204.48 736.338 1195.21 658.62C1187.8 596.446 1201.63 544.301 1209.47 526ZM400.21 461.116C378.344 469.435 321.779 484.931 270.442 480.367C206.271 474.663 100.033 546.677 94.3288 628.673C88.6247 710.669 146.378 825.464 253.33 811.204C276.998 808.048 296.547 804.228 312.925 801.029C370.554 789.769 388.936 786.178 409.479 846.141C435.86 923.146 482.919 971.631 584.879 966.64C686.839 961.648 751.723 995.873 711.081 1101.4C707.981 1109.59 704.52 1117.72 701.114 1125.71C682.587 1169.2 665.702 1208.83 717.498 1234.73C778.817 1265.39 843.701 1180.54 856.535 1117.08C857.642 1111.61 858.759 1105.92 859.904 1100.1C872.035 1038.32 887.257 960.812 925.697 959.509C966.306 958.133 964.392 1002.6 963.569 1021.72C963.539 1022.41 963.511 1023.06 963.486 1023.68C962.773 1041.51 960.847 1147.51 1039.07 1047.21C1099.67 969.492 1138.89 912.451 1156.71 875.374C1157.07 874.631 1157.43 873.88 1157.8 873.12C1180.24 826.501 1217.44 749.21 1137.46 707.817C1057.36 666.363 986.303 569.494 1116.78 421.188C1247.26 272.882 1178.81 123.863 1086.84 92.4908C994.859 61.1184 850.118 86.0737 872.221 163.079C877.022 179.803 882.562 194.005 887.404 206.415C904.854 251.145 913.221 272.595 845.127 304.967C806.424 323.367 774.072 319.042 740.85 314.6C699.404 309.059 656.604 303.337 598.426 341.331C565.272 362.982 541.107 380.139 521.08 394.359C477.792 425.093 453.831 442.105 400.21 461.116Z" fill="url(#paint3_radial_39_440)" style="mix-blend-mode:soft-light"/>
<path d="M149.898 611.804C157.801 308.873 408.881 70.2315 708.57 76.8143C1011.76 85.5221 1250.39 336.584 1243.46 639.539C1235.1 939.436 984.051 1178.06 680.834 1170.37C381.171 1162.77 142.511 911.725 149.898 611.804Z" fill="black" stroke="url(#paint4_linear_39_440)" stroke-width="6.93131" stroke-miterlimit="3.86"/>
<path d="M238.775 567.9C244.433 568.28 248.16 567.669 252.209 565.423C259.512 561.459 264.352 553.986 265.774 544.238C268.461 525.956 257.056 512.624 236.075 509.538C215.249 506.473 200.527 515.888 197.863 533.906C195.497 550.019 203.253 562.145 217.989 565.152L219.916 552.158C211.762 550.147 207.795 544.178 209.023 535.908C210.536 525.613 219.788 520.761 233.937 522.84C248.256 524.974 255.877 532.555 254.328 543.01C253.646 547.658 251.488 551.235 248.008 553.259C246.021 554.463 244.225 554.887 240.632 555.188L238.775 567.9Z" fill="white"/>
<path d="M238.775 567.9C244.433 568.28 248.16 567.669 252.209 565.423C259.512 561.459 264.352 553.986 265.774 544.238C268.461 525.956 257.056 512.624 236.075 509.538C215.249 506.473 200.527 515.888 197.863 533.906C195.497 550.019 203.253 562.145 217.989 565.152L219.916 552.158C211.762 550.147 207.795 544.178 209.023 535.908C210.536 525.613 219.788 520.761 233.937 522.84C248.256 524.974 255.877 532.555 254.328 543.01C253.646 547.658 251.488 551.235 248.008 553.259C246.021 554.463 244.225 554.887 240.632 555.188L238.775 567.9Z" stroke="white" stroke-width="0.777624" stroke-miterlimit="10"/>
<path d="M224.549 618.727L194.71 618.563L194.649 632.09L260.385 632.442L260.449 618.84L235.823 618.7L235.981 592.726L260.606 592.882L260.668 579.339L194.93 579.003L194.839 592.496L224.709 592.677L224.549 618.727Z" fill="white"/>
<path d="M224.549 618.727L194.71 618.563L194.649 632.09L260.385 632.442L260.449 618.84L235.823 618.7L235.981 592.726L260.606 592.882L260.668 579.339L194.93 579.003L194.839 592.496L224.709 592.677L224.549 618.727Z" stroke="white" stroke-width="0.779925" stroke-miterlimit="10"/>
<path d="M212.392 688.078L199.807 694.132L201.681 707.908L263.934 676.498L261.915 661.62L193.448 647.293L195.308 660.977L209.068 663.599L212.392 688.078ZM223.093 682.87L220.785 665.852L247.48 670.866L223.093 682.87Z" fill="white"/>
<path d="M212.392 688.078L199.807 694.132L201.681 707.908L263.934 676.498L261.915 661.62L193.448 647.293L195.308 660.977L209.068 663.599L212.392 688.078ZM223.093 682.87L220.785 665.852L247.48 670.866L223.093 682.87Z" stroke="white" stroke-width="0.781991" stroke-miterlimit="10"/>
<path d="M272.377 722.169L269.19 708.932L205.024 724.405L215.622 768.328L226.603 765.66L219.208 734.941L272.377 722.169Z" fill="white"/>
<path d="M272.377 722.169L269.19 708.932L205.024 724.405L215.622 768.328L226.603 765.66L219.208 734.941L272.377 722.169Z" stroke="white" stroke-width="0.783079" stroke-miterlimit="10"/>
<path d="M272.556 777.193L229.291 806.956L234.233 819.515L286.105 811.563L238.5 830.317L243.474 842.889L304.554 818.793L297.096 799.861L244.241 808.309L288.505 778.066L281.089 759.295L220.009 783.376L224.951 795.967L272.556 777.193Z" fill="white"/>
<path d="M272.556 777.193L229.291 806.956L234.233 819.515L286.105 811.563L238.5 830.317L243.473 842.889L304.554 818.793L297.096 799.861L244.241 808.309L288.505 778.066L281.089 759.295L220.009 783.376L224.951 795.967L272.556 777.193Z" stroke="white" stroke-width="0.77919" stroke-miterlimit="10"/>
<path d="M287.061 853.023L304.017 879.619L313.52 873.519L296.562 846.97L309.12 838.944L327.432 867.639L336.948 861.587L311.348 821.464L255.882 856.897L282.341 898.357L291.875 892.258L272.674 862.21L287.061 853.023Z" fill="white"/>
<path d="M287.061 853.023L304.017 879.619L313.52 873.519L296.562 846.97L309.12 838.944L327.432 867.639L336.948 861.587L311.348 821.464L255.882 856.897L282.341 898.357L291.875 892.258L272.674 862.21L287.061 853.023Z" stroke="white" stroke-width="0.78075" stroke-miterlimit="10"/>
<path d="M320.052 908.477L329.509 920.822C333.084 925.487 332.765 928.922 328.374 932.253C327.958 932.588 327.239 933.167 326.236 933.815C324.834 934.749 323.524 935.778 322.757 936.388C317.888 940.1 316.519 941.585 315.042 944.882L323.908 956.459L325.842 954.924C325.51 952.567 326.095 951.095 328.394 949.369C343.592 937.261 344.083 936.412 341.85 927.553C348.648 931.673 355.138 931.369 361.528 926.44C365.681 923.259 368.389 918.894 369.052 914.418C369.675 910.209 368.295 906.021 364.885 901.554L343.377 873.527L291.08 913.615L299.326 924.346L320.052 908.477ZM329.026 901.582L342.645 891.169L352.606 904.136C354.969 907.202 355.668 908.707 355.582 910.837C355.496 912.98 354.21 914.983 351.767 916.829C349.26 918.77 346.685 919.615 344.676 919.203C342.789 918.842 341.331 917.679 338.984 914.597L329.026 901.582Z" fill="white"/>
<path d="M320.052 908.477L329.509 920.822C333.084 925.487 332.765 928.922 328.374 932.253C327.958 932.588 327.239 933.167 326.236 933.815C324.834 934.749 323.524 935.778 322.757 936.388C317.888 940.1 316.519 941.585 315.042 944.882L323.908 956.459L325.842 954.924C325.51 952.567 326.095 951.095 328.394 949.369C343.592 937.261 344.083 936.412 341.85 927.553C348.648 931.673 355.138 931.369 361.528 926.44C365.681 923.259 368.389 918.894 369.052 914.418C369.675 910.209 368.295 906.021 364.885 901.554L343.377 873.527L291.08 913.615L299.326 924.346L320.052 908.477ZM329.026 901.582L342.645 891.169L352.606 904.136C354.969 907.202 355.668 908.707 355.582 910.837C355.496 912.98 354.21 914.983 351.767 916.829C349.26 918.77 346.685 919.615 344.676 919.203C342.789 918.842 341.331 917.679 338.984 914.597L329.026 901.582Z" stroke="white" stroke-width="0.781838" stroke-miterlimit="10"/>
<path d="M404.35 969.799C408.517 965.444 410.273 961.652 410.396 956.801C410.562 950.228 407.074 943.329 400.24 936.815C388.847 925.956 377.163 924.986 368.362 934.283C361.333 941.62 361.622 948.754 369.548 959.758L374.941 967.41C380.28 974.857 380.961 978.961 377.308 982.814C373.496 986.788 367.558 985.73 361.625 980.068C354.991 973.762 353.93 967.394 358.451 962.03L348.925 952.942C339.839 963.67 341.534 975.832 353.659 987.381C365.904 999.091 378.606 1000.23 387.789 990.596C394.93 983.104 394.888 975.588 387.704 965.493L381.642 957.01C375.957 948.99 375.243 945.701 378.526 942.212C381.952 938.652 387.303 939.413 392.333 944.206C398.525 950.079 399.486 955.976 395.239 961.115L404.35 969.799Z" fill="white"/>
<path d="M404.35 969.799C408.517 965.444 410.273 961.652 410.396 956.801C410.562 950.228 407.074 943.329 400.24 936.815C388.847 925.956 377.163 924.986 368.362 934.283C361.333 941.62 361.622 948.754 369.548 959.758L374.941 967.41C380.28 974.857 380.961 978.961 377.308 982.814C373.496 986.788 367.558 985.73 361.625 980.068C354.991 973.762 353.93 967.394 358.451 962.03L348.925 952.942C339.839 963.67 341.534 975.832 353.659 987.382C365.904 999.091 378.606 1000.23 387.789 990.596C394.93 983.104 394.888 975.588 387.704 965.493L381.642 957.01C375.957 948.99 375.243 945.701 378.526 942.212C381.952 938.652 387.303 939.413 392.333 944.206C398.525 950.079 399.486 955.976 395.239 961.115L404.35 969.799Z" stroke="white" stroke-width="0.778407" stroke-miterlimit="10"/>
<path d="M490.764 1014.35L508.021 1022.85L513.024 1012.72L465.687 989.411L460.684 999.539L478.611 1008.36L454.493 1057.32L466.647 1063.29L490.764 1014.35Z" fill="white"/>
<path d="M490.764 1014.35L508.021 1022.85L513.024 1012.72L465.687 989.411L460.684 999.539L478.611 1008.36L454.493 1057.32L466.647 1063.29L490.764 1014.35Z" stroke="white" stroke-width="0.781526" stroke-miterlimit="10"/>
<path d="M524.271 1058.13L553.893 1069.31L557.887 1058.67L528.263 1047.55L533.536 1033.56L565.518 1045.57L569.495 1034.98L524.784 1018.15L501.525 1080.04L547.761 1097.42L551.774 1086.79L518.224 1074.18L524.271 1058.13Z" fill="white"/>
<path d="M524.271 1058.13L553.893 1069.31L557.887 1058.67L528.263 1047.55L533.536 1033.56L565.518 1045.57L569.495 1034.98L524.784 1018.15L501.525 1080.04L547.761 1097.42L551.774 1086.79L518.224 1074.18L524.271 1058.13Z" stroke="white" stroke-width="0.784202" stroke-miterlimit="10"/>
<path d="M582.272 1085.64L590.241 1080.1L605.607 1112.58L621.343 1115.75L600.319 1073.57L631.437 1051.08L615.859 1047.97L585.194 1071.12L590.794 1042.95L577.613 1040.35L564.807 1104.46L577.988 1107.09L582.272 1085.64Z" fill="white"/>
<path d="M582.272 1085.64L590.241 1080.1L605.607 1112.58L621.343 1115.75L600.319 1073.57L631.437 1051.08L615.859 1047.97L585.194 1071.12L590.794 1042.95L577.613 1040.35L564.807 1104.46L577.988 1107.09L582.272 1085.64Z" stroke="white" stroke-width="0.775593" stroke-miterlimit="10"/>
<path d="M672.106 1119.44L685.647 1120.2L689.253 1054.53L675.759 1053.8L673.264 1098.44L649.726 1052.36L635.844 1051.58L632.219 1117.25L645.729 1117.97L648.226 1072.6L672.106 1119.44Z" fill="white"/>
<path d="M672.106 1119.44L685.647 1120.2L689.253 1054.53L675.759 1053.8L673.264 1098.44L649.726 1052.36L635.844 1051.58L632.219 1117.25L645.729 1117.97L648.226 1072.6L672.106 1119.44Z" stroke="white" stroke-width="0.780126" stroke-miterlimit="10"/>
<path d="M718.383 1056.13L704.854 1056.77L707.771 1122.56L721.33 1121.97L718.383 1056.13Z" fill="white"/>
<path d="M718.383 1056.13L704.854 1056.77L707.771 1122.56L721.33 1121.97L718.383 1056.13Z" stroke="white" stroke-width="0.781679" stroke-miterlimit="10"/>
<path d="M781.445 1066.69C780.581 1060.76 778.671 1057.06 774.957 1053.99C769.895 1049.84 762.342 1048.32 753.02 1049.7C737.509 1052 729.62 1060.56 731.493 1073.18C732.958 1083.2 738.726 1087.33 752.208 1087.88L761.512 1088.3C770.682 1088.69 774.311 1090.7 775.068 1095.93C775.872 1101.35 771.386 1105.34 763.338 1106.56C754.254 1107.88 748.664 1104.81 747.194 1097.96L734.211 1099.86C737.089 1113.6 747.688 1119.74 764.192 1117.31C780.853 1114.83 789.542 1105.58 787.606 1092.46C786.093 1082.24 780.18 1077.69 767.872 1077.14L757.47 1076.69C747.698 1076.21 744.68 1074.76 743.97 1070.04C743.232 1065.17 747.135 1061.43 753.97 1060.43C762.411 1059.2 767.63 1062.04 769.029 1068.53L781.445 1066.69Z" fill="white"/>
<path d="M781.445 1066.69C780.581 1060.76 778.671 1057.06 774.957 1053.99C769.895 1049.84 762.342 1048.32 753.02 1049.7C737.509 1052 729.62 1060.56 731.493 1073.18C732.958 1083.2 738.726 1087.33 752.208 1087.88L761.512 1088.3C770.682 1088.69 774.311 1090.7 775.068 1095.93C775.872 1101.35 771.386 1105.34 763.338 1106.56C754.254 1107.88 748.664 1104.81 747.194 1097.96L734.211 1099.86C737.089 1113.6 747.688 1119.74 764.192 1117.31C780.853 1114.83 789.542 1105.58 787.606 1092.46C786.093 1082.24 780.18 1077.69 767.872 1077.14L757.47 1076.69C747.698 1076.21 744.68 1074.76 743.97 1070.04C743.232 1065.17 747.135 1061.43 753.97 1060.43C762.411 1059.2 767.63 1062.04 769.029 1068.53L781.445 1066.69Z" stroke="white" stroke-width="0.775593" stroke-miterlimit="10"/>
<path d="M811.61 1086.42L816.059 1077.74L844.975 1099.38L860.436 1094.76L821.96 1067.26L838.996 1032.65L823.693 1037.2L807.354 1072.17L799.079 1044.56L786.143 1048.41L804.95 1111.33L817.87 1107.48L811.61 1086.42Z" fill="white"/>
<path d="M811.61 1086.42L816.059 1077.74L844.975 1099.38L860.436 1094.76L821.96 1067.26L838.996 1032.65L823.693 1037.2L807.354 1072.17L799.079 1044.56L786.143 1048.41L804.95 1111.33L817.87 1107.48L811.61 1086.42Z" stroke="white" stroke-width="0.779225" stroke-miterlimit="10"/>
<path d="M906.871 1060.13L916.319 1070.39L928.992 1064.6L880.871 1014.22L867.249 1020.45L873.388 1090.04L885.936 1084.3L884.456 1070.41L906.871 1060.13ZM898.795 1051.39L883.19 1058.54L880.274 1031.58L898.795 1051.39Z" fill="white"/>
<path d="M906.871 1060.13L916.319 1070.39L928.992 1064.6L880.871 1014.22L867.249 1020.45L873.388 1090.04L885.936 1084.3L884.456 1070.41L906.871 1060.13ZM898.795 1051.39L883.19 1058.54L880.274 1031.58L898.795 1051.39Z" stroke="white" stroke-width="0.781173" stroke-miterlimit="10"/>
<path d="M1006.47 978.106L1024.96 1001.54L1035.6 993.17L994.827 941.483L984.122 949.95L999.397 969.28L978.994 985.393L963.7 966.058L953.093 974.451L993.855 1026.09L1004.48 1017.7L985.972 994.26L1006.47 978.106Z" fill="white"/>
<path d="M1006.47 978.106L1024.96 1001.54L1035.6 993.17L994.827 941.483L984.122 949.95L999.397 969.28L978.994 985.393L963.7 966.058L953.093 974.451L993.855 1026.09L1004.48 1017.7L985.972 994.26L1006.47 978.106Z" stroke="white" stroke-width="0.78075" stroke-miterlimit="10"/>
<path d="M1008.17 902.992L1001.34 910.178L1009.29 917.739L1016.12 910.581L1008.17 902.992ZM1019.71 890.867L1012.87 898.069L1020.84 905.63L1027.67 898.476L1019.71 890.867ZM1022.27 911.852C1015.92 918.485 1012.96 926.049 1013.44 934.235C1013.97 942.83 1018.34 951.583 1025.45 958.357C1032.54 965.11 1041.54 969.082 1050.07 969.158C1058.44 969.275 1065.68 965.983 1072.12 959.18C1078.6 952.422 1081.51 945.012 1080.99 936.701C1080.54 928.421 1076.07 919.305 1069.33 912.921C1061.92 905.842 1052.98 901.936 1044.37 901.794C1035.92 901.708 1028.79 905.002 1022.27 911.852ZM1030.68 919.737C1038.33 911.694 1049.65 912.811 1059.97 922.624C1069.68 931.873 1071.22 943.42 1063.78 951.248C1056.26 959.138 1044.72 958.092 1034.73 948.603C1024.8 939.064 1023.16 927.611 1030.68 919.737Z" fill="white"/>
<path d="M1008.17 902.992L1001.34 910.178L1009.29 917.739L1016.12 910.581L1008.17 902.992ZM1019.71 890.867L1012.87 898.069L1020.84 905.63L1027.67 898.476L1019.71 890.867ZM1022.27 911.852C1015.92 918.485 1012.96 926.049 1013.44 934.235C1013.97 942.83 1018.34 951.583 1025.45 958.357C1032.54 965.11 1041.54 969.082 1050.07 969.158C1058.44 969.275 1065.68 965.983 1072.12 959.18C1078.6 952.422 1081.51 945.012 1080.99 936.701C1080.54 928.421 1076.07 919.305 1069.33 912.921C1061.92 905.842 1052.98 901.936 1044.37 901.794C1035.92 901.708 1028.79 905.002 1022.27 911.852V911.852ZM1030.68 919.737C1038.33 911.694 1049.65 912.811 1059.97 922.624C1069.68 931.873 1071.22 943.42 1063.78 951.248C1056.26 959.138 1044.72 958.092 1034.73 948.603C1024.8 939.064 1023.16 927.611 1030.68 919.737Z" stroke="white" stroke-width="0.778407" stroke-miterlimit="10"/>
<path d="M1103.02 855.105L1089.25 877.695L1098.93 883.576L1106.74 870.731C1109.72 872.967 1111.16 874.912 1112.15 877.835C1113.88 882.685 1113.3 888.166 1110.55 892.621C1104.84 901.996 1092.58 903.722 1080.99 896.665C1068.85 889.263 1065.11 878.883 1071.12 869.046C1073.57 865.036 1076.77 862.347 1080.59 861.141C1082.95 860.372 1084.8 860.31 1088.34 861.105L1094.96 850.186C1082.54 844.564 1069.47 849.508 1061.17 863.122C1051.28 879.346 1056.53 897.689 1074.07 908.343C1091.15 918.765 1110.39 915.212 1119.66 899.995C1124.26 892.392 1124.68 885.669 1120.96 877.481L1129.23 880.569L1133.43 873.645L1103.02 855.105Z" fill="white"/>
<path d="M1103.02 855.105L1089.25 877.695L1098.93 883.576L1106.74 870.731C1109.72 872.967 1111.16 874.912 1112.15 877.835C1113.88 882.685 1113.3 888.166 1110.55 892.621C1104.84 901.996 1092.58 903.722 1080.99 896.665C1068.85 889.263 1065.11 878.883 1071.12 869.046C1073.57 865.036 1076.77 862.347 1080.59 861.141C1082.95 860.372 1084.8 860.31 1088.34 861.105L1094.96 850.186C1082.54 844.564 1069.47 849.508 1061.17 863.122C1051.28 879.346 1056.53 897.689 1074.07 908.343C1091.15 918.765 1110.39 915.212 1119.66 899.995C1124.26 892.392 1124.68 885.669 1120.96 877.481L1129.23 880.569L1133.43 873.645L1103.02 855.105Z" stroke="white" stroke-width="0.782455" stroke-miterlimit="10"/>
<path d="M1120.76 791.858C1115.34 789.171 1111.16 788.64 1106.47 789.96C1100.17 791.776 1094.58 797.174 1090.37 805.697C1083.41 819.878 1086.01 831.344 1097.53 837.02C1106.69 841.529 1113.4 839.114 1121.59 828.206L1127.3 820.755C1132.81 813.428 1136.59 811.519 1141.33 813.88C1146.28 816.307 1147.07 822.323 1143.44 829.698C1139.34 837.972 1133.6 840.881 1127.07 838.178L1121.24 849.991C1134.25 855.488 1145.37 850.226 1152.85 835.152C1160.31 819.901 1157.62 807.403 1145.64 801.491C1136.33 796.902 1129.13 799.197 1121.65 809.104L1115.28 817.476C1109.34 825.31 1106.4 826.959 1102.1 824.862C1097.61 822.664 1096.74 817.27 1099.84 811.056C1103.63 803.372 1108.99 800.642 1115.17 803.196L1120.76 791.858Z" fill="white"/>
<path d="M1120.76 791.858C1115.34 789.171 1111.16 788.64 1106.47 789.96C1100.17 791.776 1094.58 797.174 1090.37 805.697C1083.41 819.878 1086.01 831.344 1097.53 837.02C1106.69 841.529 1113.4 839.114 1121.59 828.206L1127.3 820.755C1132.81 813.428 1136.59 811.519 1141.33 813.88C1146.28 816.307 1147.07 822.323 1143.44 829.698C1139.34 837.972 1133.6 840.881 1127.07 838.178L1121.24 849.991C1134.25 855.488 1145.37 850.226 1152.85 835.152C1160.31 819.901 1157.62 807.403 1145.64 801.491C1136.33 796.902 1129.13 799.197 1121.65 809.104L1115.28 817.476C1109.34 825.31 1106.4 826.959 1102.1 824.862C1097.61 822.664 1096.74 817.27 1099.84 811.056C1103.63 803.372 1108.99 800.642 1115.17 803.196L1120.76 791.858Z" stroke="white" stroke-width="0.781526" stroke-miterlimit="10"/>
<path d="M1152.49 771.994L1147.85 763.423L1182.05 751.732L1186.95 736.356L1142.49 752.609L1123.49 719.01L1118.66 734.215L1138.31 767.438L1110.82 758.676L1106.7 771.582L1169.34 791.553L1173.41 778.661L1152.49 771.994Z" fill="white"/>
<path d="M1152.49 771.994L1147.85 763.423L1182.05 751.732L1186.95 736.356L1142.49 752.609L1123.49 719.01L1118.66 734.215L1138.31 767.438L1110.82 758.676L1106.7 771.582L1169.34 791.553L1173.41 778.661L1152.49 771.994Z" stroke="white" stroke-width="0.779773" stroke-miterlimit="10"/>
<path d="M1128.22 685.965C1126.89 695.015 1128.85 702.941 1133.96 709.315C1139.35 716.03 1147.93 720.648 1157.63 722.069C1167.35 723.518 1177 721.574 1183.96 716.708C1190.86 711.981 1194.85 705.116 1196.19 695.834C1197.56 686.582 1195.72 678.863 1190.48 672.373C1185.33 665.901 1176.4 661.041 1167.24 659.698C1157.1 658.203 1147.58 660.17 1140.49 665.032C1133.53 669.818 1129.58 676.608 1128.22 685.965ZM1139.63 687.558C1141.24 676.592 1151.14 670.954 1165.21 673.031C1178.49 674.999 1186.42 683.481 1184.81 694.183C1183.24 704.929 1173.23 710.752 1159.61 708.731C1146.01 706.743 1138.03 698.319 1139.63 687.558Z" fill="white"/>
<path d="M1128.22 685.965C1126.89 695.015 1128.85 702.941 1133.96 709.315C1139.35 716.03 1147.93 720.648 1157.63 722.069C1167.35 723.518 1177 721.574 1183.96 716.708C1190.86 711.981 1194.85 705.116 1196.19 695.834C1197.56 686.582 1195.72 678.863 1190.48 672.373C1185.33 665.901 1176.4 661.041 1167.24 659.698C1157.1 658.203 1147.58 660.17 1140.49 665.032C1133.53 669.818 1129.58 676.608 1128.22 685.965V685.965ZM1139.63 687.558C1141.24 676.592 1151.14 670.954 1165.21 673.031C1178.49 674.999 1186.42 683.481 1184.81 694.183C1183.24 704.929 1173.23 710.752 1159.61 708.731C1146.01 706.743 1138.03 698.319 1139.63 687.558V687.558Z" stroke="white" stroke-width="0.777624" stroke-miterlimit="10"/>
<path d="M1137.37 633.435L1137.3 646.961L1203.02 647.313L1203.25 602.305L1192 602.252L1191.81 633.721L1137.37 633.435Z" fill="white"/>
<path d="M1137.37 633.435L1137.3 646.961L1203.02 647.313L1203.25 602.305L1192 602.252L1191.81 633.721L1137.37 633.435Z" stroke="white" stroke-width="0.779925" stroke-miterlimit="10"/>
<path d="M1185.36 547.36L1197.96 541.258L1196.09 527.434L1133.83 558.891L1135.83 573.741L1204.28 588.079L1202.44 574.412L1188.68 571.791L1185.36 547.36ZM1174.65 552.519L1176.96 569.537L1150.27 564.523L1174.65 552.519Z" fill="white"/>
<path d="M1185.36 547.36L1197.96 541.258L1196.09 527.434L1133.83 558.891L1135.83 573.741L1204.28 588.079L1202.44 574.412L1188.68 571.791L1185.36 547.36ZM1174.65 552.519L1176.96 569.537L1150.27 564.523L1174.65 552.519Z" stroke="white" stroke-width="0.781991" stroke-miterlimit="10"/>
<path d="M255.975 376.607L273.656 394.985L261.431 417.691L285.184 406.581L303.212 425.485L299.536 400.027L322.834 388.949L297.212 384.231L293.261 358.529L281.001 381.363L255.975 376.607Z" stroke="white" stroke-width="0.777665" stroke-miterlimit="10"/>
<path d="M280.953 381.546L293.164 358.763L297.103 384.384L322.71 389.026L299.46 400.101L303.169 425.484L285.169 406.705L261.495 417.801L273.656 395.141L256.006 376.797L280.953 381.546Z" fill="white"/>
<path d="M407.932 289.228L428.126 273.25C435.987 267.06 439.483 261.325 439.66 254.363C439.961 246.306 436.626 237.579 430.301 229.542C424.052 221.636 416.326 216.349 408.351 214.692C401.577 213.266 395.291 215.347 387.347 221.643L367.17 237.573L407.932 289.228ZM411.564 271.969L384.788 238.02L394.342 230.478C402.364 224.136 410.742 226.621 419.736 238.045C428.687 249.387 429.14 258.088 421.135 264.415L411.564 271.969Z" fill="white"/>
<path d="M407.932 289.228L428.126 273.25C435.987 267.06 439.483 261.325 439.66 254.363C439.961 246.306 436.626 237.579 430.301 229.542C424.052 221.636 416.326 216.349 408.351 214.692C401.577 213.266 395.291 215.347 387.347 221.643L367.17 237.573L407.932 289.228ZM411.564 271.969L384.788 238.02L394.342 230.478C402.364 224.136 410.742 226.621 419.736 238.045C428.687 249.387 429.14 258.088 421.135 264.415L411.564 271.969Z" stroke="white" stroke-width="0.78075" stroke-miterlimit="10"/>
<path d="M493.428 218.538L503.328 228.229L515.563 221.837L465.426 174.297L452.241 181.166L461.744 249.785L473.896 243.483L471.739 229.76L493.428 218.538ZM485.008 210.26L469.907 218.098L465.694 191.528L485.008 210.26Z" fill="white"/>
<path d="M493.428 218.538L503.328 228.229L515.563 221.837L465.426 174.297L452.241 181.166L461.744 249.785L473.896 243.483L471.739 229.76L493.428 218.538ZM485.008 210.26L469.907 218.098L465.694 191.528L485.008 210.26Z" stroke="white" stroke-width="0.774803" stroke-miterlimit="10"/>
<path d="M530.831 157.484L548.862 150.975L545.057 140.417L495.634 158.127L499.434 168.697L518.126 162.016L536.451 213.134L549.156 208.603L530.831 157.484Z" fill="white"/>
<path d="M530.831 157.484L548.862 150.975L545.057 140.417L495.634 158.127L499.434 168.697L518.126 162.016L536.451 213.134L549.156 208.603L530.831 157.484Z" stroke="white" stroke-width="0.777624" stroke-miterlimit="10"/>
<path d="M610.621 179.787L617.405 191.856L630.942 189.149L595.955 129.496L581.351 132.416L571.42 201.104L584.876 198.39L586.59 184.577L610.621 179.787ZM604.804 169.539L588.093 172.875L591.433 146.136L604.804 169.539Z" fill="white"/>
<path d="M610.621 179.787L617.405 191.856L630.942 189.149L595.955 129.496L581.351 132.416L571.42 201.104L584.876 198.39L586.59 184.577L610.621 179.787ZM604.804 169.539L588.093 172.875L591.433 146.136L604.804 169.539Z" stroke="white" stroke-width="0.775593" stroke-miterlimit="10"/>
<path d="M665.968 131.088L685.202 130.197L684.691 118.909L631.957 121.299L632.468 132.587L652.424 131.682L654.861 186.234L668.389 185.591L665.968 131.088Z" fill="white"/>
<path d="M665.968 131.088L685.202 130.197L684.691 118.909L631.957 121.299L632.468 132.587L652.424 131.682L654.861 186.234L668.389 185.591L665.968 131.088Z" stroke="white" stroke-width="0.781679" stroke-miterlimit="10"/>
<path d="M721.244 154.487L752.657 157.476L753.708 146.228L722.331 143.239L723.725 128.4L757.65 131.609L758.717 120.364L711.312 115.875L705.044 181.429L754.075 186.116L755.142 174.871L719.609 171.513L721.244 154.487Z" fill="white"/>
<path d="M721.244 154.487L752.657 157.476L753.708 146.228L722.331 143.239L723.725 128.4L757.65 131.609L758.717 120.364L711.312 115.875L705.044 181.429L754.075 186.116L755.142 174.871L719.609 171.513L721.244 154.487Z" stroke="white" stroke-width="0.781679" stroke-miterlimit="10"/>
<path d="M786.783 170.109L795.005 165.01L808.675 198.269L824.236 202.187L805.413 159.041L837.6 138.172L822.248 134.26L790.417 155.767L797.463 127.963L784.444 124.659L768.351 188.007L781.391 191.312L786.783 170.109Z" fill="white"/>
<path d="M786.783 170.109L795.005 165.01L808.675 198.269L824.236 202.187L805.413 159.041L837.6 138.172L822.248 134.26L790.417 155.767L797.463 127.963L784.444 124.659L768.351 188.007L781.391 191.312L786.783 170.109Z" stroke="white" stroke-width="0.775593" stroke-miterlimit="10"/>
<path d="M875.911 226.36L888.35 231.686L914.231 171.199L901.763 165.872L884.201 207.045L877.801 155.636L865.004 150.189L839.171 210.677L851.612 215.959L869.503 174.137L875.911 226.36Z" fill="white"/>
<path d="M875.911 226.36L888.35 231.686L914.231 171.199L901.763 165.872L884.201 207.045L877.801 155.636L865.004 150.189L839.171 210.677L851.612 215.959L869.503 174.137L875.911 226.36Z" stroke="white" stroke-width="0.780473" stroke-miterlimit="10"/>
<path d="M951.685 191.722L940.091 184.662L905.763 240.974L917.376 248.035L951.685 191.722Z" fill="white"/>
<path d="M951.685 191.722L940.091 184.662L905.763 240.974L917.376 248.035L951.685 191.722Z" stroke="white" stroke-width="0.782455" stroke-miterlimit="10"/>
<path d="M958.098 245.588L967.783 244.114L967.209 280.347L980.03 290.22L979.795 242.727L1017.93 236.271L1005.21 226.508L967.216 233.766L984.833 210.848L974.063 202.59L933.957 254.84L944.708 263.053L958.098 245.588Z" fill="white"/>
<path d="M958.098 245.588L967.783 244.114L967.209 280.347L980.03 290.22L979.795 242.727L1017.93 236.271L1005.21 226.508L967.216 233.766L984.833 210.848L974.063 202.59L933.957 254.84L944.708 263.053L958.098 245.588Z" stroke="white" stroke-width="0.781408" stroke-miterlimit="10"/>
<path d="M1123.89 370.516L1098.74 375.779L1085.85 353.185L1082.63 379.41L1056.91 384.706L1080.58 395.171L1077.58 421.009L1095.29 401.621L1119.38 411.972L1106.46 389.33L1123.89 370.516Z" stroke="white" stroke-width="0.783661" stroke-miterlimit="10"/>
<path d="M1106.61 389.289L1119.58 411.98L1095.45 401.66L1077.7 421.095L1080.71 395.209L1056.94 384.742L1082.75 379.416L1085.89 353.113L1098.86 375.752L1124.05 370.443L1106.61 389.289Z" fill="white"/>
<path d="M282.276 607.127C287.053 379.274 476.251 199.424 705.318 205.013C930.405 210.942 1110.25 400.152 1103.46 627.954C1098.74 854.322 909.527 1034.13 684.39 1030.17C455.373 1022.61 275.534 833.443 282.276 607.127Z" fill="black"/>
<path d="M282.276 607.127C287.053 379.274 476.251 199.424 705.318 205.013C930.405 210.942 1110.25 400.152 1103.46 627.954C1098.74 854.322 909.527 1034.13 684.39 1030.17C455.373 1022.61 275.534 833.443 282.276 607.127Z" stroke="black" stroke-width="0.433207" stroke-miterlimit="3.86"/>
<path d="M565.288 732.374C564.49 732.374 563.844 733.021 563.844 733.819V740.38C563.844 741.178 564.49 741.825 565.288 741.825H574.876C577.302 741.825 579.269 743.792 579.269 746.218C579.269 748.644 577.302 750.611 574.876 750.611H565.288C564.49 750.611 563.844 751.257 563.844 752.055V759.416C563.844 760.214 564.49 760.86 565.288 760.86H576.73C579.248 760.86 581.289 762.902 581.289 765.42C581.289 767.938 579.248 769.979 576.73 769.979H560.03C555.775 769.979 552.325 766.529 552.325 762.274V730.96C552.325 726.705 555.775 723.256 560.03 723.256H576.73C579.248 723.256 581.289 725.297 581.289 727.815C581.289 730.333 579.248 732.374 576.73 732.374H565.288Z" fill="white"/>
<path d="M605.876 770.445C602.419 770.445 599.32 769.89 596.581 768.781C593.842 767.671 591.641 766.03 589.98 763.856C588.768 762.227 587.986 760.349 587.632 758.221C587.431 757.016 588.43 756.002 589.651 756.002H597.726C598.836 756.002 599.718 756.863 600.106 757.903C600.418 758.742 600.882 759.44 601.498 759.995C602.531 760.883 603.878 761.326 605.539 761.326C607.246 761.326 608.593 760.949 609.581 760.195C610.569 759.396 611.063 758.309 611.063 756.934C611.063 755.78 610.659 754.826 609.85 754.072C609.087 753.317 608.122 752.696 606.954 752.208C605.831 751.72 604.215 751.165 602.104 750.544C599.051 749.612 596.558 748.681 594.627 747.749C592.696 746.817 591.035 745.441 589.643 743.622C588.251 741.803 587.555 739.429 587.555 736.501C587.555 732.152 589.149 728.758 592.337 726.317C595.526 723.832 599.679 722.59 604.799 722.59C610.008 722.59 614.206 723.832 617.395 726.317C620.012 728.321 621.631 730.983 622.251 734.303C622.479 735.522 621.474 736.567 620.233 736.567H612.094C610.948 736.567 610.067 735.632 609.582 734.593C609.301 733.988 608.896 733.47 608.369 733.04C607.336 732.152 606.011 731.708 604.394 731.708C603.002 731.708 601.88 732.086 601.026 732.84C600.173 733.55 599.747 734.593 599.747 735.968C599.747 737.477 600.465 738.653 601.902 739.496C603.339 740.339 605.584 741.248 608.638 742.224C611.692 743.245 614.161 744.221 616.047 745.153C617.978 746.085 619.64 747.438 621.032 749.213C622.424 750.988 623.12 753.273 623.12 756.068C623.12 758.731 622.424 761.149 621.032 763.323C619.685 765.497 617.709 767.228 615.104 768.515C612.5 769.801 609.424 770.445 605.876 770.445Z" fill="white"/>
<path d="M659.665 723.256C662.183 723.256 664.225 725.297 664.225 727.815C664.225 730.333 662.183 732.374 659.665 732.374H651.696V765.163C651.696 767.823 649.54 769.979 646.88 769.979H644.993C642.334 769.979 640.178 767.823 640.178 765.163V732.374H632.208C629.69 732.374 627.649 730.333 627.649 727.815C627.649 725.297 629.69 723.256 632.208 723.256H659.665Z" fill="white"/>
<path d="M682.73 763.586C682.73 761.878 686.245 758.256 684.818 759.197C689.219 755.602 692.677 752.652 695.192 750.344C697.751 748.037 699.907 745.619 701.658 743.09C703.409 740.561 704.285 738.098 704.285 735.702C704.285 733.883 703.858 732.463 703.005 731.442C702.152 730.422 700.872 729.911 699.166 729.911C697.459 729.911 696.112 730.555 695.124 731.842C695.101 731.872 695.078 731.903 695.056 731.934C693.275 734.389 691.251 737.166 688.219 737.166C685.135 737.166 682.539 734.581 683.367 731.61C683.765 730.18 684.316 728.881 685.02 727.715C686.592 725.186 688.635 723.322 691.15 722.124C693.71 720.926 696.539 720.327 699.637 720.327C704.981 720.327 709 721.68 711.694 724.387C714.434 727.094 715.803 730.621 715.803 734.97C715.803 739.717 714.164 744.132 710.886 748.215C707.608 752.252 703.432 756.201 698.357 760.062H711.919C714.473 760.062 716.544 762.133 716.544 764.688C716.544 767.242 714.473 769.313 711.919 769.313H688.417C685.276 769.313 682.73 766.727 682.73 763.586Z" fill="white"/>
<path d="M721.616 745.02C721.616 737.388 723.098 731.376 726.061 726.983C729.07 722.59 733.897 720.394 740.543 720.394C747.189 720.394 751.994 722.59 754.958 726.983C757.967 731.376 759.471 737.388 759.471 745.02C759.471 752.74 757.967 758.797 754.958 763.19C751.994 767.583 747.189 769.779 740.543 769.779C733.897 769.779 729.07 767.583 726.061 763.19C723.098 758.797 721.616 752.74 721.616 745.02ZM748.155 745.02C748.155 740.538 747.661 737.1 746.673 734.703C745.685 732.263 743.642 731.043 740.543 731.043C737.445 731.043 735.402 732.263 734.414 734.703C733.426 737.1 732.932 740.538 732.932 745.02C732.932 748.037 733.111 750.544 733.471 752.541C733.83 754.493 734.548 756.091 735.626 757.333C736.749 758.531 738.388 759.13 740.543 759.13C742.699 759.13 744.315 758.531 745.393 757.333C746.516 756.091 747.257 754.493 747.616 752.541C747.975 750.544 748.155 748.037 748.155 745.02Z" fill="white"/>
<path d="M765.152 763.586C765.152 761.878 768.668 758.256 767.241 759.197C771.641 755.602 775.099 752.652 777.614 750.344C780.173 748.037 782.329 745.619 784.08 743.09C785.831 740.561 786.707 738.098 786.707 735.702C786.707 733.883 786.281 732.463 785.427 731.442C784.574 730.422 783.294 729.911 781.588 729.911C779.881 729.911 778.534 730.555 777.546 731.842C777.523 731.872 777.501 731.903 777.478 731.934C775.698 734.389 773.673 737.166 770.641 737.166C767.557 737.166 764.961 734.581 765.789 731.61C766.187 730.18 766.739 728.881 767.443 727.715C769.014 725.186 771.057 723.322 773.572 722.124C776.132 720.926 778.961 720.327 782.059 720.327C787.403 720.327 791.422 721.68 794.117 724.387C796.856 727.094 798.225 730.621 798.225 734.97C798.225 739.717 796.586 744.132 793.308 748.215C790.03 752.252 785.854 756.201 780.78 760.062H794.341C796.895 760.062 798.966 762.133 798.966 764.688C798.966 767.242 796.895 769.313 794.341 769.313H770.839C767.698 769.313 765.152 766.727 765.152 763.586Z" fill="white"/>
<path d="M804.038 745.02C804.038 737.388 805.52 731.376 808.483 726.983C811.492 722.59 816.319 720.394 822.965 720.394C829.612 720.394 834.416 722.59 837.38 726.983C840.389 731.376 841.893 737.388 841.893 745.02C841.893 752.74 840.389 758.797 837.38 763.19C834.416 767.583 829.612 769.779 822.965 769.779C816.319 769.779 811.492 767.583 808.483 763.19C805.52 758.797 804.038 752.74 804.038 745.02ZM830.577 745.02C830.577 740.538 830.083 737.1 829.095 734.703C828.107 732.263 826.064 731.043 822.965 731.043C819.867 731.043 817.824 732.263 816.836 734.703C815.848 737.1 815.354 740.538 815.354 745.02C815.354 748.037 815.534 750.544 815.893 752.541C816.252 754.493 816.971 756.091 818.048 757.333C819.171 758.531 820.81 759.13 822.965 759.13C825.121 759.13 826.738 758.531 827.815 757.333C828.938 756.091 829.679 754.493 830.038 752.541C830.397 750.544 830.577 748.037 830.577 745.02Z" fill="white"/>
<path fill-rule="evenodd" clip-rule="evenodd" d="M422.989 536.489C434.884 530.182 448.786 527.029 464.695 527.029H509.678C516.061 527.029 521.236 532.204 521.236 538.587V666.39C521.236 672.773 516.061 677.947 509.678 677.947H464.695C448.93 677.947 435.099 674.794 423.204 668.488C411.164 662.182 401.92 653.296 395.471 641.83C388.878 630.364 385.582 617.25 385.582 602.488C385.582 587.583 388.878 574.469 395.471 563.146C401.92 551.681 411.093 542.795 422.989 536.489ZM434.598 634.736C442.337 642.332 453.158 646.13 467.06 646.13H481.71C483.236 646.13 484.474 644.892 484.474 643.366V561.181C484.474 559.654 483.236 558.417 481.71 558.417H467.06C453.158 558.417 442.337 562.286 434.598 570.026C426.858 577.765 422.989 588.586 422.989 602.488C422.989 616.39 426.858 627.14 434.598 634.736ZM633.582 675.57C634.722 677.068 636.497 677.947 638.38 677.947H667.897C672.932 677.947 675.749 672.141 672.634 668.186L619.698 600.983L670.448 536.799C673.574 532.846 670.758 527.029 665.718 527.029H637.953C636.068 527.029 634.292 527.911 633.152 529.411L584.656 593.244V533.059C584.656 529.729 581.956 527.029 578.626 527.029H553.924C550.593 527.029 547.894 529.729 547.894 533.059V671.917C547.894 675.247 550.593 677.947 553.924 677.947H578.626C581.956 677.947 584.656 675.247 584.656 671.917V611.303L633.582 675.57ZM732.448 661.178C731.831 662.258 731.311 663.408 730.901 664.618L730.519 665.747C728.049 673.04 721.205 677.947 713.506 677.947C701.053 677.947 692.378 665.583 696.615 653.873L735.269 547.043C739.615 535.031 751.02 527.029 763.793 527.029C776.567 527.029 787.972 535.031 792.318 547.043L830.875 653.604C835.159 665.445 826.387 677.947 813.795 677.947C806.009 677.947 799.09 672.985 796.592 665.611L796.256 664.618C795.846 663.408 795.326 662.258 794.709 661.178H795.122L777.708 609.582L776.659 606.481C776.562 606.076 776.445 605.67 776.308 605.265C776.166 604.844 776.007 604.437 775.834 604.045L763.519 567.66L732.132 661.178H732.448ZM941.99 675.57C943.13 677.068 944.905 677.947 946.787 677.947H976.305C981.34 677.947 984.157 672.141 981.042 668.186L928.106 600.983L978.856 536.799C981.982 532.846 979.166 527.029 974.126 527.029H946.361C944.476 527.029 942.7 527.911 941.56 529.411L893.064 593.244V533.059C893.064 529.729 890.364 527.029 887.034 527.029H862.332C859.001 527.029 856.301 529.729 856.301 533.059V671.917C856.301 675.247 859.001 677.947 862.332 677.947H887.033C890.364 677.947 893.064 675.247 893.064 671.917V611.303L941.99 675.57Z" fill="white"/>
<mask id="mask0_39_440" style="mask-type:alpha" maskUnits="userSpaceOnUse" x="281" y="189" width="823" height="827">
<path d="M281.992 602.663C280.99 374.762 465.567 190.173 694.702 189.953C919.867 190.173 1104.46 374.762 1103.44 602.663C1104.46 829.078 919.867 1013.62 694.702 1015.37C465.567 1013.62 280.99 829.078 281.992 602.663Z" fill="#FF0000"/>
</mask>
<g mask="url(#mask0_39_440)">
<path fill-rule="evenodd" clip-rule="evenodd" d="M441.917 282.864C521.676 356.447 639.89 262.187 684.754 197.303L684.754 197.302C752.17 99.3821 943.97 -68.3639 1171.85 44.006C1456.7 184.469 1422.52 550.242 1297.19 742.755C1171.85 935.267 904.09 1271.09 692.587 1388.03C660.839 1365.08 622.357 1335.37 580.049 1300.28C598.139 1301.27 614.351 1295.37 623.509 1276.8C646.298 1230.59 593.125 1171.03 563.69 1147.03C522.387 1113.52 459.719 1101.4 429.81 1123.5C416.899 1133.04 416.677 1146.06 421.223 1158C266.93 1008.82 107.937 819.746 45.2594 639.368C-85.0607 264.326 88.6994 50.423 345.779 5.50349C371.539 1.00244 395.736 -0.599967 418.41 0.19582C398.603 4.19457 381.28 9.64951 367.855 16.9119C283.358 62.6238 349.484 95.9315 403.387 123.082L403.842 123.311C406.116 124.457 408.367 125.591 410.583 126.715C454.451 148.961 455.448 177.339 433.372 193.738C415.062 207.34 399.189 238.943 441.917 282.864ZM1208.88 526C1222.89 484.884 1263.15 401.224 1312.14 395.52C1373.39 388.39 1360.57 541.687 1314.28 634.378C1267.99 727.069 1203.9 736.338 1194.64 658.62C1187.23 596.446 1201.05 544.301 1208.88 526ZM400.613 461.116C378.775 469.435 322.279 484.931 271.006 480.367C206.914 474.663 100.806 546.677 95.1091 628.673C89.412 710.669 147.095 825.464 253.914 811.204C277.554 808.048 297.078 804.228 313.436 801.029C370.995 789.769 389.354 786.178 409.871 846.141C436.22 923.146 483.221 971.631 585.056 966.64C686.89 961.648 751.694 995.873 711.103 1101.4C708.006 1109.59 704.549 1117.72 701.148 1125.71C682.644 1169.2 665.779 1208.83 717.512 1234.73C778.755 1265.39 843.559 1180.54 856.378 1117.08C857.483 1111.61 858.599 1105.92 859.742 1100.1C871.859 1038.32 887.061 960.812 925.454 959.509C966.013 958.133 964.102 1002.6 963.28 1021.72C963.25 1022.41 963.222 1023.06 963.197 1023.68C962.485 1041.51 960.562 1147.51 1038.68 1047.21C1099.21 969.492 1138.38 912.451 1156.19 875.374C1156.54 874.631 1156.9 873.88 1157.27 873.12C1179.68 826.5 1216.84 749.21 1136.96 707.817C1056.96 666.363 985.986 569.494 1116.31 421.188C1246.63 272.882 1178.26 123.863 1086.4 92.4908C994.531 61.1184 849.969 86.0737 872.045 163.079C876.839 179.803 882.373 194.005 887.208 206.415C904.637 251.145 912.994 272.595 844.984 304.967C806.328 323.367 774.016 319.042 740.835 314.6C699.44 309.059 656.693 303.337 598.586 341.331C565.473 362.982 541.338 380.139 521.335 394.359C478.1 425.093 454.169 442.105 400.613 461.116Z" fill="url(#paint5_radial_39_440)"/>
<path fill-rule="evenodd" clip-rule="evenodd" d="M441.917 282.864C521.676 356.447 639.89 262.187 684.754 197.303L684.754 197.302C752.17 99.3821 943.97 -68.3639 1171.85 44.006C1456.7 184.469 1422.52 550.242 1297.19 742.755C1171.85 935.267 904.09 1271.09 692.587 1388.03C660.839 1365.08 622.357 1335.37 580.049 1300.28C598.139 1301.27 614.351 1295.37 623.509 1276.8C646.298 1230.59 593.125 1171.03 563.69 1147.03C522.387 1113.52 459.719 1101.4 429.81 1123.5C416.899 1133.04 416.677 1146.06 421.223 1158C266.93 1008.82 107.937 819.746 45.2594 639.368C-85.0607 264.326 88.6994 50.423 345.779 5.50349C371.539 1.00244 395.736 -0.599967 418.41 0.19582C398.603 4.19457 381.28 9.64951 367.855 16.9119C283.358 62.6238 349.484 95.9315 403.387 123.082L403.842 123.311C406.116 124.457 408.367 125.591 410.583 126.715C454.451 148.961 455.448 177.339 433.372 193.738C415.062 207.34 399.189 238.943 441.917 282.864ZM1208.88 526C1222.89 484.884 1263.15 401.224 1312.14 395.52C1373.39 388.39 1360.57 541.687 1314.28 634.378C1267.99 727.069 1203.9 736.338 1194.64 658.62C1187.23 596.446 1201.05 544.301 1208.88 526ZM400.613 461.116C378.775 469.435 322.279 484.931 271.006 480.367C206.914 474.663 100.806 546.677 95.1091 628.673C89.412 710.669 147.095 825.464 253.914 811.204C277.554 808.048 297.078 804.228 313.436 801.029C370.995 789.769 389.354 786.178 409.871 846.141C436.22 923.146 483.221 971.631 585.056 966.64C686.89 961.648 751.694 995.873 711.103 1101.4C708.006 1109.59 704.549 1117.72 701.148 1125.71C682.644 1169.2 665.779 1208.83 717.512 1234.73C778.755 1265.39 843.559 1180.54 856.378 1117.08C857.483 1111.61 858.599 1105.92 859.742 1100.1C871.859 1038.32 887.061 960.812 925.454 959.509C966.013 958.133 964.102 1002.6 963.28 1021.72C963.25 1022.41 963.222 1023.06 963.197 1023.68C962.485 1041.51 960.562 1147.51 1038.68 1047.21C1099.21 969.492 1138.38 912.451 1156.19 875.374C1156.54 874.631 1156.9 873.88 1157.27 873.12C1179.68 826.5 1216.84 749.21 1136.96 707.817C1056.96 666.363 985.986 569.494 1116.31 421.188C1246.63 272.882 1178.26 123.863 1086.4 92.4908C994.531 61.1184 849.969 86.0737 872.045 163.079C876.839 179.803 882.373 194.005 887.208 206.415C904.637 251.145 912.994 272.595 844.984 304.967C806.328 323.367 774.016 319.042 740.835 314.6C699.44 309.059 656.693 303.337 598.586 341.331C565.473 362.982 541.338 380.139 521.335 394.359C478.1 425.093 454.169 442.105 400.613 461.116Z" fill="url(#paint6_linear_39_440)"/>
<path fill-rule="evenodd" clip-rule="evenodd" d="M441.917 282.864C521.676 356.447 639.89 262.187 684.754 197.303L684.754 197.302C752.17 99.3821 943.97 -68.3639 1171.85 44.006C1456.7 184.469 1422.52 550.242 1297.19 742.755C1171.85 935.267 904.09 1271.09 692.587 1388.03C660.839 1365.08 622.357 1335.37 580.049 1300.28C598.139 1301.27 614.351 1295.37 623.509 1276.8C646.298 1230.59 593.125 1171.03 563.69 1147.03C522.387 1113.52 459.719 1101.4 429.81 1123.5C416.899 1133.04 416.677 1146.06 421.223 1158C266.93 1008.82 107.937 819.746 45.2594 639.368C-85.0607 264.326 88.6994 50.423 345.779 5.50349C371.539 1.00244 395.736 -0.599967 418.41 0.19582C398.603 4.19457 381.28 9.64951 367.855 16.9119C283.358 62.6238 349.484 95.9315 403.387 123.082L403.842 123.311C406.116 124.457 408.367 125.591 410.583 126.715C454.451 148.961 455.448 177.339 433.372 193.738C415.062 207.34 399.189 238.943 441.917 282.864ZM1208.88 526C1222.89 484.884 1263.15 401.224 1312.14 395.52C1373.39 388.39 1360.57 541.687 1314.28 634.378C1267.99 727.069 1203.9 736.338 1194.64 658.62C1187.23 596.446 1201.05 544.301 1208.88 526ZM400.613 461.116C378.775 469.435 322.279 484.931 271.006 480.367C206.914 474.663 100.806 546.677 95.1091 628.673C89.412 710.669 147.095 825.464 253.914 811.204C277.554 808.048 297.078 804.228 313.436 801.029C370.995 789.769 389.354 786.178 409.871 846.141C436.22 923.146 483.221 971.631 585.056 966.64C686.89 961.648 751.694 995.873 711.103 1101.4C708.006 1109.59 704.549 1117.72 701.148 1125.71C682.644 1169.2 665.779 1208.83 717.512 1234.73C778.755 1265.39 843.559 1180.54 856.378 1117.08C857.483 1111.61 858.599 1105.92 859.742 1100.1C871.859 1038.32 887.061 960.812 925.454 959.509C966.013 958.133 964.102 1002.6 963.28 1021.72C963.25 1022.41 963.222 1023.06 963.197 1023.68C962.485 1041.51 960.562 1147.51 1038.68 1047.21C1099.21 969.492 1138.38 912.451 1156.19 875.374C1156.54 874.631 1156.9 873.88 1157.27 873.12C1179.68 826.5 1216.84 749.21 1136.96 707.817C1056.96 666.363 985.986 569.494 1116.31 421.188C1246.63 272.882 1178.26 123.863 1086.4 92.4908C994.531 61.1184 849.969 86.0737 872.045 163.079C876.839 179.803 882.373 194.005 887.208 206.415C904.637 251.145 912.994 272.595 844.984 304.967C806.328 323.367 774.016 319.042 740.835 314.6C699.44 309.059 656.693 303.337 598.586 341.331C565.473 362.982 541.338 380.139 521.335 394.359C478.1 425.093 454.169 442.105 400.613 461.116Z" fill="url(#paint7_linear_39_440)"/>
<path fill-rule="evenodd" clip-rule="evenodd" d="M441.917 282.864C521.676 356.447 639.89 262.187 684.754 197.303L684.754 197.302C752.17 99.3821 943.97 -68.3639 1171.85 44.006C1456.7 184.469 1422.52 550.242 1297.19 742.755C1171.85 935.267 904.09 1271.09 692.587 1388.03C660.839 1365.08 622.357 1335.37 580.049 1300.28C598.139 1301.27 614.351 1295.37 623.509 1276.8C646.298 1230.59 593.125 1171.03 563.69 1147.03C522.387 1113.52 459.719 1101.4 429.81 1123.5C416.899 1133.04 416.677 1146.06 421.223 1158C266.93 1008.82 107.937 819.746 45.2594 639.368C-85.0607 264.326 88.6994 50.423 345.779 5.50349C371.539 1.00244 395.736 -0.599967 418.41 0.19582C398.603 4.19457 381.28 9.64951 367.855 16.9119C283.358 62.6238 349.484 95.9315 403.387 123.082L403.842 123.311C406.116 124.457 408.367 125.591 410.583 126.715C454.451 148.961 455.448 177.339 433.372 193.738C415.062 207.34 399.189 238.943 441.917 282.864ZM1208.88 526C1222.89 484.884 1263.15 401.224 1312.14 395.52C1373.39 388.39 1360.57 541.687 1314.28 634.378C1267.99 727.069 1203.9 736.338 1194.64 658.62C1187.23 596.446 1201.05 544.301 1208.88 526ZM400.613 461.116C378.775 469.435 322.279 484.931 271.006 480.367C206.914 474.663 100.806 546.677 95.1091 628.673C89.412 710.669 147.095 825.464 253.914 811.204C277.554 808.048 297.078 804.228 313.436 801.029C370.995 789.769 389.354 786.178 409.871 846.141C436.22 923.146 483.221 971.631 585.056 966.64C686.89 961.648 751.694 995.873 711.103 1101.4C708.006 1109.59 704.549 1117.72 701.148 1125.71C682.644 1169.2 665.779 1208.83 717.512 1234.73C778.755 1265.39 843.559 1180.54 856.378 1117.08C857.483 1111.61 858.599 1105.92 859.742 1100.1C871.859 1038.32 887.061 960.812 925.454 959.509C966.013 958.133 964.102 1002.6 963.28 1021.72C963.25 1022.41 963.222 1023.06 963.197 1023.68C962.485 1041.51 960.562 1147.51 1038.68 1047.21C1099.21 969.492 1138.38 912.451 1156.19 875.374C1156.54 874.631 1156.9 873.88 1157.27 873.12C1179.68 826.5 1216.84 749.21 1136.96 707.817C1056.96 666.363 985.986 569.494 1116.31 421.188C1246.63 272.882 1178.26 123.863 1086.4 92.4908C994.531 61.1184 849.969 86.0737 872.045 163.079C876.839 179.803 882.373 194.005 887.208 206.415C904.637 251.145 912.994 272.595 844.984 304.967C806.328 323.367 774.016 319.042 740.835 314.6C699.44 309.059 656.693 303.337 598.586 341.331C565.473 362.982 541.338 380.139 521.335 394.359C478.1 425.093 454.169 442.105 400.613 461.116Z" fill="url(#paint8_radial_39_440)" fill-opacity="0.25" style="mix-blend-mode:overlay"/>
<path fill-rule="evenodd" clip-rule="evenodd" d="M441.917 282.864C521.676 356.447 639.89 262.187 684.754 197.303L684.754 197.302C752.17 99.3818 943.97 -68.3638 1171.85 44.006C1456.7 184.469 1422.52 550.242 1297.19 742.755C1171.85 935.267 904.09 1271.09 692.587 1388.03C660.839 1365.08 622.357 1335.37 580.049 1300.28C598.139 1301.27 614.351 1295.37 623.509 1276.8C646.298 1230.59 593.125 1171.03 563.69 1147.03C522.387 1113.52 459.719 1101.4 429.81 1123.5C416.899 1133.04 416.677 1146.06 421.223 1158C266.93 1008.82 107.937 819.747 45.2594 639.368C-85.0607 264.326 88.6994 50.423 345.779 5.50349C371.539 1.00243 395.736 -0.599969 418.41 0.195821C398.603 4.19457 381.28 9.64951 367.855 16.9119C283.358 62.6238 349.484 95.9315 403.387 123.082L403.842 123.311C406.116 124.457 408.367 125.591 410.583 126.715C454.451 148.961 455.448 177.339 433.372 193.738C415.062 207.34 399.189 238.943 441.917 282.864ZM1208.88 526C1222.89 484.884 1263.15 401.224 1312.14 395.52C1373.39 388.39 1360.57 541.687 1314.28 634.378C1267.99 727.069 1203.9 736.338 1194.64 658.62C1187.23 596.446 1201.05 544.301 1208.88 526ZM400.613 461.116C378.775 469.435 322.279 484.931 271.006 480.367C206.914 474.663 100.806 546.677 95.1091 628.673C89.412 710.669 147.095 825.464 253.914 811.204C277.554 808.048 297.078 804.228 313.436 801.029C370.995 789.769 389.354 786.178 409.871 846.141C436.22 923.146 483.221 971.631 585.056 966.64C686.89 961.648 751.694 995.873 711.103 1101.4C708.006 1109.59 704.549 1117.72 701.148 1125.71C682.644 1169.2 665.779 1208.83 717.512 1234.73C778.755 1265.39 843.559 1180.54 856.378 1117.08C857.483 1111.61 858.599 1105.92 859.742 1100.1C871.859 1038.32 887.061 960.812 925.454 959.509C966.013 958.133 964.102 1002.6 963.28 1021.72C963.25 1022.41 963.222 1023.06 963.197 1023.68C962.485 1041.51 960.562 1147.51 1038.68 1047.21C1099.21 969.492 1138.38 912.451 1156.19 875.374C1156.54 874.631 1156.9 873.88 1157.27 873.12C1179.68 826.5 1216.84 749.21 1136.96 707.817C1056.96 666.363 985.986 569.494 1116.31 421.188C1246.63 272.882 1178.26 123.863 1086.4 92.4908C994.531 61.1184 849.969 86.0737 872.045 163.079C876.839 179.803 882.373 194.005 887.208 206.415C904.637 251.145 912.994 272.595 844.984 304.967C806.328 323.367 774.016 319.042 740.835 314.6C699.44 309.059 656.693 303.337 598.586 341.331C565.473 362.982 541.338 380.139 521.335 394.359C478.1 425.093 454.169 442.105 400.613 461.116Z" fill="url(#paint9_radial_39_440)" style="mix-blend-mode:soft-light"/>
</g>
<defs>
<radialGradient id="paint0_radial_39_440" cx="0" cy="0" r="1" gradientUnits="userSpaceOnUse" gradientTransform="translate(768.121 660.759) rotate(141.29) scale(1279.23 1282.05)">
<stop stop-color="white"/>
<stop offset="1" stop-color="#FFA800"/>
</radialGradient>
<linearGradient id="paint1_linear_39_440" x1="1463.3" y1="-147.793" x2="107.162" y2="1338.83" gradientUnits="userSpaceOnUse">
<stop stop-color="#F67227"/>
<stop offset="1" stop-color="#F6A326" stop-opacity="0.65"/>
</linearGradient>
<radialGradient id="paint2_radial_39_440" cx="0" cy="0" r="1" gradientUnits="userSpaceOnUse" gradientTransform="translate(768.121 660.759) rotate(139.448) scale(357.527 620.333)">
<stop stop-opacity="0"/>
<stop offset="0.651042" stop-opacity="0.0633333"/>
<stop offset="1" stop-opacity="0.38"/>
</radialGradient>
<radialGradient id="paint3_radial_39_440" cx="0" cy="0" r="1" gradientUnits="userSpaceOnUse" gradientTransform="translate(695.394 602.292) rotate(117.124) scale(294.01 510.126)">
<stop stop-color="white" stop-opacity="0"/>
<stop offset="0.651042" stop-color="white" stop-opacity="0.35"/>
<stop offset="1" stop-color="white" stop-opacity="0"/>
</radialGradient>
<linearGradient id="paint4_linear_39_440" x1="682.861" y1="1170.42" x2="710.597" y2="76.8657" gradientUnits="userSpaceOnUse">
<stop stop-color="#F7A038"/>
<stop offset="1" stop-color="#F57226"/>
</linearGradient>
<radialGradient id="paint5_radial_39_440" cx="0" cy="0" r="1" gradientUnits="userSpaceOnUse" gradientTransform="translate(768.073 660.759) rotate(141.256) scale(1278.27 1281.44)">
<stop stop-color="white"/>
<stop offset="1" stop-color="#FFA800"/>
</radialGradient>
<linearGradient id="paint6_linear_39_440" x1="1462.4" y1="-147.793" x2="106.107" y2="1337.17" gradientUnits="userSpaceOnUse">
<stop stop-color="#F67126"/>
<stop offset="1" stop-color="#F6A326" stop-opacity="0.65"/>
</linearGradient>
<linearGradient id="paint7_linear_39_440" x1="1462.4" y1="-147.793" x2="106.107" y2="1337.17" gradientUnits="userSpaceOnUse">
<stop stop-color="#F67227"/>
<stop offset="1" stop-color="#F6A326" stop-opacity="0.65"/>
</linearGradient>
<radialGradient id="paint8_radial_39_440" cx="0" cy="0" r="1" gradientUnits="userSpaceOnUse" gradientTransform="translate(768.073 660.759) rotate(139.413) scale(357.274 620.011)">
<stop stop-opacity="0"/>
<stop offset="0.651042" stop-opacity="0.0633333"/>
<stop offset="1" stop-opacity="0.38"/>
</radialGradient>
<radialGradient id="paint9_radial_39_440" cx="0" cy="0" r="1" gradientUnits="userSpaceOnUse" gradientTransform="translate(695.436 602.292) rotate(117.096) scale(293.934 509.628)">
<stop stop-color="white" stop-opacity="0"/>
<stop offset="0.651042" stop-color="white" stop-opacity="0.35"/>
<stop offset="1" stop-color="white" stop-opacity="0"/>
</radialGradient>
</defs>
</svg>
