<svg width="1246" height="1244" viewBox="0 0 1246 1244" fill="none" xmlns="http://www.w3.org/2000/svg">
<path fill-rule="evenodd" clip-rule="evenodd" d="M395.458 253.329C466.977 319.229 572.978 234.811 613.208 176.702C673.658 89.0061 845.644 -61.2261 1049.98 39.4112C1305.41 165.208 1274.76 492.79 1162.37 665.201C1049.98 837.613 809.884 1138.38 620.232 1243.1C591.764 1222.55 557.258 1195.94 519.321 1164.51C535.542 1165.4 550.08 1160.11 558.292 1143.48C578.726 1102.1 531.046 1048.76 504.652 1027.27C467.616 997.253 411.422 986.398 384.603 1006.19C373.026 1014.74 372.827 1026.39 376.903 1037.09C238.55 903.485 95.9825 734.155 39.7796 572.61C-77.0772 236.727 78.7318 45.1582 309.252 4.92886C332.351 0.897821 354.048 -0.537285 374.379 0.175346C356.618 3.75657 341.085 8.64192 329.048 15.146C253.28 56.085 312.575 85.9149 360.908 110.231C363.086 111.326 365.242 112.411 367.362 113.484C406.697 133.408 407.591 158.822 387.796 173.509C371.377 185.691 357.145 213.994 395.458 253.329ZM1083.19 471.079C1095.75 434.255 1131.85 359.331 1175.78 354.222C1230.7 347.836 1219.2 485.127 1177.7 568.14C1136.19 651.153 1078.72 659.454 1070.42 589.851C1063.78 534.169 1076.16 487.469 1083.19 471.079ZM358.422 412.97C338.839 420.419 288.18 434.297 242.203 430.211C184.733 425.102 89.5873 489.597 84.4788 563.031C79.3703 636.466 131.094 739.274 226.878 726.503C248.075 723.677 265.582 720.256 280.251 717.39C331.863 707.307 348.325 704.09 366.723 757.793C390.35 826.757 432.495 870.179 523.809 865.709C615.123 861.24 673.232 891.891 636.834 986.398C634.058 993.736 630.958 1001.01 627.907 1008.17C611.315 1047.12 596.193 1082.61 642.581 1105.81C697.498 1133.27 755.607 1057.28 767.101 1000.45C768.092 995.546 769.092 990.451 770.118 985.231C780.982 929.906 794.615 860.491 829.041 859.324C865.41 858.091 863.696 897.917 862.959 915.04C862.932 915.655 862.907 916.241 862.885 916.794C862.246 932.758 860.522 1027.7 930.573 937.867C984.85 868.264 1019.97 817.179 1035.94 783.974C1036.26 783.308 1036.58 782.635 1036.91 781.955C1057 740.203 1090.32 670.983 1018.69 633.912C946.959 596.786 883.319 510.031 1000.18 377.21C1117.03 244.389 1055.73 110.93 973.356 82.8334C890.982 54.7367 761.354 77.0863 781.149 146.051C785.448 161.029 790.41 173.748 794.746 184.863C810.374 224.922 817.868 244.132 756.884 273.125C722.222 289.603 693.248 285.73 663.495 281.752C626.377 276.789 588.045 271.665 535.942 305.691C506.25 325.082 484.608 340.448 466.672 353.182C427.903 380.708 406.445 395.943 358.422 412.97Z" fill="#090909"/>
<path fill-rule="evenodd" clip-rule="evenodd" d="M634.584 68.7925C366.186 62.8971 141.322 276.622 134.245 547.922C127.629 816.528 341.37 1041.36 609.744 1048.17C881.301 1055.06 1106.14 841.345 1113.62 572.762C1119.83 301.439 906.118 76.5911 634.584 68.7925ZM631.673 183.606C426.523 178.601 257.08 339.672 252.802 543.734C246.764 746.42 407.825 915.833 612.93 922.605C814.559 926.149 984.012 765.119 988.242 562.387C994.328 358.37 833.258 188.916 631.673 183.606Z" fill="#090909"/>
<path d="M134.245 547.922L128.935 547.791L128.935 547.784L134.245 547.922ZM634.584 68.7925L634.701 63.4823L634.719 63.4827L634.736 63.4832L634.584 68.7925ZM1113.62 572.762L1118.93 572.883L1118.93 572.896L1118.93 572.91L1113.62 572.762ZM252.802 543.734L258.113 543.846L258.112 543.869L258.111 543.892L252.802 543.734ZM631.673 183.606L631.803 178.296L631.813 178.297L631.673 183.606ZM612.93 922.605L612.837 927.916L612.796 927.915L612.755 927.914L612.93 922.605ZM988.242 562.387L982.932 562.276L982.932 562.252L982.933 562.229L988.242 562.387ZM128.935 547.784C136.089 273.571 363.367 57.5223 634.701 63.4823L634.467 74.1027C369.006 68.2718 146.556 279.672 139.555 548.061L128.935 547.784ZM609.61 1053.48C338.301 1046.6 122.247 819.324 128.935 547.791L139.555 548.053C133.011 813.731 344.439 1036.13 609.879 1042.86L609.61 1053.48ZM1118.93 572.91C1111.37 844.433 884.081 1060.44 609.61 1053.48L609.879 1042.86C878.522 1049.67 1100.91 838.257 1108.31 572.614L1118.93 572.91ZM634.736 63.4832C909.186 71.3655 1125.21 298.636 1118.93 572.883L1108.31 572.64C1114.45 304.243 903.049 81.8167 634.432 74.1018L634.736 63.4832ZM247.492 543.623C251.832 336.594 423.74 173.22 631.803 178.296L631.543 188.916C429.307 183.982 262.328 342.75 258.113 543.846L247.492 543.623ZM612.755 927.914C404.786 921.047 241.366 749.248 247.493 543.576L258.111 543.892C252.162 743.592 410.865 910.619 613.105 917.297L612.755 927.914ZM993.552 562.498C989.261 768.184 817.364 931.51 612.837 927.916L613.023 917.295C811.755 920.787 978.763 762.054 982.932 562.276L993.552 562.498ZM631.813 178.297C836.343 183.684 999.725 355.595 993.551 562.545L982.933 562.229C988.932 361.145 830.172 194.149 631.533 188.916L631.813 178.297Z" fill="#090909"/>
<path d="M213.842 508.603C218.909 508.943 222.247 508.396 225.874 506.384C232.414 502.835 236.748 496.142 238.022 487.412C240.428 471.038 230.214 459.098 211.424 456.335C192.773 453.589 179.588 462.021 177.202 478.158C175.083 492.589 182.029 503.449 195.226 506.142L196.952 494.504C189.649 492.704 186.097 487.358 187.196 479.952C188.552 470.731 196.837 466.386 209.509 468.247C222.333 470.159 229.158 476.949 227.771 486.312C227.16 490.475 225.228 493.678 222.111 495.491C220.331 496.569 218.723 496.948 215.505 497.219L213.842 508.603Z" fill="white"/>
<path d="M213.842 508.603C218.909 508.943 222.247 508.396 225.874 506.384C232.414 502.835 236.748 496.142 238.022 487.412C240.428 471.038 230.214 459.098 211.424 456.335C192.773 453.589 179.588 462.021 177.202 478.158C175.083 492.589 182.029 503.449 195.226 506.142L196.952 494.504C189.649 492.704 186.097 487.358 187.196 479.952C188.552 470.731 196.837 466.386 209.509 468.247C222.333 470.159 229.158 476.949 227.771 486.312C227.16 490.475 225.228 493.678 222.111 495.491C220.331 496.569 218.723 496.948 215.505 497.219L213.842 508.603Z" stroke="white" stroke-width="1.19179" stroke-miterlimit="10"/>
<path d="M201.103 554.123L174.38 553.976L174.325 566.091L233.198 566.406L233.254 554.224L211.2 554.099L211.341 530.837L233.395 530.976L233.451 518.848L174.577 518.546L174.495 530.631L201.246 530.793L201.103 554.123Z" fill="white"/>
<path d="M201.103 554.123L174.38 553.976L174.325 566.091L233.198 566.406L233.254 554.224L211.2 554.099L211.341 530.837L233.395 530.976L233.451 518.848L174.577 518.546L174.495 530.631L201.246 530.793L201.103 554.123Z" stroke="white" stroke-width="1.19532" stroke-miterlimit="10"/>
<path d="M190.214 616.232L178.942 621.654L180.621 633.992L236.373 605.861L234.566 592.537L173.247 579.706L174.913 591.961L187.236 594.309L190.214 616.232ZM199.797 611.568L197.73 596.327L221.637 600.817L199.797 611.568Z" fill="white"/>
<path d="M190.214 616.232L178.942 621.654L180.621 633.992L236.373 605.861L234.566 592.537L173.247 579.706L174.913 591.961L187.236 594.309L190.214 616.232ZM199.797 611.568L197.73 596.327L221.637 600.817L199.797 611.568Z" stroke="white" stroke-width="1.19849" stroke-miterlimit="10"/>
<path d="M243.936 646.763L241.081 634.909L183.616 648.766L193.107 688.103L202.941 685.714L196.319 658.203L243.936 646.763Z" fill="white"/>
<path d="M243.936 646.763L241.081 634.909L183.616 648.766L193.107 688.103L202.941 685.714L196.319 658.203L243.936 646.763Z" stroke="white" stroke-width="1.20015" stroke-miterlimit="10"/>
<path d="M244.097 696.043L205.349 722.698L209.776 733.946L256.231 726.824L213.597 743.62L218.051 754.88L272.754 733.299L266.075 716.344L218.739 723.91L258.38 696.825L251.739 680.014L197.037 701.58L201.462 712.856L244.097 696.043Z" fill="white"/>
<path d="M244.097 696.043L205.349 722.698L209.776 733.946L256.231 726.824L213.597 743.62L218.051 754.88L272.754 733.299L266.075 716.344L218.739 723.91L258.38 696.825L251.739 680.014L197.037 701.58L201.462 712.856L244.097 696.043Z" stroke="white" stroke-width="1.1942" stroke-miterlimit="10"/>
<path d="M257.088 763.954L272.274 787.774L280.784 782.311L265.597 758.534L276.844 751.345L293.244 777.044L301.767 771.625L278.839 735.69L229.165 767.425L252.861 804.556L261.399 799.093L244.203 772.182L257.088 763.954Z" fill="white"/>
<path d="M257.088 763.954L272.274 787.774L280.784 782.311L265.597 758.534L276.844 751.345L293.244 777.044L301.767 771.625L278.839 735.69L229.165 767.425L252.861 804.556L261.399 799.093L244.203 772.182L257.088 763.954Z" stroke="white" stroke-width="1.19659" stroke-miterlimit="10"/>
<path d="M286.634 813.619L295.104 824.675C298.306 828.853 298.02 831.929 294.087 834.913C293.715 835.212 293.071 835.731 292.173 836.311C290.917 837.148 289.744 838.069 289.057 838.616C284.696 841.941 283.47 843.27 282.147 846.223L290.088 856.591L291.819 855.217C291.522 853.106 292.047 851.787 294.105 850.242C307.717 839.398 308.156 838.637 306.157 830.703C312.245 834.393 318.056 834.121 323.779 829.707C327.499 826.858 329.924 822.949 330.518 818.94C331.076 815.17 329.84 811.42 326.786 807.419L307.524 782.318L260.687 818.22L268.072 827.831L286.634 813.619ZM294.671 807.444L306.868 798.118L315.789 809.732C317.905 812.478 318.532 813.825 318.454 815.733C318.377 817.652 317.226 819.446 315.037 821.099C312.793 822.837 310.487 823.594 308.687 823.225C306.997 822.902 305.692 821.86 303.59 819.1L294.671 807.444Z" fill="white"/>
<path d="M286.634 813.619L295.104 824.675C298.306 828.853 298.02 831.929 294.087 834.913C293.715 835.212 293.071 835.731 292.173 836.311C290.917 837.148 289.744 838.069 289.057 838.616C284.696 841.941 283.47 843.27 282.147 846.223L290.088 856.591L291.819 855.217C291.522 853.106 292.047 851.787 294.105 850.242C307.717 839.398 308.156 838.637 306.157 830.703C312.245 834.393 318.056 834.121 323.779 829.707C327.499 826.858 329.924 822.949 330.518 818.94C331.076 815.17 329.84 811.42 326.786 807.419L307.524 782.318L260.687 818.22L268.072 827.831L286.634 813.619ZM294.671 807.444L306.868 798.118L315.789 809.732C317.905 812.478 318.532 813.825 318.454 815.733C318.377 817.652 317.226 819.446 315.037 821.099C312.793 822.837 310.487 823.594 308.687 823.225C306.997 822.902 305.692 821.86 303.59 819.1L294.671 807.444Z" stroke="white" stroke-width="1.19825" stroke-miterlimit="10"/>
<path d="M362.129 868.539C365.861 864.638 367.433 861.243 367.544 856.898C367.693 851.011 364.569 844.833 358.449 838.998C348.245 829.273 337.781 828.405 329.899 836.731C323.604 843.302 323.862 849.691 330.961 859.546L335.791 866.399C340.572 873.069 341.183 876.744 337.911 880.195C334.497 883.754 329.179 882.806 323.865 877.735C317.924 872.088 316.974 866.385 321.023 861.581L312.491 853.441C304.354 863.05 305.872 873.942 316.731 884.285C327.698 894.772 339.073 895.79 347.298 887.164C353.693 880.455 353.655 873.723 347.222 864.683L341.793 857.085C336.701 849.902 336.062 846.956 339.002 843.833C342.07 840.644 346.863 841.325 351.367 845.618C356.912 850.878 357.773 856.159 353.969 860.761L362.129 868.539Z" fill="white"/>
<path d="M362.129 868.539C365.861 864.638 367.433 861.243 367.544 856.898C367.693 851.011 364.569 844.833 358.449 838.998C348.245 829.273 337.781 828.405 329.899 836.731C323.604 843.302 323.862 849.691 330.961 859.546L335.791 866.399C340.572 873.069 341.183 876.744 337.911 880.195C334.497 883.754 329.179 882.806 323.865 877.735C317.924 872.088 316.974 866.385 321.023 861.581L312.491 853.441C304.354 863.05 305.872 873.942 316.731 884.285C327.698 894.772 339.073 895.79 347.298 887.164C353.693 880.455 353.655 873.723 347.222 864.683L341.793 857.085C336.701 849.902 336.062 846.956 339.002 843.833C342.07 840.644 346.863 841.325 351.367 845.618C356.912 850.878 357.773 856.159 353.969 860.761L362.129 868.539Z" stroke="white" stroke-width="1.19299" stroke-miterlimit="10"/>
<path d="M439.52 908.435L454.975 916.049L459.456 906.978L417.061 886.102L412.581 895.174L428.636 903.069L407.036 946.917L417.921 952.269L439.52 908.435Z" fill="white"/>
<path d="M439.52 908.435L454.975 916.049L459.456 906.978L417.061 886.102L412.581 895.174L428.636 903.069L407.036 946.917L417.921 952.269L439.52 908.435Z" stroke="white" stroke-width="1.19778" stroke-miterlimit="10"/>
<path d="M469.531 947.647L496.06 957.659L499.637 948.13L473.106 938.174L477.828 925.646L506.471 936.398L510.032 926.911L469.99 911.845L449.16 967.267L490.568 982.831L494.162 973.316L464.115 962.023L469.531 947.647Z" fill="white"/>
<path d="M469.531 947.647L496.06 957.659L499.637 948.13L473.106 938.174L477.828 925.646L506.471 936.398L510.032 926.911L469.99 911.845L449.16 967.267L490.568 982.831L494.162 973.316L464.115 962.023L469.531 947.647Z" stroke="white" stroke-width="1.20188" stroke-miterlimit="10"/>
<path d="M521.474 972.284L528.61 967.319L542.372 996.415L556.465 999.254L537.636 961.476L565.505 941.331L551.554 938.551L524.09 959.281L529.106 934.055L517.301 931.723L505.832 989.136L517.637 991.496L521.474 972.284Z" fill="white"/>
<path d="M521.474 972.284L528.61 967.319L542.372 996.415L556.465 999.254L537.636 961.476L565.505 941.331L551.554 938.551L524.09 959.281L529.106 934.055L517.301 931.723L505.832 989.136L517.637 991.496L521.474 972.284Z" stroke="white" stroke-width="1.18868" stroke-miterlimit="10"/>
<path d="M601.928 1002.55L614.055 1003.24L617.285 944.425L605.2 943.768L602.965 983.746L581.885 942.475L569.453 941.781L566.206 1000.59L578.305 1001.24L580.542 960.601L601.928 1002.55Z" fill="white"/>
<path d="M601.928 1002.55L614.055 1003.24L617.285 944.425L605.2 943.768L602.965 983.746L581.885 942.475L569.453 941.781L566.206 1000.59L578.305 1001.24L580.542 960.601L601.928 1002.55Z" stroke="white" stroke-width="1.19563" stroke-miterlimit="10"/>
<path d="M643.373 945.856L631.257 946.432L633.869 1005.35L646.013 1004.82L643.373 945.856Z" fill="white"/>
<path d="M643.373 945.856L631.257 946.432L633.869 1005.35L646.013 1004.82L643.373 945.856Z" stroke="white" stroke-width="1.19801" stroke-miterlimit="10"/>
<path d="M699.851 955.309C699.077 950.002 697.366 946.692 694.04 943.943C689.507 940.224 682.742 938.861 674.393 940.093C660.502 942.153 653.437 949.827 655.114 961.129C656.426 970.095 661.591 973.802 673.666 974.29L681.999 974.67C690.211 975.019 693.461 976.812 694.139 981.498C694.86 986.355 690.842 989.927 683.634 991.02C675.498 992.202 670.492 989.452 669.176 983.319L657.548 985.016C660.126 997.323 669.618 1002.82 684.399 1000.64C699.321 998.429 707.102 990.143 705.368 978.39C704.013 969.24 698.718 965.166 687.695 964.676L678.379 964.271C669.627 963.839 666.924 962.537 666.288 958.314C665.627 953.95 669.123 950.603 675.244 949.707C682.804 948.608 687.478 951.153 688.73 956.962L699.851 955.309Z" fill="white"/>
<path d="M699.851 955.309C699.077 950.002 697.366 946.692 694.04 943.943C689.507 940.224 682.742 938.861 674.393 940.093C660.502 942.153 653.437 949.827 655.114 961.129C656.426 970.095 661.591 973.802 673.666 974.29L681.999 974.67C690.211 975.019 693.461 976.812 694.139 981.498C694.86 986.355 690.842 989.927 683.634 991.02C675.498 992.202 670.492 989.452 669.176 983.319L657.548 985.016C660.126 997.323 669.618 1002.82 684.399 1000.64C699.321 998.429 707.102 990.143 705.368 978.39C704.013 969.24 698.718 965.166 687.695 964.676L678.379 964.271C669.627 963.839 666.924 962.537 666.288 958.314C665.627 953.95 669.123 950.603 675.244 949.707C682.804 948.608 687.478 951.153 688.73 956.962L699.851 955.309Z" stroke="white" stroke-width="1.18868" stroke-miterlimit="10"/>
<path d="M726.865 972.979L730.849 965.213L756.747 984.59L770.593 980.454L736.135 955.826L751.391 924.83L737.686 928.9L723.053 960.22L715.643 935.492L704.057 938.942L720.9 995.292L732.472 991.841L726.865 972.979Z" fill="white"/>
<path d="M726.865 972.979L730.849 965.213L756.747 984.59L770.593 980.454L736.135 955.826L751.391 924.83L737.686 928.9L723.053 960.22L715.643 935.492L704.057 938.942L720.9 995.292L732.472 991.841L726.865 972.979Z" stroke="white" stroke-width="1.19425" stroke-miterlimit="10"/>
<path d="M812.181 949.435L820.643 958.624L831.992 953.443L788.896 908.319L776.696 913.899L782.194 976.229L793.432 971.087L792.107 958.643L812.181 949.435ZM804.949 941.609L790.973 948.014L788.361 923.871L804.949 941.609Z" fill="white"/>
<path d="M812.181 949.435L820.643 958.624L831.992 953.443L788.896 908.319L776.696 913.899L782.194 976.229L793.432 971.087L792.107 958.643L812.181 949.435ZM804.949 941.609L790.973 948.014L788.361 923.871L804.949 941.609Z" stroke="white" stroke-width="1.19723" stroke-miterlimit="10"/>
<path d="M901.382 875.978L917.941 896.968L927.472 889.469L890.953 843.179L881.366 850.761L895.045 868.074L876.773 882.504L863.076 865.188L853.577 872.705L890.083 918.95L899.596 911.437L883.023 890.445L901.382 875.978Z" fill="white"/>
<path d="M901.382 875.978L917.941 896.968L927.472 889.469L890.953 843.179L881.366 850.761L895.045 868.074L876.773 882.504L863.076 865.188L853.577 872.705L890.083 918.95L899.596 911.437L883.023 890.445L901.382 875.978Z" stroke="white" stroke-width="1.19659" stroke-miterlimit="10"/>
<path d="M902.905 808.707L896.783 815.143L903.902 821.914L910.024 815.504L902.905 808.707ZM913.236 797.848L907.11 804.298L914.247 811.07L920.368 804.663L913.236 797.848ZM915.534 816.641C909.844 822.582 907.192 829.357 907.62 836.687C908.1 844.385 912.011 852.224 918.376 858.291C924.728 864.339 932.786 867.897 940.427 867.965C947.928 868.069 954.41 865.121 960.172 859.028C965.979 852.975 968.585 846.339 968.117 838.897C967.716 831.481 963.716 823.316 957.676 817.599C951.038 811.26 943.035 807.761 935.324 807.634C927.755 807.557 921.369 810.507 915.534 816.641ZM923.066 823.703C929.911 816.5 940.052 817.5 949.296 826.289C957.989 834.572 959.367 844.914 952.709 851.925C945.968 858.991 935.631 858.054 926.689 849.556C917.792 841.013 916.325 830.755 923.066 823.703Z" fill="white"/>
<path d="M902.905 808.707L896.783 815.143L903.902 821.914L910.024 815.504L902.905 808.707ZM913.236 797.848L907.11 804.298L914.247 811.07L920.368 804.663L913.236 797.848ZM915.534 816.641C909.844 822.582 907.192 829.357 907.62 836.687C908.1 844.385 912.011 852.224 918.376 858.291C924.728 864.339 932.786 867.897 940.427 867.965C947.928 868.069 954.41 865.121 960.172 859.028C965.979 852.975 968.585 846.339 968.117 838.897C967.716 831.481 963.716 823.316 957.676 817.599C951.038 811.26 943.035 807.761 935.324 807.634C927.755 807.557 921.369 810.507 915.534 816.641V816.641ZM923.066 823.703C929.911 816.5 940.052 817.5 949.296 826.289C957.989 834.572 959.367 844.914 952.709 851.925C945.968 858.991 935.631 858.054 926.689 849.556C917.792 841.013 916.325 830.755 923.066 823.703Z" stroke="white" stroke-width="1.19299" stroke-miterlimit="10"/>
<path d="M987.85 765.819L975.516 786.051L984.188 791.318L991.182 779.814C993.852 781.817 995.14 783.558 996.028 786.176C997.573 790.52 997.057 795.428 994.598 799.419C989.477 807.815 978.5 809.36 968.117 803.041C957.25 796.411 953.896 787.114 959.278 778.305C961.473 774.714 964.338 772.306 967.761 771.226C969.878 770.536 971.535 770.481 974.701 771.194L980.628 761.414C969.509 756.38 957.801 760.807 950.37 773C941.515 787.529 946.218 803.957 961.918 813.498C977.222 822.832 994.451 819.651 1002.75 806.023C1006.87 799.213 1007.25 793.192 1003.92 785.859L1011.32 788.625L1015.08 782.424L987.85 765.819Z" fill="white"/>
<path d="M987.85 765.819L975.516 786.051L984.188 791.318L991.182 779.814C993.852 781.817 995.14 783.558 996.028 786.176C997.573 790.52 997.057 795.428 994.598 799.419C989.477 807.815 978.5 809.36 968.117 803.041C957.25 796.411 953.896 787.114 959.278 778.305C961.473 774.714 964.338 772.306 967.761 771.226C969.878 770.536 971.535 770.481 974.701 771.194L980.628 761.414C969.509 756.38 957.801 760.807 950.37 773C941.515 787.529 946.218 803.957 961.918 813.498C977.222 822.832 994.451 819.651 1002.75 806.023C1006.87 799.213 1007.25 793.192 1003.92 785.859L1011.32 788.625L1015.08 782.424L987.85 765.819Z" stroke="white" stroke-width="1.1992" stroke-miterlimit="10"/>
<path d="M1003.73 709.176C998.883 706.77 995.14 706.295 990.942 707.477C985.294 709.103 980.289 713.938 976.52 721.571C970.282 734.271 972.616 744.54 982.934 749.623C991.131 753.661 997.145 751.498 1004.48 741.73L1009.6 735.057C1014.53 728.494 1017.91 726.785 1022.16 728.899C1026.59 731.072 1027.3 736.461 1024.05 743.066C1020.38 750.476 1015.24 753.081 1009.38 750.66L1004.16 761.239C1015.82 766.162 1025.78 761.45 1032.48 747.95C1039.16 734.292 1036.75 723.098 1026.02 717.804C1017.68 713.694 1011.23 715.749 1004.53 724.622L998.829 732.12C993.506 739.136 990.873 740.613 987.023 738.734C983.005 736.766 982.219 731.936 984.996 726.37C988.394 719.488 993.198 717.044 998.733 719.331L1003.73 709.176Z" fill="white"/>
<path d="M1003.73 709.176C998.883 706.77 995.14 706.295 990.942 707.477C985.294 709.103 980.289 713.938 976.52 721.571C970.282 734.271 972.616 744.54 982.934 749.623C991.131 753.661 997.145 751.498 1004.48 741.73L1009.6 735.057C1014.53 728.494 1017.91 726.785 1022.16 728.899C1026.59 731.072 1027.3 736.461 1024.05 743.066C1020.38 750.476 1015.24 753.081 1009.38 750.66L1004.16 761.239C1015.82 766.162 1025.78 761.45 1032.48 747.95C1039.16 734.292 1036.75 723.098 1026.02 717.804C1017.68 713.694 1011.23 715.749 1004.53 724.622L998.829 732.12C993.506 739.136 990.873 740.613 987.023 738.734C983.005 736.766 982.219 731.936 984.996 726.37C988.394 719.488 993.198 717.044 998.733 719.331L1003.73 709.176Z" stroke="white" stroke-width="1.19778" stroke-miterlimit="10"/>
<path d="M1032.16 691.388L1028 683.711L1058.63 673.241L1063.02 659.471L1023.2 674.026L1006.18 643.936L1001.85 657.553L1019.45 687.307L994.834 679.46L991.148 691.019L1047.25 708.905L1050.89 697.359L1032.16 691.388Z" fill="white"/>
<path d="M1032.16 691.388L1028 683.711L1058.63 673.241L1063.02 659.471L1023.2 674.026L1006.18 643.936L1001.85 657.553L1019.45 687.307L994.834 679.46L991.148 691.019L1047.25 708.905L1050.89 697.359L1032.16 691.388Z" stroke="white" stroke-width="1.19509" stroke-miterlimit="10"/>
<path d="M1010.41 614.341C1009.23 622.445 1010.98 629.544 1015.56 635.253C1020.39 641.266 1028.07 645.402 1036.75 646.674C1045.46 647.972 1054.1 646.231 1060.34 641.873C1066.52 637.64 1070.09 631.491 1071.29 623.179C1072.52 614.893 1070.87 607.98 1066.18 602.168C1061.56 596.371 1053.56 592.019 1045.36 590.816C1036.28 589.477 1027.76 591.238 1021.41 595.593C1015.17 599.879 1011.63 605.961 1010.41 614.341ZM1020.64 615.767C1022.08 605.946 1030.95 600.897 1043.55 602.757C1055.44 604.519 1062.54 612.116 1061.1 621.7C1059.69 631.325 1050.73 636.539 1038.53 634.73C1026.35 632.949 1019.2 625.405 1020.64 615.767Z" fill="white"/>
<path d="M1010.41 614.341C1009.23 622.445 1010.98 629.544 1015.56 635.253C1020.39 641.266 1028.07 645.402 1036.75 646.674C1045.46 647.972 1054.1 646.231 1060.34 641.873C1066.52 637.64 1070.09 631.491 1071.29 623.179C1072.52 614.893 1070.87 607.98 1066.18 602.168C1061.56 596.371 1053.56 592.019 1045.36 590.816C1036.28 589.477 1027.76 591.238 1021.41 595.593C1015.17 599.879 1011.63 605.961 1010.41 614.341V614.341ZM1020.64 615.767C1022.08 605.946 1030.95 600.897 1043.55 602.757C1055.44 604.519 1062.54 612.116 1061.1 621.7C1059.69 631.325 1050.73 636.539 1038.53 634.73C1026.35 632.949 1019.2 625.405 1020.64 615.767V615.767Z" stroke="white" stroke-width="1.19179" stroke-miterlimit="10"/>
<path d="M1018.61 567.295L1018.55 579.409L1077.4 579.724L1077.61 539.416L1067.53 539.368L1067.36 567.551L1018.61 567.295Z" fill="white"/>
<path d="M1018.61 567.295L1018.55 579.409L1077.4 579.724L1077.61 539.416L1067.53 539.368L1067.36 567.551L1018.61 567.295Z" stroke="white" stroke-width="1.19532" stroke-miterlimit="10"/>
<path d="M1061.59 490.207L1072.87 484.742L1071.2 472.361L1015.44 500.535L1017.24 513.834L1078.54 526.675L1076.89 514.435L1064.57 512.087L1061.59 490.207ZM1052 494.828L1054.07 510.069L1030.16 505.578L1052 494.828Z" fill="white"/>
<path d="M1061.59 490.207L1072.87 484.742L1071.2 472.361L1015.44 500.535L1017.24 513.834L1078.54 526.675L1076.89 514.435L1064.57 512.087L1061.59 490.207ZM1052 494.828L1054.07 510.069L1030.16 505.578L1052 494.828Z" stroke="white" stroke-width="1.19849" stroke-miterlimit="10"/>
<path d="M365.336 259.028L383.422 244.718C390.462 239.174 393.594 234.038 393.752 227.803C394.021 220.587 391.035 212.771 385.37 205.574C379.774 198.493 372.854 193.758 365.712 192.274C359.645 190.996 354.016 192.86 346.901 198.499L328.831 212.766L365.336 259.028ZM368.59 243.57L344.609 213.166L353.166 206.412C360.35 200.732 367.853 202.958 375.908 213.188C383.925 223.346 384.33 231.139 377.161 236.805L368.59 243.57Z" fill="white"/>
<path d="M365.336 259.028L383.422 244.718C390.462 239.174 393.594 234.038 393.752 227.803C394.021 220.587 391.035 212.771 385.37 205.574C379.774 198.493 372.854 193.758 365.712 192.274C359.645 190.996 354.016 192.86 346.901 198.499L328.831 212.766L365.336 259.028ZM368.59 243.57L344.609 213.166L353.166 206.412C360.35 200.732 367.853 202.958 375.908 213.188C383.925 223.346 384.33 231.139 377.161 236.805L368.59 243.57Z" stroke="white" stroke-width="1.19659" stroke-miterlimit="10"/>
<path d="M441.906 195.718L450.772 204.397L461.73 198.673L416.828 156.097L405.019 162.248L413.53 223.703L424.414 218.059L422.482 205.769L441.906 195.718ZM434.365 188.304L420.841 195.324L417.068 171.528L434.365 188.304Z" fill="white"/>
<path d="M441.906 195.718L450.772 204.397L461.73 198.673L416.828 156.097L405.019 162.248L413.53 223.703L424.414 218.059L422.482 205.769L441.906 195.718ZM434.365 188.304L420.841 195.324L417.068 171.528L434.365 188.304Z" stroke="white" stroke-width="1.18747" stroke-miterlimit="10"/>
<path d="M475.404 141.04L491.551 135.21L488.144 125.755L443.881 141.615L447.285 151.082L464.025 145.099L480.436 190.879L491.815 186.821L475.404 141.04Z" fill="white"/>
<path d="M475.404 141.04L491.551 135.21L488.144 125.755L443.881 141.615L447.285 151.082L464.025 145.099L480.436 190.879L491.815 186.821L475.404 141.04Z" stroke="white" stroke-width="1.19179" stroke-miterlimit="10"/>
<path d="M546.861 161.014L552.937 171.822L565.061 169.398L533.727 115.973L520.647 118.589L511.753 180.104L523.805 177.674L525.339 165.303L546.861 161.014ZM541.652 151.835L526.685 154.823L529.676 130.876L541.652 151.835Z" fill="white"/>
<path d="M546.861 161.014L552.937 171.822L565.061 169.398L533.727 115.973L520.647 118.589L511.753 180.104L523.805 177.674L525.339 165.303L546.861 161.014ZM541.652 151.835L526.685 154.823L529.676 130.876L541.652 151.835Z" stroke="white" stroke-width="1.18868" stroke-miterlimit="10"/>
<path d="M596.43 117.4L613.657 116.602L613.199 106.492L565.97 108.633L566.428 118.742L584.301 117.932L586.483 166.787L598.599 166.212L596.43 117.4Z" fill="white"/>
<path d="M596.43 117.4L613.657 116.602L613.199 106.492L565.97 108.633L566.428 118.742L584.301 117.932L586.483 166.787L598.599 166.212L596.43 117.4Z" stroke="white" stroke-width="1.19801" stroke-miterlimit="10"/>
<path d="M645.933 138.355L674.066 141.033L675.008 130.958L646.906 128.282L648.155 114.992L678.538 117.866L679.494 107.796L637.038 103.775L631.425 162.484L675.336 166.682L676.292 156.611L644.469 153.604L645.933 138.355Z" fill="white"/>
<path d="M645.933 138.355L674.066 141.033L675.008 130.958L646.906 128.282L648.155 114.992L678.538 117.866L679.494 107.796L637.038 103.775L631.425 162.484L675.336 166.682L676.292 156.611L644.469 153.604L645.933 138.355Z" stroke="white" stroke-width="1.19801" stroke-miterlimit="10"/>
<path d="M704.631 152.345L711.995 147.779L724.238 177.566L738.174 181.075L721.317 142.433L750.143 123.744L736.393 120.239L707.886 139.501L714.197 114.6L702.537 111.641L688.124 168.375L699.802 171.335L704.631 152.345Z" fill="white"/>
<path d="M704.631 152.345L711.995 147.779L724.238 177.566L738.174 181.075L721.317 142.433L750.143 123.744L736.393 120.239L707.886 139.501L714.197 114.6L702.537 111.641L688.124 168.375L699.802 171.335L704.631 152.345Z" stroke="white" stroke-width="1.18868" stroke-miterlimit="10"/>
<path d="M784.453 202.724L795.593 207.494L818.772 153.322L807.606 148.552L791.878 185.426L786.146 139.385L774.685 134.506L751.55 188.679L762.691 193.409L778.714 155.954L784.453 202.724Z" fill="white"/>
<path d="M784.453 202.724L795.593 207.494L818.772 153.322L807.606 148.552L791.878 185.426L786.146 139.385L774.685 134.506L751.55 188.679L762.691 193.409L778.715 155.954L784.453 202.724Z" stroke="white" stroke-width="1.19616" stroke-miterlimit="10"/>
<path d="M852.315 171.702L841.932 165.379L811.188 215.812L821.588 222.135L852.315 171.702Z" fill="white"/>
<path d="M852.315 171.702L841.932 165.379L811.188 215.812L821.588 222.135L852.315 171.702Z" stroke="white" stroke-width="1.1992" stroke-miterlimit="10"/>
<path d="M858.058 219.944L866.732 218.624L866.218 251.073L877.7 259.916L877.49 217.382L911.643 211.6L900.251 202.857L866.224 209.356L882.001 188.832L872.356 181.436L836.438 228.23L846.066 235.586L858.058 219.944Z" fill="white"/>
<path d="M858.058 219.944L866.732 218.624L866.218 251.073L877.7 259.916L877.49 217.382L911.643 211.6L900.251 202.857L866.224 209.356L882.001 188.832L872.356 181.436L836.438 228.23L846.066 235.586L858.058 219.944Z" stroke="white" stroke-width="1.19759" stroke-miterlimit="10"/>
<path d="M1006.54 331.828L984.015 336.541L972.467 316.306L969.584 339.793L946.554 344.536L967.754 353.909L965.064 377.049L980.93 359.685L1002.5 368.955L990.927 348.677L1006.54 331.828Z" stroke="white" stroke-width="1.20105" stroke-miterlimit="10"/>
<path d="M991.065 348.641L1002.68 368.963L981.067 359.72L965.175 377.126L967.866 353.943L946.576 344.569L969.697 339.799L972.509 316.242L984.125 336.518L1006.68 331.762L991.065 348.641Z" fill="white"/>
<path d="M229.247 337.283L245.082 353.742L234.133 374.077L255.405 364.127L271.551 381.057L268.259 358.257L289.124 348.336L266.178 344.111L262.639 321.093L251.659 341.542L229.247 337.283Z" stroke="white" stroke-width="1.19186" stroke-miterlimit="10"/>
<path d="M251.616 341.706L262.552 321.302L266.079 344.248L289.013 348.405L268.19 358.324L271.512 381.056L255.392 364.238L234.19 374.175L245.081 353.882L229.274 337.452L251.616 341.706Z" fill="white"/>
<path d="M507.182 655.904C505.959 655.904 504.968 656.895 504.968 658.118V662.187C504.968 663.392 505.944 664.369 507.149 664.369H514.848C517.021 664.369 518.782 666.13 518.782 668.303C518.782 670.475 517.021 672.237 514.848 672.237H507.149C505.944 672.237 504.968 673.213 504.968 674.418V679.202C504.968 680.425 505.959 681.416 507.182 681.416H516.509C518.764 681.416 520.592 683.244 520.592 685.499C520.592 687.755 518.764 689.583 516.509 689.583H506.46C499.939 689.583 494.652 684.296 494.652 677.774V659.546C494.652 653.025 499.939 647.738 506.46 647.738H516.509C518.764 647.738 520.592 649.566 520.592 651.821C520.592 654.076 518.764 655.904 516.509 655.904H507.182Z" fill="#090909"/>
<path d="M542.612 690C539.515 690 536.74 689.503 534.287 688.51C531.834 687.516 529.863 686.046 528.375 684.099C527.561 683.004 526.964 681.785 526.582 680.439C526.071 678.638 527.63 677.065 529.503 677.065H534.068C535.769 677.065 537.044 678.472 538.013 679.871C538.21 680.155 538.436 680.412 538.691 680.641C539.616 681.436 540.822 681.834 542.31 681.834C543.838 681.834 545.045 681.496 545.93 680.82C546.814 680.105 547.257 679.131 547.257 677.899C547.257 676.866 546.895 676.012 546.171 675.336C545.487 674.661 544.623 674.104 543.577 673.667C542.572 673.23 541.124 672.733 539.234 672.177C536.499 671.343 534.267 670.508 532.537 669.674C530.808 668.839 529.32 667.607 528.073 665.978C526.827 664.349 526.203 662.223 526.203 659.6C526.203 655.706 527.631 652.666 530.486 650.48C533.342 648.255 537.062 647.142 541.647 647.142C546.312 647.142 550.072 648.255 552.927 650.48C554.889 651.981 556.224 653.895 556.933 656.221C557.487 658.04 555.918 659.66 554.017 659.66H549.481C547.724 659.66 546.421 658.087 545.197 656.825C545.087 656.711 544.969 656.603 544.844 656.5C543.919 655.706 542.732 655.308 541.285 655.308C540.038 655.308 539.032 655.646 538.268 656.321C537.504 656.957 537.122 657.891 537.122 659.123C537.122 660.474 537.766 661.527 539.053 662.282C540.34 663.037 542.35 663.852 545.085 664.726C547.82 665.64 550.032 666.514 551.721 667.349C553.45 668.183 554.938 669.395 556.185 670.985C557.432 672.575 558.055 674.621 558.055 677.125C558.055 679.509 557.432 681.675 556.185 683.622C554.978 685.569 553.209 687.119 550.876 688.271C548.544 689.424 545.789 690 542.612 690Z" fill="#090909"/>
<path d="M590.785 647.738C593.04 647.738 594.868 649.566 594.868 651.821C594.868 654.076 593.04 655.904 590.785 655.904H583.647V684.425C583.647 687.273 581.338 689.583 578.489 689.583C575.641 689.583 573.332 687.273 573.332 684.425V655.904H566.194C563.939 655.904 562.111 654.076 562.111 651.821C562.111 649.566 563.939 647.738 566.194 647.738H590.785Z" fill="#090909"/>
<path d="M611.441 683.858C611.441 682.327 614.589 679.084 613.311 679.926C617.253 676.707 620.349 674.065 622.601 671.998C624.894 669.932 626.824 667.766 628.393 665.501C629.961 663.236 630.745 661.03 630.745 658.885C630.745 657.255 630.363 655.984 629.599 655.07C628.835 654.156 627.689 653.699 626.161 653.699C624.632 653.699 623.426 654.275 622.541 655.427C622.52 655.455 622.5 655.482 622.48 655.51C620.885 657.708 619.073 660.196 616.357 660.196C613.595 660.196 611.27 657.881 612.011 655.22C612.368 653.939 612.862 652.776 613.492 651.732C614.9 649.467 616.73 647.798 618.982 646.725C621.274 645.652 623.808 645.115 626.583 645.115C631.369 645.115 634.968 646.327 637.381 648.751C639.834 651.175 641.061 654.335 641.061 658.229C641.061 662.481 639.593 666.435 636.657 670.091C633.721 673.707 629.981 677.244 625.437 680.701H637.582C639.87 680.701 641.725 682.556 641.725 684.844C641.725 687.132 639.87 688.987 637.582 688.987H616.534C613.721 688.987 611.441 686.67 611.441 683.858Z" fill="#090909"/>
<path d="M646.266 667.23C646.266 660.395 647.594 655.01 650.248 651.076C652.942 647.142 657.266 645.175 663.218 645.175C669.17 645.175 673.473 647.142 676.127 651.076C678.822 655.01 680.169 660.395 680.169 667.23C680.169 674.144 678.822 679.569 676.127 683.503C673.473 687.437 669.17 689.404 663.218 689.404C657.266 689.404 652.942 687.437 650.248 683.503C647.594 679.569 646.266 674.144 646.266 667.23ZM670.035 667.23C670.035 663.216 669.592 660.136 668.707 657.991C667.823 655.805 665.993 654.712 663.218 654.712C660.443 654.712 658.613 655.805 657.728 657.991C656.843 660.136 656.401 663.216 656.401 667.23C656.401 669.932 656.562 672.177 656.884 673.965C657.205 675.714 657.849 677.144 658.814 678.257C659.82 679.33 661.287 679.867 663.218 679.867C665.148 679.867 666.596 679.33 667.561 678.257C668.567 677.144 669.23 675.714 669.552 673.965C669.874 672.177 670.035 669.932 670.035 667.23Z" fill="#090909"/>
<path d="M685.257 683.858C685.257 682.327 688.406 679.084 687.127 679.926C691.069 676.707 694.165 674.065 696.418 671.998C698.71 669.932 700.64 667.766 702.209 665.501C703.777 663.236 704.561 661.03 704.561 658.885C704.561 657.255 704.179 655.984 703.415 655.07C702.651 654.156 701.505 653.699 699.977 653.699C698.449 653.699 697.242 654.275 696.357 655.427C696.337 655.455 696.316 655.482 696.296 655.51C694.701 657.708 692.889 660.196 690.173 660.196C687.411 660.196 685.086 657.881 685.827 655.22C686.184 653.939 686.678 652.776 687.308 651.732C688.716 649.467 690.546 647.798 692.798 646.725C695.09 645.652 697.624 645.115 700.399 645.115C705.185 645.115 708.784 646.327 711.197 648.751C713.651 651.175 714.877 654.335 714.877 658.229C714.877 662.481 713.409 666.435 710.473 670.091C707.538 673.707 703.797 677.244 699.253 680.701H711.398C713.686 680.701 715.541 682.556 715.541 684.844C715.541 687.132 713.686 688.987 711.398 688.987H690.35C687.537 688.987 685.257 686.67 685.257 683.858Z" fill="#090909"/>
<path d="M720.083 667.23C720.083 660.395 721.41 655.01 724.064 651.076C726.759 647.142 731.082 645.175 737.034 645.175C742.986 645.175 747.289 647.142 749.944 651.076C752.638 655.01 753.985 660.395 753.985 667.23C753.985 674.144 752.638 679.569 749.944 683.503C747.289 687.437 742.986 689.404 737.034 689.404C731.082 689.404 726.759 687.437 724.064 683.503C721.41 679.569 720.083 674.144 720.083 667.23ZM743.851 667.23C743.851 663.216 743.408 660.136 742.524 657.991C741.639 655.805 739.809 654.712 737.034 654.712C734.259 654.712 732.429 655.805 731.544 657.991C730.66 660.136 730.217 663.216 730.217 667.23C730.217 669.932 730.378 672.177 730.7 673.965C731.022 675.714 731.665 677.144 732.63 678.257C733.636 679.33 735.104 679.867 737.034 679.867C738.964 679.867 740.412 679.33 741.377 678.257C742.383 677.144 743.046 675.714 743.368 673.965C743.69 672.177 743.851 669.932 743.851 667.23Z" fill="#090909"/>
<path fill-rule="evenodd" clip-rule="evenodd" d="M378.82 480.472C389.474 474.824 401.924 472 416.172 472H449.096C458.878 472 466.809 479.931 466.809 489.713V589.447C466.809 599.23 458.878 607.16 449.096 607.16H416.172C402.053 607.16 389.666 604.336 379.013 598.689C368.231 593.041 359.952 585.083 354.175 574.814C348.271 564.546 345.319 552.801 345.319 539.58C345.319 526.231 348.271 514.486 354.175 504.346C359.952 494.077 368.166 486.119 378.82 480.472ZM389.217 568.46C396.148 575.263 405.839 578.665 418.29 578.665H429.65C431.989 578.665 433.885 576.768 433.885 574.429V504.346C433.885 502.007 431.989 500.11 429.65 500.11H418.29C405.839 500.11 396.148 503.576 389.217 510.507C382.286 517.438 378.82 527.129 378.82 539.58C378.82 552.031 382.286 561.658 389.217 568.46ZM566.271 603.516C568.019 605.812 570.739 607.16 573.625 607.16H590.241C597.958 607.16 602.276 598.262 597.501 592.2L554.99 538.232L595.52 486.974C600.311 480.914 595.996 472 588.271 472H573.245C570.357 472 567.634 473.351 565.887 475.651L523.607 531.301V481.242C523.607 476.138 519.469 472 514.365 472H499.925C494.821 472 490.683 476.138 490.683 481.242V597.918C490.683 603.022 494.821 607.16 499.925 607.16H514.365C519.469 607.16 523.607 603.022 523.607 597.918V547.474L566.271 603.516ZM655.967 592.142C655.415 593.11 654.949 594.139 654.582 595.223L654.24 596.234C652.028 602.765 645.899 607.16 639.003 607.16C627.851 607.16 620.082 596.087 623.876 585.6L658.494 489.924C662.386 479.166 672.601 472 684.04 472C695.48 472 705.694 479.166 709.587 489.924L744.117 585.359C747.954 595.964 740.099 607.16 728.821 607.16C721.849 607.16 715.651 602.716 713.414 596.112L713.113 595.223C712.746 594.139 712.281 593.11 711.728 592.142H712.1L696.504 545.934L695.558 543.139C695.472 542.781 695.369 542.424 695.248 542.067C695.123 541.696 694.984 541.337 694.832 540.992L683.797 508.389L655.687 592.142H655.967ZM842.478 603.516C844.225 605.812 846.945 607.16 849.831 607.16H866.447C874.164 607.16 878.482 598.262 873.707 592.2L831.196 538.232L871.726 486.974C876.518 480.914 872.202 472 864.477 472H849.452C846.563 472 843.84 473.351 842.093 475.651L799.813 531.301V481.242C799.813 476.138 795.675 472 790.571 472H776.131C771.027 472 766.889 476.138 766.889 481.242V597.918C766.889 603.022 771.027 607.16 776.131 607.16H790.571C795.675 607.16 799.813 603.022 799.813 597.918V547.474L842.478 603.516Z" fill="#090909"/>
</svg>
