<svg width="1246" height="1244" viewBox="0 0 1246 1244" fill="none" xmlns="http://www.w3.org/2000/svg">
<path fill-rule="evenodd" clip-rule="evenodd" d="M395.458 253.329C466.977 319.229 572.978 234.811 613.208 176.702C673.658 89.0061 845.644 -61.2261 1049.98 39.4112C1305.41 165.208 1274.76 492.79 1162.37 665.201C1049.98 837.613 809.884 1138.38 620.232 1243.1C591.764 1222.55 557.258 1195.94 519.321 1164.51C535.542 1165.4 550.08 1160.11 558.292 1143.48C578.726 1102.1 531.046 1048.76 504.652 1027.27C467.616 997.253 411.422 986.398 384.603 1006.19C373.026 1014.74 372.827 1026.39 376.903 1037.09C238.55 903.485 95.9825 734.155 39.7796 572.61C-77.0772 236.727 78.7318 45.1582 309.252 4.92886C332.351 0.89782 354.048 -0.537286 374.379 0.175347C356.618 3.75657 341.085 8.64192 329.048 15.146C253.28 56.085 312.575 85.9149 360.908 110.231C363.086 111.326 365.242 112.411 367.362 113.484C406.697 133.408 407.591 158.822 387.796 173.509C371.377 185.691 357.145 213.994 395.458 253.329ZM1083.19 471.079C1095.75 434.255 1131.85 359.331 1175.78 354.222C1230.7 347.836 1219.2 485.127 1177.7 568.14C1136.19 651.153 1078.72 659.454 1070.42 589.851C1063.78 534.169 1076.16 487.469 1083.19 471.079ZM358.422 412.97C338.839 420.419 288.18 434.297 242.203 430.211C184.733 425.102 89.5873 489.597 84.4788 563.031C79.3703 636.466 131.094 739.274 226.878 726.503C248.075 723.677 265.582 720.256 280.251 717.39C331.863 707.307 348.325 704.09 366.723 757.793C390.35 826.757 432.495 870.179 523.809 865.709C615.123 861.24 673.232 891.891 636.834 986.398C634.058 993.736 630.958 1001.01 627.907 1008.17C611.315 1047.12 596.193 1082.61 642.581 1105.81C697.498 1133.27 755.607 1057.28 767.101 1000.45C768.092 995.546 769.092 990.451 770.118 985.231C780.982 929.906 794.615 860.491 829.041 859.324C865.41 858.091 863.696 897.917 862.959 915.04C862.932 915.655 862.907 916.241 862.885 916.794C862.246 932.758 860.522 1027.7 930.573 937.867C984.85 868.264 1019.97 817.179 1035.94 783.974C1036.26 783.308 1036.58 782.635 1036.91 781.955C1057 740.203 1090.32 670.983 1018.69 633.912C946.959 596.786 883.319 510.031 1000.18 377.21C1117.03 244.389 1055.73 110.93 973.356 82.8334C890.982 54.7367 761.354 77.0863 781.149 146.051C785.448 161.029 790.41 173.748 794.746 184.863C810.374 224.922 817.868 244.132 756.884 273.125C722.222 289.603 693.248 285.73 663.495 281.752C626.377 276.789 588.045 271.665 535.942 305.691C506.25 325.082 484.608 340.448 466.672 353.182C427.903 380.708 406.445 395.943 358.422 412.97Z" fill="#080808"/>
<path d="M134.245 547.923C141.322 276.622 366.186 62.8977 634.584 68.7931C906.118 76.5917 1119.83 301.44 1113.62 572.762C1106.14 841.346 881.301 1055.06 609.744 1048.17C341.37 1041.36 127.629 816.528 134.245 547.923Z" fill="#090909" stroke="#080808" stroke-width="10.623" stroke-miterlimit="3.86"/>
<path fill-rule="evenodd" clip-rule="evenodd" d="M396.458 253.329C467.977 319.229 573.978 234.811 614.208 176.702C674.658 89.0061 694.66 67.3629 899 168C1007.5 280.5 1133 480.5 1071.42 667C959.031 839.412 849.5 994 710.5 1027.27C682.032 1006.72 616.937 1053.43 579 1022C595.221 1022.89 540.288 1017.08 548.5 1000.45C490.5 993 526.894 1021.94 500.5 1000.45C454.5 985.231 439 985.231 403 961C376 950.5 337.423 906.1 341.5 916.794C203.147 783.192 208.203 795.457 152 633.912C142 520 166.5 393 227.878 295C270.654 226.701 285.715 217.339 329 188.5C351.5 173.509 354 165.364 372.5 153.5C412 136.001 420.205 134.5 458 113C460.178 114.096 450 130 446 136.001C438.335 147.5 408.591 158.822 388.795 173.509C372.377 185.691 358.145 213.994 396.458 253.329ZM1084.19 471.079C1096.75 434.255 1018.57 437.109 1062.5 432C1046 406 1112.92 477.487 1071.42 560.5C1071.42 596 1079.72 659.454 1071.42 589.851C1064.78 534.169 1077.16 487.469 1084.19 471.079ZM359.421 412.97C339.839 420.419 289.18 434.297 243.203 430.211C185.733 425.102 213.109 477.566 208 551C202.892 624.435 206.681 729.33 227.878 726.503C249.075 723.677 266.582 720.256 281.251 717.391C332.863 707.307 349.325 704.09 367.723 757.793C391.35 826.757 433.495 870.18 524.809 865.71C616.123 861.24 674.232 891.891 637.834 986.398C635.058 993.736 631.958 1001.01 628.907 1008.17C609.5 1000.45 644.612 977.252 691 1000.45C727.5 994 740 995.5 768.101 1000.45C769.092 995.546 770.092 990.451 771.117 985.231C781.982 929.906 795.615 860.491 830.041 859.324C866.41 858.091 864.696 897.917 863.959 915.04C863.932 915.655 863.907 916.241 863.885 916.794C863.246 932.758 854.949 994.33 925 904.5C979.278 834.897 1020.97 817.179 1036.93 783.974C1037.25 783.308 1037.58 782.635 1037.91 781.955C1058 740.203 1091.32 670.983 1019.69 633.912C947.959 596.786 884.319 510.031 1001.18 377.21C1037 315.5 957.375 230.097 875 202C792.626 173.903 762.354 77.087 782.149 146.052C786.448 161.03 791.41 173.748 795.746 184.863C811.374 224.922 818.868 244.132 757.884 273.125C723.222 289.603 694.248 285.73 664.495 281.752C627.377 276.789 589.045 271.665 536.942 305.691C507.25 325.082 485.608 340.448 467.672 353.182C428.903 380.708 407.445 395.943 359.421 412.97Z" fill="#F88F2D"/>
<path d="M622.107 123.532L622.165 123.532L622.224 123.532C857.077 123.762 1049.14 316.018 1048.22 553.148C1049.14 789.18 856.935 980.943 622.632 982.767L622.169 982.77L621.706 982.767C384.21 980.95 191.644 789.546 192.546 553.149C191.646 315.647 384.07 123.761 622.107 123.532Z" stroke="black" stroke-width="120" stroke-miterlimit="3.86"/>
<path d="M213.842 508.604C218.909 508.944 222.247 508.397 225.874 506.385C232.414 502.835 236.748 496.143 238.022 487.412C240.428 471.039 230.214 459.099 211.424 456.335C192.773 453.59 179.588 462.022 177.202 478.159C175.083 492.59 182.029 503.449 195.226 506.143L196.952 494.505C189.649 492.704 186.097 487.359 187.196 479.952C188.552 470.732 196.837 466.387 209.509 468.248C222.333 470.16 229.158 476.949 227.771 486.312C227.16 490.475 225.228 493.679 222.111 495.491C220.331 496.57 218.723 496.949 215.505 497.219L213.842 508.604Z" fill="white"/>
<path d="M213.842 508.604C218.909 508.944 222.247 508.397 225.874 506.385C232.414 502.835 236.748 496.143 238.022 487.412C240.428 471.039 230.214 459.099 211.424 456.335C192.773 453.59 179.588 462.022 177.202 478.159C175.083 492.59 182.029 503.449 195.226 506.143L196.952 494.505C189.649 492.704 186.097 487.359 187.196 479.952C188.552 470.732 196.837 466.387 209.509 468.248C222.333 470.16 229.158 476.949 227.771 486.312C227.16 490.475 225.228 493.679 222.111 495.491C220.331 496.57 218.723 496.949 215.505 497.219L213.842 508.604Z" stroke="white" stroke-width="1.19179" stroke-miterlimit="10"/>
<path d="M201.103 554.123L174.38 553.977L174.325 566.091L233.198 566.407L233.254 554.225L211.2 554.1L211.341 530.838L233.395 530.977L233.45 518.848L174.577 518.547L174.495 530.632L201.246 530.793L201.103 554.123Z" fill="white"/>
<path d="M201.103 554.123L174.38 553.977L174.325 566.091L233.198 566.407L233.254 554.225L211.2 554.1L211.341 530.838L233.395 530.977L233.45 518.848L174.577 518.547L174.495 530.632L201.246 530.793L201.103 554.123Z" stroke="white" stroke-width="1.19532" stroke-miterlimit="10"/>
<path d="M190.214 616.233L178.942 621.655L180.621 633.992L236.373 605.862L234.566 592.538L173.247 579.707L174.913 591.961L187.236 594.309L190.214 616.233ZM199.797 611.568L197.73 596.327L221.637 600.818L199.797 611.568Z" fill="white"/>
<path d="M190.214 616.233L178.942 621.655L180.621 633.992L236.373 605.862L234.566 592.538L173.247 579.707L174.913 591.961L187.236 594.309L190.214 616.233ZM199.797 611.568L197.73 596.327L221.637 600.818L199.797 611.568Z" stroke="white" stroke-width="1.19849" stroke-miterlimit="10"/>
<path d="M243.936 646.764L241.082 634.91L183.616 648.766L193.107 688.104L202.941 685.715L196.319 658.203L243.936 646.764Z" fill="white"/>
<path d="M243.936 646.764L241.082 634.91L183.616 648.766L193.107 688.104L202.941 685.715L196.319 658.203L243.936 646.764Z" stroke="white" stroke-width="1.20015" stroke-miterlimit="10"/>
<path d="M244.097 696.043L205.349 722.698L209.776 733.946L256.231 726.825L213.597 743.621L218.051 754.88L272.754 733.3L266.075 716.345L218.739 723.91L258.38 696.825L251.739 680.015L197.037 701.58L201.462 712.857L244.097 696.043Z" fill="white"/>
<path d="M244.097 696.043L205.349 722.698L209.776 733.946L256.231 726.825L213.597 743.621L218.051 754.88L272.754 733.3L266.075 716.345L218.739 723.91L258.38 696.825L251.739 680.015L197.037 701.58L201.462 712.857L244.097 696.043Z" stroke="white" stroke-width="1.1942" stroke-miterlimit="10"/>
<path d="M257.088 763.955L272.274 787.774L280.784 782.311L265.597 758.535L276.844 751.346L293.244 777.045L301.767 771.625L278.839 735.691L229.165 767.425L252.861 804.556L261.399 799.094L244.203 772.183L257.088 763.955Z" fill="white"/>
<path d="M257.088 763.955L272.274 787.774L280.784 782.311L265.597 758.535L276.844 751.346L293.244 777.045L301.767 771.625L278.839 735.691L229.165 767.425L252.861 804.556L261.399 799.094L244.203 772.183L257.088 763.955Z" stroke="white" stroke-width="1.19659" stroke-miterlimit="10"/>
<path d="M286.634 813.62L295.104 824.676C298.306 828.853 298.02 831.93 294.087 834.914C293.715 835.213 293.071 835.731 292.173 836.312C290.917 837.149 289.744 838.07 289.057 838.616C284.696 841.941 283.47 843.271 282.147 846.224L290.088 856.592L291.819 855.217C291.522 853.106 292.046 851.788 294.105 850.242C307.717 839.398 308.156 838.638 306.157 830.704C312.245 834.394 318.056 834.121 323.779 829.708C327.499 826.858 329.924 822.949 330.518 818.94C331.076 815.171 329.839 811.42 326.786 807.419L307.524 782.319L260.687 818.221L268.072 827.832L286.634 813.62ZM294.671 807.445L306.868 798.119L315.789 809.732C317.905 812.478 318.532 813.826 318.454 815.734C318.377 817.652 317.226 819.447 315.037 821.1C312.793 822.838 310.487 823.594 308.687 823.226C306.997 822.903 305.692 821.861 303.59 819.101L294.671 807.445Z" fill="white"/>
<path d="M286.634 813.62L295.104 824.676C298.306 828.853 298.02 831.93 294.087 834.914C293.715 835.213 293.071 835.731 292.173 836.312C290.917 837.149 289.744 838.07 289.057 838.616C284.696 841.941 283.47 843.271 282.147 846.224L290.088 856.592L291.819 855.217C291.522 853.106 292.046 851.788 294.105 850.242C307.717 839.398 308.156 838.638 306.157 830.704C312.245 834.394 318.056 834.121 323.779 829.708C327.499 826.858 329.924 822.949 330.518 818.94C331.076 815.171 329.839 811.42 326.786 807.419L307.524 782.319L260.687 818.221L268.072 827.832L286.634 813.62ZM294.671 807.445L306.868 798.119L315.789 809.732C317.905 812.478 318.532 813.826 318.454 815.734C318.377 817.652 317.226 819.447 315.037 821.1C312.793 822.838 310.487 823.594 308.687 823.226C306.997 822.903 305.692 821.861 303.59 819.101L294.671 807.445Z" stroke="white" stroke-width="1.19825" stroke-miterlimit="10"/>
<path d="M362.129 868.54C365.861 864.639 367.434 861.243 367.544 856.899C367.693 851.012 364.569 844.833 358.449 838.999C348.245 829.274 337.781 828.405 329.899 836.731C323.604 843.303 323.862 849.692 330.961 859.546L335.791 866.4C340.572 873.069 341.183 876.745 337.911 880.196C334.497 883.755 329.179 882.807 323.865 877.736C317.924 872.088 316.974 866.386 321.023 861.581L312.492 853.442C304.354 863.05 305.872 873.942 316.731 884.286C327.698 894.773 339.074 895.79 347.298 887.165C353.693 880.455 353.655 873.724 347.222 864.683L341.793 857.086C336.701 849.903 336.062 846.957 339.002 843.833C342.07 840.644 346.863 841.326 351.367 845.619C356.913 850.878 357.773 856.159 353.969 860.762L362.129 868.54Z" fill="white"/>
<path d="M362.129 868.54C365.861 864.639 367.434 861.243 367.544 856.899C367.693 851.012 364.569 844.833 358.449 838.999C348.245 829.274 337.781 828.405 329.899 836.731C323.604 843.303 323.862 849.692 330.961 859.546L335.791 866.4C340.572 873.069 341.183 876.745 337.911 880.196C334.497 883.755 329.179 882.807 323.865 877.736C317.924 872.088 316.974 866.386 321.023 861.581L312.492 853.442C304.354 863.05 305.872 873.942 316.731 884.286C327.698 894.773 339.074 895.79 347.298 887.165C353.693 880.455 353.655 873.724 347.222 864.683L341.793 857.086C336.701 849.903 336.062 846.957 339.002 843.833C342.07 840.644 346.863 841.326 351.367 845.619C356.913 850.878 357.773 856.159 353.969 860.762L362.129 868.54Z" stroke="white" stroke-width="1.19299" stroke-miterlimit="10"/>
<path d="M439.52 908.436L454.975 916.05L459.456 906.978L417.061 886.103L412.581 895.174L428.636 903.07L407.036 946.918L417.921 952.27L439.52 908.436Z" fill="white"/>
<path d="M439.52 908.436L454.975 916.05L459.456 906.978L417.061 886.103L412.581 895.174L428.636 903.07L407.036 946.918L417.921 952.27L439.52 908.436Z" stroke="white" stroke-width="1.19778" stroke-miterlimit="10"/>
<path d="M469.531 947.648L496.06 957.66L499.637 948.131L473.106 938.175L477.828 925.646L506.471 936.399L510.032 926.912L469.99 911.845L449.16 967.268L490.568 982.831L494.162 973.317L464.115 962.024L469.531 947.648Z" fill="white"/>
<path d="M469.531 947.648L496.06 957.66L499.637 948.131L473.106 938.175L477.828 925.646L506.471 936.399L510.032 926.912L469.99 911.845L449.16 967.268L490.568 982.831L494.162 973.317L464.115 962.024L469.531 947.648Z" stroke="white" stroke-width="1.20188" stroke-miterlimit="10"/>
<path d="M521.474 972.285L528.61 967.32L542.372 996.415L556.465 999.255L537.636 961.477L565.505 941.332L551.554 938.552L524.09 959.282L529.106 934.056L517.301 931.723L505.832 989.136L517.637 991.497L521.474 972.285Z" fill="white"/>
<path d="M521.474 972.285L528.61 967.32L542.372 996.415L556.465 999.255L537.636 961.477L565.505 941.332L551.554 938.552L524.09 959.282L529.106 934.056L517.301 931.723L505.832 989.136L517.637 991.497L521.474 972.285Z" stroke="white" stroke-width="1.18868" stroke-miterlimit="10"/>
<path d="M601.928 1002.55L614.055 1003.24L617.285 944.426L605.2 943.768L602.965 983.747L581.885 942.476L569.453 941.782L566.206 1000.6L578.305 1001.24L580.542 960.601L601.928 1002.55Z" fill="white"/>
<path d="M601.928 1002.55L614.055 1003.24L617.285 944.426L605.2 943.768L602.965 983.747L581.885 942.476L569.453 941.782L566.206 1000.6L578.305 1001.24L580.542 960.601L601.928 1002.55Z" stroke="white" stroke-width="1.19563" stroke-miterlimit="10"/>
<path d="M643.373 945.856L631.257 946.432L633.869 1005.35L646.013 1004.82L643.373 945.856Z" fill="white"/>
<path d="M643.373 945.856L631.257 946.432L633.869 1005.35L646.013 1004.82L643.373 945.856Z" stroke="white" stroke-width="1.19801" stroke-miterlimit="10"/>
<path d="M699.851 955.309C699.077 950.003 697.366 946.692 694.04 943.944C689.507 940.225 682.742 938.861 674.393 940.094C660.502 942.154 653.437 949.827 655.114 961.13C656.426 970.096 661.591 973.803 673.666 974.291L681.999 974.671C690.211 975.019 693.461 976.812 694.139 981.499C694.86 986.355 690.842 989.927 683.634 991.021C675.498 992.202 670.492 989.453 669.176 983.32L657.549 985.016C660.126 997.324 669.618 1002.82 684.399 1000.65C699.321 998.43 707.102 990.143 705.368 978.39C704.013 969.241 698.718 965.167 687.695 964.677L678.379 964.272C669.627 963.84 666.925 962.537 666.289 958.314C665.627 953.951 669.123 950.603 675.244 949.707C682.804 948.609 687.478 951.153 688.731 956.962L699.851 955.309Z" fill="white"/>
<path d="M699.851 955.309C699.077 950.003 697.366 946.693 694.04 943.944C689.507 940.225 682.742 938.861 674.393 940.094C660.502 942.154 653.437 949.827 655.114 961.13C656.426 970.096 661.591 973.803 673.666 974.291L681.999 974.671C690.211 975.019 693.461 976.812 694.139 981.499C694.86 986.355 690.842 989.927 683.634 991.021C675.498 992.202 670.492 989.453 669.176 983.32L657.549 985.016C660.126 997.324 669.618 1002.82 684.399 1000.65C699.321 998.43 707.102 990.143 705.368 978.39C704.013 969.241 698.718 965.167 687.695 964.677L678.379 964.272C669.627 963.84 666.925 962.537 666.289 958.314C665.627 953.951 669.123 950.603 675.244 949.707C682.804 948.609 687.478 951.153 688.731 956.962L699.851 955.309Z" stroke="white" stroke-width="1.18868" stroke-miterlimit="10"/>
<path d="M726.865 972.98L730.849 965.214L756.747 984.591L770.593 980.455L736.135 955.826L751.391 924.83L737.686 928.9L723.053 960.22L715.643 935.493L704.057 938.943L720.9 995.293L732.472 991.842L726.865 972.98Z" fill="white"/>
<path d="M726.865 972.98L730.849 965.214L756.747 984.591L770.593 980.455L736.135 955.826L751.391 924.83L737.686 928.9L723.053 960.22L715.643 935.493L704.057 938.943L720.9 995.293L732.472 991.842L726.865 972.98Z" stroke="white" stroke-width="1.19425" stroke-miterlimit="10"/>
<path d="M812.181 949.436L820.643 958.625L831.992 953.444L788.896 908.319L776.696 913.9L782.194 976.23L793.432 971.088L792.107 958.644L812.181 949.436ZM804.949 941.61L790.973 948.014L788.361 923.871L804.949 941.61Z" fill="white"/>
<path d="M812.181 949.436L820.643 958.625L831.992 953.444L788.896 908.319L776.696 913.9L782.194 976.23L793.432 971.088L792.107 958.644L812.181 949.436ZM804.949 941.61L790.973 948.014L788.361 923.871L804.949 941.61Z" stroke="white" stroke-width="1.19723" stroke-miterlimit="10"/>
<path d="M901.382 875.978L917.941 896.969L927.472 889.47L890.953 843.179L881.366 850.762L895.045 868.074L876.773 882.505L863.076 865.189L853.577 872.705L890.083 918.951L899.596 911.438L883.023 890.446L901.382 875.978Z" fill="white"/>
<path d="M901.382 875.978L917.941 896.969L927.472 889.47L890.953 843.179L881.366 850.762L895.045 868.074L876.773 882.505L863.076 865.189L853.577 872.705L890.083 918.951L899.596 911.438L883.023 890.446L901.382 875.978Z" stroke="white" stroke-width="1.19659" stroke-miterlimit="10"/>
<path d="M902.905 808.708L896.783 815.143L903.902 821.915L910.024 815.504L902.905 808.708ZM913.236 797.848L907.11 804.298L914.247 811.07L920.368 804.663L913.236 797.848ZM915.534 816.642C909.845 822.582 907.192 829.357 907.62 836.688C908.1 844.386 912.011 852.225 918.377 858.291C924.728 864.34 932.787 867.897 940.428 867.965C947.928 868.069 954.41 865.121 960.172 859.028C965.98 852.976 968.585 846.34 968.117 838.897C967.716 831.481 963.716 823.317 957.676 817.6C951.038 811.26 943.035 807.762 935.324 807.634C927.755 807.557 921.369 810.508 915.534 816.642ZM923.066 823.704C929.912 816.5 940.053 817.501 949.296 826.29C957.989 834.573 959.367 844.914 952.71 851.925C945.968 858.991 935.632 858.054 926.689 849.556C917.792 841.013 916.325 830.756 923.066 823.704Z" fill="white"/>
<path d="M902.905 808.708L896.783 815.143L903.902 821.915L910.024 815.504L902.905 808.708ZM913.236 797.848L907.11 804.298L914.247 811.07L920.368 804.663L913.236 797.848ZM915.534 816.642C909.845 822.582 907.192 829.357 907.62 836.688C908.1 844.386 912.011 852.225 918.377 858.291C924.728 864.34 932.787 867.897 940.428 867.965C947.928 868.069 954.41 865.121 960.172 859.028C965.98 852.976 968.585 846.34 968.117 838.897C967.716 831.481 963.716 823.317 957.676 817.6C951.038 811.26 943.035 807.762 935.324 807.634C927.755 807.557 921.369 810.508 915.534 816.642V816.642ZM923.066 823.704C929.912 816.5 940.053 817.501 949.296 826.29C957.989 834.573 959.367 844.914 952.71 851.925C945.968 858.991 935.632 858.054 926.689 849.556C917.792 841.013 916.325 830.756 923.066 823.704Z" stroke="white" stroke-width="1.19299" stroke-miterlimit="10"/>
<path d="M987.85 765.82L975.516 786.052L984.188 791.319L991.182 779.815C993.852 781.818 995.14 783.559 996.028 786.177C997.573 790.52 997.057 795.429 994.598 799.419C989.477 807.815 978.5 809.361 968.117 803.041C957.25 796.412 953.896 787.115 959.278 778.306C961.473 774.714 964.337 772.306 967.761 771.226C969.878 770.537 971.535 770.482 974.701 771.194L980.628 761.415C969.509 756.38 957.801 760.807 950.37 773C941.515 787.53 946.218 803.958 961.918 813.499C977.221 822.833 994.451 819.651 1002.75 806.023C1006.87 799.214 1007.25 793.193 1003.92 785.86L1011.32 788.625L1015.08 782.424L987.85 765.82Z" fill="white"/>
<path d="M987.85 765.82L975.516 786.052L984.188 791.319L991.182 779.815C993.852 781.818 995.14 783.559 996.028 786.177C997.573 790.52 997.057 795.429 994.598 799.419C989.477 807.815 978.5 809.361 968.117 803.041C957.25 796.412 953.896 787.115 959.278 778.306C961.473 774.714 964.337 772.306 967.761 771.226C969.878 770.537 971.535 770.482 974.701 771.194L980.628 761.415C969.509 756.38 957.801 760.807 950.37 773C941.515 787.53 946.218 803.958 961.918 813.499C977.221 822.833 994.451 819.651 1002.75 806.023C1006.87 799.214 1007.25 793.193 1003.92 785.86L1011.32 788.625L1015.08 782.424L987.85 765.82Z" stroke="white" stroke-width="1.1992" stroke-miterlimit="10"/>
<path d="M1003.73 709.177C998.883 706.771 995.14 706.295 990.942 707.477C985.293 709.104 980.289 713.938 976.52 721.571C970.281 734.272 972.616 744.541 982.934 749.623C991.131 753.662 997.145 751.499 1004.48 741.73L1009.6 735.057C1014.53 728.495 1017.91 726.785 1022.16 728.9C1026.59 731.073 1027.3 736.461 1024.05 743.067C1020.38 750.476 1015.24 753.081 1009.38 750.66L1004.16 761.24C1015.82 766.163 1025.78 761.451 1032.48 747.951C1039.16 734.292 1036.75 723.099 1026.02 717.805C1017.68 713.695 1011.23 715.75 1004.53 724.623L998.828 732.121C993.506 739.136 990.873 740.613 987.022 738.735C983.005 736.767 982.219 731.936 984.995 726.371C988.394 719.489 993.198 717.044 998.733 719.331L1003.73 709.177Z" fill="white"/>
<path d="M1003.73 709.177C998.883 706.771 995.14 706.295 990.942 707.477C985.293 709.104 980.289 713.938 976.52 721.571C970.281 734.272 972.616 744.541 982.934 749.623C991.131 753.662 997.145 751.499 1004.48 741.73L1009.6 735.057C1014.53 728.495 1017.91 726.785 1022.16 728.9C1026.59 731.073 1027.3 736.461 1024.05 743.067C1020.38 750.476 1015.24 753.081 1009.38 750.66L1004.16 761.24C1015.82 766.163 1025.78 761.451 1032.48 747.951C1039.16 734.292 1036.75 723.099 1026.02 717.805C1017.68 713.695 1011.23 715.75 1004.53 724.623L998.828 732.121C993.506 739.136 990.873 740.613 987.022 738.735C983.005 736.767 982.219 731.936 984.995 726.371C988.394 719.489 993.198 717.044 998.733 719.331L1003.73 709.177Z" stroke="white" stroke-width="1.19778" stroke-miterlimit="10"/>
<path d="M1032.16 691.388L1028 683.712L1058.63 673.242L1063.02 659.471L1023.2 674.027L1006.18 643.936L1001.85 657.554L1019.45 687.308L994.834 679.46L991.148 691.019L1047.25 708.905L1050.89 697.359L1032.16 691.388Z" fill="white"/>
<path d="M1032.16 691.388L1028 683.712L1058.63 673.242L1063.02 659.471L1023.2 674.027L1006.18 643.936L1001.85 657.554L1019.45 687.308L994.834 679.46L991.148 691.019L1047.25 708.905L1050.89 697.359L1032.16 691.388Z" stroke="white" stroke-width="1.19509" stroke-miterlimit="10"/>
<path d="M1010.41 614.341C1009.23 622.446 1010.98 629.544 1015.56 635.253C1020.39 641.267 1028.07 645.403 1036.75 646.675C1045.46 647.973 1054.1 646.232 1060.34 641.874C1066.52 637.641 1070.09 631.492 1071.29 623.18C1072.52 614.893 1070.87 607.981 1066.18 602.168C1061.56 596.372 1053.56 592.019 1045.36 590.817C1036.28 589.477 1027.76 591.239 1021.41 595.594C1015.17 599.88 1011.63 605.961 1010.41 614.341ZM1020.64 615.767C1022.08 605.946 1030.95 600.898 1043.55 602.757C1055.44 604.52 1062.54 612.116 1061.1 621.701C1059.69 631.325 1050.73 636.54 1038.53 634.73C1026.35 632.949 1019.2 625.405 1020.64 615.767Z" fill="white"/>
<path d="M1010.41 614.341C1009.23 622.446 1010.98 629.544 1015.56 635.253C1020.39 641.267 1028.07 645.403 1036.75 646.675C1045.46 647.973 1054.1 646.232 1060.34 641.874C1066.52 637.641 1070.09 631.492 1071.29 623.18C1072.52 614.893 1070.87 607.981 1066.18 602.168C1061.56 596.372 1053.56 592.019 1045.36 590.817C1036.28 589.477 1027.76 591.239 1021.41 595.594C1015.17 599.88 1011.63 605.961 1010.41 614.341V614.341ZM1020.64 615.767C1022.08 605.946 1030.95 600.898 1043.55 602.757C1055.44 604.52 1062.54 612.116 1061.1 621.701C1059.69 631.325 1050.73 636.54 1038.53 634.73C1026.35 632.949 1019.2 625.405 1020.64 615.767V615.767Z" stroke="white" stroke-width="1.19179" stroke-miterlimit="10"/>
<path d="M1018.61 567.295L1018.55 579.409L1077.4 579.725L1077.61 539.416L1067.53 539.369L1067.36 567.552L1018.61 567.295Z" fill="white"/>
<path d="M1018.61 567.295L1018.55 579.409L1077.4 579.725L1077.61 539.416L1067.53 539.369L1067.36 567.552L1018.61 567.295Z" stroke="white" stroke-width="1.19532" stroke-miterlimit="10"/>
<path d="M1061.59 490.207L1072.87 484.743L1071.2 472.362L1015.44 500.535L1017.24 513.834L1078.54 526.676L1076.89 514.436L1064.57 512.088L1061.59 490.207ZM1052 494.829L1054.07 510.07L1030.16 505.579L1052 494.829Z" fill="white"/>
<path d="M1061.59 490.207L1072.87 484.743L1071.2 472.362L1015.44 500.535L1017.24 513.834L1078.54 526.676L1076.89 514.436L1064.57 512.088L1061.59 490.207ZM1052 494.829L1054.07 510.07L1030.16 505.579L1052 494.829Z" stroke="white" stroke-width="1.19849" stroke-miterlimit="10"/>
<path d="M365.337 259.028L383.422 244.719C390.463 239.175 393.594 234.038 393.752 227.803C394.021 220.587 391.035 212.772 385.37 205.574C379.774 198.493 372.854 193.759 365.712 192.274C359.645 190.997 354.016 192.861 346.902 198.5L328.831 212.767L365.337 259.028ZM368.59 243.571L344.609 213.167L353.166 206.413C360.35 200.733 367.854 202.958 375.908 213.189C383.925 223.347 384.33 231.14 377.161 236.806L368.59 243.571Z" fill="white"/>
<path d="M365.337 259.028L383.422 244.719C390.463 239.175 393.594 234.038 393.752 227.803C394.021 220.587 391.035 212.772 385.37 205.574C379.774 198.493 372.854 193.759 365.712 192.274C359.645 190.997 354.016 192.861 346.902 198.5L328.831 212.767L365.337 259.028ZM368.59 243.571L344.609 213.167L353.166 206.413C360.35 200.733 367.854 202.958 375.908 213.189C383.925 223.347 384.33 231.14 377.161 236.806L368.59 243.571Z" stroke="white" stroke-width="1.19659" stroke-miterlimit="10"/>
<path d="M441.906 195.719L450.772 204.398L461.73 198.673L416.828 156.097L405.019 162.249L413.53 223.703L424.414 218.06L422.482 205.769L441.906 195.719ZM434.365 188.305L420.841 195.324L417.068 171.529L434.365 188.305Z" fill="white"/>
<path d="M441.906 195.719L450.772 204.398L461.73 198.673L416.828 156.097L405.019 162.249L413.53 223.703L424.414 218.06L422.482 205.769L441.906 195.719ZM434.365 188.305L420.841 195.324L417.068 171.529L434.365 188.305Z" stroke="white" stroke-width="1.18747" stroke-miterlimit="10"/>
<path d="M475.404 141.041L491.551 135.211L488.144 125.755L443.881 141.616L447.285 151.082L464.025 145.099L480.436 190.88L491.815 186.821L475.404 141.041Z" fill="white"/>
<path d="M475.404 141.041L491.551 135.211L488.144 125.755L443.881 141.616L447.285 151.082L464.025 145.099L480.436 190.88L491.815 186.821L475.404 141.041Z" stroke="white" stroke-width="1.19179" stroke-miterlimit="10"/>
<path d="M546.861 161.014L552.937 171.823L565.061 169.399L533.727 115.974L520.647 118.589L511.753 180.105L523.805 177.675L525.339 165.304L546.861 161.014ZM541.652 151.836L526.685 154.824L529.676 130.876L541.652 151.836Z" fill="white"/>
<path d="M546.861 161.014L552.937 171.823L565.061 169.399L533.727 115.974L520.647 118.589L511.753 180.105L523.805 177.675L525.339 165.304L546.861 161.014ZM541.652 151.836L526.685 154.824L529.676 130.876L541.652 151.836Z" stroke="white" stroke-width="1.18868" stroke-miterlimit="10"/>
<path d="M596.43 117.4L613.657 116.602L613.199 106.493L565.97 108.633L566.428 118.743L584.301 117.933L586.483 166.788L598.599 166.212L596.43 117.4Z" fill="white"/>
<path d="M596.43 117.4L613.657 116.602L613.199 106.493L565.97 108.633L566.428 118.743L584.301 117.933L586.483 166.788L598.599 166.212L596.43 117.4Z" stroke="white" stroke-width="1.19801" stroke-miterlimit="10"/>
<path d="M645.933 138.356L674.066 141.033L675.007 130.959L646.906 128.283L648.155 114.992L678.538 117.867L679.493 107.796L637.038 103.776L631.425 162.485L675.336 166.682L676.292 156.612L644.469 153.604L645.933 138.356Z" fill="white"/>
<path d="M645.933 138.356L674.066 141.033L675.007 130.959L646.906 128.283L648.155 114.992L678.538 117.867L679.493 107.796L637.038 103.776L631.425 162.485L675.336 166.682L676.292 156.612L644.469 153.604L645.933 138.356Z" stroke="white" stroke-width="1.19801" stroke-miterlimit="10"/>
<path d="M704.631 152.346L711.995 147.78L724.238 177.566L738.174 181.075L721.316 142.434L750.143 123.744L736.393 120.24L707.886 139.502L714.197 114.601L702.537 111.642L688.124 168.376L699.802 171.336L704.631 152.346Z" fill="white"/>
<path d="M704.631 152.346L711.995 147.78L724.238 177.566L738.174 181.075L721.316 142.434L750.143 123.744L736.393 120.24L707.886 139.502L714.197 114.601L702.537 111.642L688.124 168.376L699.802 171.336L704.631 152.346Z" stroke="white" stroke-width="1.18868" stroke-miterlimit="10"/>
<path d="M784.453 202.724L795.593 207.494L818.772 153.323L807.606 148.552L791.878 185.427L786.146 139.385L774.685 134.507L751.55 188.679L762.691 193.41L778.715 155.954L784.453 202.724Z" fill="white"/>
<path d="M784.453 202.724L795.593 207.494L818.772 153.323L807.606 148.552L791.878 185.427L786.146 139.385L774.685 134.507L751.55 188.679L762.691 193.41L778.715 155.954L784.453 202.724Z" stroke="white" stroke-width="1.19616" stroke-miterlimit="10"/>
<path d="M852.315 171.703L841.932 165.38L811.188 215.813L821.588 222.136L852.315 171.703Z" fill="white"/>
<path d="M852.315 171.703L841.932 165.38L811.188 215.813L821.588 222.136L852.315 171.703Z" stroke="white" stroke-width="1.1992" stroke-miterlimit="10"/>
<path d="M858.058 219.944L866.732 218.624L866.218 251.074L877.7 259.916L877.49 217.382L911.643 211.6L900.252 202.857L866.224 209.357L882.001 188.832L872.356 181.437L836.438 228.231L846.066 235.586L858.058 219.944Z" fill="white"/>
<path d="M858.058 219.944L866.732 218.624L866.218 251.074L877.7 259.916L877.49 217.382L911.643 211.6L900.252 202.857L866.224 209.357L882.001 188.832L872.356 181.437L836.438 228.231L846.066 235.586L858.058 219.944Z" stroke="white" stroke-width="1.19759" stroke-miterlimit="10"/>
<path d="M1006.54 331.828L984.015 336.541L972.466 316.307L969.584 339.794L946.553 344.537L967.754 353.909L965.064 377.049L980.93 359.685L1002.5 368.956L990.926 348.678L1006.54 331.828Z" stroke="white" stroke-width="1.20105" stroke-miterlimit="10"/>
<path d="M991.065 348.641L1002.68 368.963L981.067 359.72L965.175 377.126L967.866 353.944L946.576 344.569L969.697 339.799L972.509 316.243L984.125 336.518L1006.68 331.763L991.065 348.641Z" fill="white"/>
<path d="M229.247 337.283L245.081 353.742L234.133 374.077L255.405 364.127L271.551 381.057L268.259 358.257L289.124 348.337L266.178 344.111L262.639 321.093L251.659 341.542L229.247 337.283Z" stroke="white" stroke-width="1.19186" stroke-miterlimit="10"/>
<path d="M251.616 341.706L262.552 321.303L266.079 344.249L289.013 348.406L268.19 358.324L271.512 381.056L255.392 364.238L234.19 374.176L245.081 353.882L229.274 337.453L251.616 341.706Z" fill="white"/>
<path d="M507.182 655.905C505.959 655.905 504.968 656.896 504.968 658.119V662.188C504.968 663.392 505.944 664.369 507.149 664.369H514.848C517.021 664.369 518.782 666.13 518.782 668.303C518.782 670.476 517.021 672.237 514.848 672.237H507.149C505.944 672.237 504.968 673.214 504.968 674.418V679.203C504.968 680.426 505.959 681.417 507.182 681.417H516.509C518.764 681.417 520.592 683.245 520.592 685.5C520.592 687.755 518.764 689.583 516.509 689.583H506.46C499.939 689.583 494.652 684.296 494.652 677.775V659.547C494.652 653.025 499.939 647.738 506.46 647.738H516.509C518.764 647.738 520.592 649.566 520.592 651.822C520.592 654.077 518.764 655.905 516.509 655.905H507.182Z" fill="white"/>
<path d="M542.612 690C539.515 690 536.74 689.504 534.287 688.51C531.834 687.517 529.863 686.046 528.375 684.099C527.561 683.005 526.964 681.785 526.582 680.44C526.071 678.639 527.63 677.065 529.503 677.065H534.068C535.769 677.065 537.045 678.472 538.013 679.871C538.21 680.155 538.436 680.412 538.691 680.642C539.616 681.437 540.822 681.834 542.31 681.834C543.838 681.834 545.045 681.496 545.93 680.821C546.814 680.105 547.257 679.132 547.257 677.9C547.257 676.867 546.895 676.012 546.171 675.337C545.487 674.661 544.623 674.105 543.577 673.668C542.572 673.231 541.124 672.734 539.234 672.178C536.499 671.343 534.267 670.509 532.537 669.674C530.808 668.84 529.32 667.608 528.073 665.978C526.827 664.349 526.203 662.223 526.203 659.6C526.203 655.706 527.631 652.666 530.486 650.48C533.342 648.255 537.062 647.142 541.647 647.142C546.312 647.142 550.072 648.255 552.927 650.48C554.889 651.982 556.224 653.896 556.933 656.222C557.487 658.04 555.918 659.66 554.017 659.66H549.481C547.724 659.66 546.421 658.087 545.197 656.825C545.087 656.711 544.97 656.603 544.844 656.501C543.919 655.706 542.732 655.309 541.285 655.309C540.038 655.309 539.033 655.646 538.268 656.322C537.504 656.958 537.122 657.892 537.122 659.123C537.122 660.475 537.766 661.528 539.053 662.283C540.34 663.038 542.35 663.852 545.085 664.727C547.82 665.641 550.032 666.515 551.721 667.349C553.45 668.184 554.938 669.396 556.185 670.985C557.432 672.575 558.055 674.621 558.055 677.125C558.055 679.509 557.432 681.675 556.185 683.622C554.979 685.569 553.209 687.119 550.876 688.272C548.544 689.424 545.789 690 542.612 690Z" fill="white"/>
<path d="M590.785 647.738C593.04 647.738 594.868 649.566 594.868 651.822C594.868 654.077 593.04 655.905 590.785 655.905H583.647V684.425C583.647 687.274 581.338 689.583 578.489 689.583C575.641 689.583 573.332 687.274 573.332 684.425V655.905H566.194C563.939 655.905 562.111 654.077 562.111 651.822C562.111 649.566 563.939 647.738 566.194 647.738H590.785Z" fill="white"/>
<path d="M611.441 683.858C611.441 682.328 614.589 679.085 613.311 679.927C617.253 676.708 620.349 674.065 622.601 671.999C624.894 669.932 626.824 667.767 628.393 665.502C629.961 663.236 630.745 661.031 630.745 658.885C630.745 657.256 630.363 655.984 629.599 655.07C628.835 654.156 627.689 653.699 626.161 653.699C624.632 653.699 623.426 654.275 622.541 655.428C622.52 655.455 622.5 655.483 622.48 655.51C620.885 657.709 619.073 660.196 616.357 660.196C613.595 660.196 611.27 657.881 612.011 655.221C612.368 653.939 612.862 652.777 613.492 651.732C614.9 649.467 616.73 647.798 618.982 646.725C621.274 645.652 623.808 645.116 626.583 645.116C631.369 645.116 634.968 646.328 637.381 648.752C639.834 651.176 641.061 654.335 641.061 658.229C641.061 662.481 639.593 666.435 636.657 670.091C633.721 673.708 629.981 677.244 625.437 680.701H637.582C639.87 680.701 641.725 682.556 641.725 684.844C641.725 687.132 639.87 688.987 637.582 688.987H616.534C613.721 688.987 611.441 686.671 611.441 683.858Z" fill="white"/>
<path d="M646.266 667.23C646.266 660.395 647.594 655.011 650.248 651.076C652.942 647.142 657.266 645.175 663.218 645.175C669.17 645.175 673.473 647.142 676.128 651.076C678.822 655.011 680.169 660.395 680.169 667.23C680.169 674.145 678.822 679.569 676.128 683.503C673.473 687.437 669.17 689.404 663.218 689.404C657.266 689.404 652.942 687.437 650.248 683.503C647.594 679.569 646.266 674.145 646.266 667.23ZM670.035 667.23C670.035 663.217 669.592 660.137 668.708 657.991C667.823 655.805 665.993 654.713 663.218 654.713C660.443 654.713 658.613 655.805 657.728 657.991C656.844 660.137 656.401 663.217 656.401 667.23C656.401 669.932 656.562 672.178 656.884 673.966C657.205 675.714 657.849 677.145 658.814 678.258C659.82 679.33 661.287 679.867 663.218 679.867C665.148 679.867 666.596 679.33 667.561 678.258C668.567 677.145 669.23 675.714 669.552 673.966C669.874 672.178 670.035 669.932 670.035 667.23Z" fill="white"/>
<path d="M685.257 683.858C685.257 682.328 688.406 679.085 687.128 679.927C691.069 676.708 694.165 674.065 696.418 671.999C698.71 669.932 700.64 667.767 702.209 665.502C703.777 663.236 704.562 661.031 704.562 658.885C704.562 657.256 704.179 655.984 703.415 655.07C702.651 654.156 701.505 653.699 699.977 653.699C698.449 653.699 697.242 654.275 696.357 655.428C696.337 655.455 696.316 655.483 696.296 655.51C694.702 657.709 692.889 660.196 690.173 660.196C687.411 660.196 685.086 657.881 685.827 655.221C686.184 653.939 686.678 652.777 687.308 651.732C688.716 649.467 690.546 647.798 692.798 646.725C695.09 645.652 697.624 645.116 700.399 645.116C705.185 645.116 708.784 646.328 711.197 648.752C713.651 651.176 714.877 654.335 714.877 658.229C714.877 662.481 713.409 666.435 710.473 670.091C707.538 673.708 703.797 677.244 699.253 680.701H711.398C713.686 680.701 715.541 682.556 715.541 684.844C715.541 687.132 713.686 688.987 711.398 688.987H690.35C687.538 688.987 685.257 686.671 685.257 683.858Z" fill="white"/>
<path d="M720.083 667.23C720.083 660.395 721.41 655.011 724.064 651.076C726.759 647.142 731.082 645.175 737.034 645.175C742.986 645.175 747.289 647.142 749.944 651.076C752.638 655.011 753.986 660.395 753.986 667.23C753.986 674.145 752.638 679.569 749.944 683.503C747.289 687.437 742.986 689.404 737.034 689.404C731.082 689.404 726.759 687.437 724.064 683.503C721.41 679.569 720.083 674.145 720.083 667.23ZM743.851 667.23C743.851 663.217 743.408 660.137 742.524 657.991C741.639 655.805 739.809 654.713 737.034 654.713C734.259 654.713 732.429 655.805 731.544 657.991C730.66 660.137 730.217 663.217 730.217 667.23C730.217 669.932 730.378 672.178 730.7 673.966C731.022 675.714 731.665 677.145 732.63 678.258C733.636 679.33 735.104 679.867 737.034 679.867C738.964 679.867 740.412 679.33 741.378 678.258C742.383 677.145 743.046 675.714 743.368 673.966C743.69 672.178 743.851 669.932 743.851 667.23Z" fill="white"/>
<path fill-rule="evenodd" clip-rule="evenodd" d="M378.82 480.472C389.474 474.824 401.924 472 416.172 472H449.096C458.878 472 466.809 479.931 466.809 489.714V589.447C466.809 599.23 458.878 607.161 449.096 607.161H416.172C402.053 607.161 389.666 604.337 379.013 598.689C368.231 593.041 359.952 585.083 354.176 574.815C348.271 564.546 345.319 552.801 345.319 539.581C345.319 526.231 348.271 514.487 354.176 504.346C359.952 494.078 368.166 486.12 378.82 480.472ZM389.217 568.461C396.148 575.264 405.839 578.665 418.29 578.665H429.65C431.989 578.665 433.885 576.769 433.885 574.43V504.346C433.885 502.007 431.989 500.111 429.65 500.111H418.29C405.839 500.111 396.148 503.576 389.217 510.508C382.286 517.439 378.82 527.13 378.82 539.581C378.82 552.031 382.286 561.658 389.217 568.461ZM566.272 603.517C568.019 605.813 570.739 607.161 573.625 607.161H590.241C597.958 607.161 602.276 598.262 597.501 592.2L554.99 538.233L595.52 486.974C600.312 480.915 595.996 472 588.271 472H573.245C570.357 472 567.634 473.351 565.887 475.651L523.607 531.302V481.242C523.607 476.138 519.469 472 514.365 472H499.925C494.821 472 490.683 476.138 490.683 481.242V597.919C490.683 603.023 494.821 607.161 499.925 607.161H514.365C519.469 607.161 523.607 603.023 523.607 597.919V547.475L566.272 603.517ZM655.967 592.143C655.415 593.11 654.949 594.14 654.582 595.223L654.24 596.235C652.028 602.766 645.899 607.161 639.003 607.161C627.851 607.161 620.082 596.088 623.876 585.6L658.494 489.924C662.386 479.167 672.601 472 684.04 472C695.48 472 705.695 479.167 709.587 489.924L744.117 585.359C747.954 595.964 740.099 607.161 728.821 607.161C721.849 607.161 715.651 602.717 713.415 596.112L713.113 595.223C712.746 594.14 712.281 593.11 711.728 592.143H712.1L696.504 545.934L695.558 543.139C695.472 542.782 695.369 542.424 695.249 542.067C695.123 541.696 694.984 541.338 694.832 540.992L683.797 508.39L655.687 592.143H655.967ZM842.478 603.517C844.226 605.813 846.945 607.161 849.831 607.161H866.447C874.164 607.161 878.482 598.262 873.707 592.2L831.196 538.233L871.727 486.974C876.518 480.915 872.202 472 864.477 472H849.452C846.563 472 843.84 473.351 842.093 475.651L799.813 531.302V481.242C799.813 476.138 795.675 472 790.571 472H776.131C771.027 472 766.89 476.138 766.89 481.242V597.919C766.89 603.023 771.027 607.161 776.131 607.161H790.571C795.675 607.161 799.813 603.023 799.813 597.919V547.475L842.478 603.517Z" fill="white"/>
</svg>
