<svg width="1006" height="1005" viewBox="0 0 1006 1005" fill="none" xmlns="http://www.w3.org/2000/svg">
<path d="M13.2451 491.922C20.3223 220.622 245.186 6.89718 513.584 12.7927C785.118 20.5912 998.832 245.439 992.622 516.762C985.138 785.345 760.301 999.057 488.744 992.169C220.37 985.362 6.6289 760.528 13.2451 491.922Z" fill="#080808" stroke="url(#paint0_linear_38_556)" stroke-width="10.623" stroke-miterlimit="3.86"/>
<path d="M92.8417 452.603C97.9094 452.943 101.247 452.396 104.874 450.384C111.414 446.835 115.748 440.142 117.022 431.412C119.428 415.038 109.214 403.098 90.4235 400.335C71.7727 397.589 58.5878 406.021 56.2016 422.158C54.0827 436.589 61.0289 447.449 74.226 450.142L75.9517 438.504C68.6494 436.704 65.0968 431.358 66.1961 423.952C67.5517 414.731 75.8374 410.386 88.5089 412.247C101.333 414.159 108.158 420.949 106.771 430.312C106.16 434.475 104.228 437.678 101.111 439.491C99.331 440.569 97.7229 440.948 94.5049 441.219L92.8417 452.603Z" fill="white"/>
<path d="M92.8417 452.603C97.9094 452.943 101.247 452.396 104.874 450.384C111.414 446.835 115.748 440.142 117.022 431.412C119.428 415.038 109.214 403.098 90.4235 400.335C71.7727 397.589 58.5878 406.021 56.2016 422.158C54.0827 436.589 61.0289 447.449 74.226 450.142L75.9517 438.504C68.6494 436.704 65.0968 431.358 66.1961 423.952C67.5517 414.731 75.8374 410.386 88.5089 412.247C101.333 414.159 108.158 420.949 106.771 430.312C106.16 434.475 104.228 437.678 101.111 439.491C99.331 440.569 97.7229 440.948 94.5049 441.219L92.8417 452.603Z" stroke="white" stroke-width="1.19179" stroke-miterlimit="10"/>
<path d="M80.1031 498.123L53.3797 497.977L53.3248 510.091L112.198 510.407L112.254 498.224L90.2 498.099L90.3413 474.837L112.395 474.976L112.451 462.848L53.5772 462.546L53.495 474.631L80.2461 474.793L80.1031 498.123Z" fill="white"/>
<path d="M80.1031 498.123L53.3797 497.977L53.3248 510.091L112.198 510.407L112.254 498.224L90.2 498.099L90.3413 474.837L112.395 474.976L112.451 462.848L53.5772 462.546L53.495 474.631L80.2461 474.793L80.1031 498.123Z" stroke="white" stroke-width="1.19532" stroke-miterlimit="10"/>
<path d="M69.2137 560.232L57.9423 565.654L59.6207 577.992L115.373 549.861L113.566 536.537L52.2473 523.706L53.9134 535.961L66.2363 538.309L69.2137 560.232ZM78.7973 555.568L76.7302 540.327L100.637 544.817L78.7973 555.568Z" fill="white"/>
<path d="M69.2137 560.232L57.9423 565.654L59.6207 577.992L115.373 549.861L113.566 536.537L52.2473 523.706L53.9134 535.961L66.2363 538.309L69.2137 560.232ZM78.7973 555.568L76.7302 540.327L100.637 544.817L78.7973 555.568Z" stroke="white" stroke-width="1.19849" stroke-miterlimit="10"/>
<path d="M122.936 590.763L120.081 578.909L62.6156 592.766L72.1066 632.103L81.9412 629.714L75.319 602.203L122.936 590.763Z" fill="white"/>
<path d="M122.936 590.763L120.081 578.909L62.6156 592.766L72.1066 632.103L81.9412 629.714L75.319 602.203L122.936 590.763Z" stroke="white" stroke-width="1.20015" stroke-miterlimit="10"/>
<path d="M123.097 640.043L84.3494 666.698L88.7758 677.946L135.231 670.824L92.597 687.62L97.051 698.88L151.754 677.299L145.075 660.344L97.7385 667.91L137.38 640.825L130.739 624.014L76.0365 645.58L80.4622 656.857L123.097 640.043Z" fill="white"/>
<path d="M123.097 640.043L84.3494 666.698L88.7758 677.946L135.231 670.824L92.597 687.62L97.051 698.88L151.754 677.299L145.075 660.344L97.7385 667.91L137.38 640.825L130.739 624.014L76.0365 645.58L80.4622 656.857L123.097 640.043Z" stroke="white" stroke-width="1.1942" stroke-miterlimit="10"/>
<path d="M136.088 707.954L151.274 731.774L159.784 726.311L144.597 702.534L155.844 695.345L172.244 721.044L180.767 715.625L157.839 679.69L108.165 711.425L131.861 748.556L140.399 743.093L123.203 716.182L136.088 707.954Z" fill="white"/>
<path d="M136.088 707.954L151.274 731.774L159.784 726.311L144.597 702.534L155.844 695.345L172.244 721.044L180.767 715.625L157.839 679.69L108.165 711.425L131.861 748.556L140.399 743.093L123.203 716.182L136.088 707.954Z" stroke="white" stroke-width="1.19659" stroke-miterlimit="10"/>
<path d="M165.634 757.619L174.104 768.675C177.306 772.853 177.02 775.929 173.087 778.913C172.715 779.212 172.071 779.731 171.173 780.311C169.917 781.148 168.744 782.069 168.057 782.616C163.696 785.941 162.47 787.27 161.147 790.223L169.088 800.591L170.819 799.217C170.522 797.106 171.047 795.787 173.105 794.242C186.717 783.398 187.156 782.637 185.157 774.703C191.245 778.393 197.056 778.121 202.779 773.707C206.499 770.858 208.924 766.949 209.518 762.94C210.076 759.17 208.84 755.42 205.786 751.419L186.524 726.318L139.687 762.22L147.072 771.831L165.634 757.619ZM173.671 751.444L185.868 742.118L194.789 753.732C196.905 756.478 197.532 757.825 197.454 759.733C197.377 761.652 196.226 763.446 194.037 765.099C191.793 766.837 189.487 767.594 187.687 767.225C185.997 766.902 184.692 765.86 182.59 763.1L173.671 751.444Z" fill="white"/>
<path d="M165.634 757.619L174.104 768.675C177.306 772.853 177.02 775.929 173.087 778.913C172.715 779.212 172.071 779.731 171.173 780.311C169.917 781.148 168.744 782.069 168.057 782.616C163.696 785.941 162.47 787.27 161.147 790.223L169.088 800.591L170.819 799.217C170.522 797.106 171.047 795.787 173.105 794.242C186.717 783.398 187.156 782.637 185.157 774.703C191.245 778.393 197.056 778.121 202.779 773.707C206.499 770.858 208.924 766.949 209.518 762.94C210.076 759.17 208.84 755.42 205.786 751.419L186.524 726.318L139.687 762.22L147.072 771.831L165.634 757.619ZM173.671 751.444L185.868 742.118L194.789 753.732C196.905 756.478 197.532 757.825 197.454 759.733C197.377 761.652 196.226 763.446 194.037 765.099C191.793 766.837 189.487 767.594 187.687 767.225C185.997 766.902 184.692 765.86 182.59 763.1L173.671 751.444Z" stroke="white" stroke-width="1.19825" stroke-miterlimit="10"/>
<path d="M241.129 812.539C244.861 808.639 246.433 805.243 246.544 800.898C246.693 795.011 243.569 788.833 237.449 782.999C227.245 773.273 216.781 772.405 208.899 780.731C202.604 787.302 202.862 793.691 209.961 803.546L214.791 810.399C219.572 817.069 220.183 820.744 216.911 824.195C213.497 827.754 208.179 826.806 202.865 821.736C196.924 816.088 195.974 810.385 200.023 805.581L191.491 797.442C183.354 807.05 184.872 817.942 195.731 828.286C206.698 838.772 218.073 839.79 226.298 831.164C232.693 824.455 232.655 817.723 226.222 808.683L220.793 801.085C215.701 793.902 215.062 790.957 218.002 787.833C221.07 784.644 225.863 785.325 230.367 789.618C235.912 794.878 236.773 800.159 232.969 804.761L241.129 812.539Z" fill="white"/>
<path d="M241.129 812.539C244.861 808.639 246.433 805.243 246.544 800.898C246.693 795.011 243.569 788.833 237.449 782.999C227.245 773.273 216.781 772.405 208.899 780.731C202.604 787.302 202.862 793.691 209.961 803.546L214.791 810.399C219.572 817.069 220.183 820.744 216.911 824.195C213.497 827.754 208.179 826.806 202.865 821.736C196.924 816.088 195.974 810.385 200.023 805.581L191.491 797.442C183.354 807.05 184.872 817.942 195.731 828.286C206.698 838.772 218.073 839.79 226.298 831.164C232.693 824.455 232.655 817.723 226.222 808.683L220.793 801.085C215.701 793.902 215.062 790.957 218.002 787.833C221.07 784.644 225.863 785.325 230.367 789.618C235.912 794.878 236.773 800.159 232.969 804.761L241.129 812.539Z" stroke="white" stroke-width="1.19299" stroke-miterlimit="10"/>
<path d="M318.52 852.435L333.975 860.049L338.456 850.978L296.061 830.102L291.581 839.174L307.636 847.069L286.036 890.917L296.921 896.269L318.52 852.435Z" fill="white"/>
<path d="M318.52 852.435L333.975 860.049L338.456 850.978L296.061 830.102L291.581 839.174L307.636 847.069L286.036 890.917L296.921 896.269L318.52 852.435Z" stroke="white" stroke-width="1.19778" stroke-miterlimit="10"/>
<path d="M348.531 891.647L375.06 901.659L378.637 892.13L352.106 882.174L356.828 869.646L385.471 880.398L389.032 870.911L348.99 855.845L328.16 911.267L369.568 926.831L373.162 917.316L343.115 906.023L348.531 891.647Z" fill="white"/>
<path d="M348.531 891.647L375.06 901.659L378.637 892.13L352.106 882.174L356.828 869.646L385.471 880.398L389.032 870.911L348.99 855.845L328.16 911.267L369.568 926.831L373.162 917.316L343.115 906.023L348.531 891.647Z" stroke="white" stroke-width="1.20188" stroke-miterlimit="10"/>
<path d="M400.474 916.285L407.61 911.319L421.372 940.415L435.465 943.254L416.636 905.476L444.505 885.331L430.554 882.551L403.09 903.281L408.106 878.056L396.301 875.723L384.832 933.136L396.637 935.497L400.474 916.285Z" fill="white"/>
<path d="M400.474 916.285L407.61 911.319L421.372 940.415L435.465 943.254L416.636 905.476L444.505 885.331L430.554 882.551L403.09 903.281L408.106 878.056L396.301 875.723L384.832 933.136L396.637 935.497L400.474 916.285Z" stroke="white" stroke-width="1.18868" stroke-miterlimit="10"/>
<path d="M480.928 946.552L493.055 947.238L496.285 888.425L484.2 887.768L481.965 927.746L460.885 886.475L448.453 885.781L445.206 944.595L457.305 945.238L459.542 904.601L480.928 946.552Z" fill="white"/>
<path d="M480.928 946.552L493.055 947.238L496.285 888.425L484.2 887.768L481.965 927.746L460.885 886.475L448.453 885.781L445.206 944.595L457.305 945.238L459.542 904.601L480.928 946.552Z" stroke="white" stroke-width="1.19563" stroke-miterlimit="10"/>
<path d="M522.373 889.856L510.257 890.432L512.869 949.352L525.013 948.819L522.373 889.856Z" fill="white"/>
<path d="M522.373 889.856L510.257 890.432L512.869 949.352L525.013 948.819L522.373 889.856Z" stroke="white" stroke-width="1.19801" stroke-miterlimit="10"/>
<path d="M578.851 899.309C578.077 894.002 576.366 890.692 573.04 887.943C568.507 884.224 561.742 882.861 553.393 884.093C539.502 886.153 532.437 893.827 534.114 905.129C535.426 914.095 540.591 917.802 552.666 918.29L560.999 918.67C569.211 919.019 572.461 920.812 573.139 925.498C573.86 930.355 569.842 933.927 562.634 935.02C554.498 936.202 549.492 933.452 548.176 927.319L536.548 929.016C539.126 941.323 548.618 946.822 563.399 944.645C578.321 942.429 586.102 934.143 584.368 922.39C583.013 913.24 577.718 909.166 566.695 908.676L557.379 908.271C548.627 907.839 545.924 906.537 545.288 902.314C544.627 897.95 548.123 894.603 554.244 893.707C561.804 892.608 566.478 895.153 567.73 900.962L578.851 899.309Z" fill="white"/>
<path d="M578.851 899.309C578.077 894.002 576.366 890.692 573.04 887.943C568.507 884.224 561.742 882.861 553.393 884.093C539.502 886.153 532.437 893.827 534.114 905.129C535.426 914.095 540.591 917.802 552.666 918.29L560.999 918.67C569.211 919.019 572.461 920.812 573.139 925.498C573.86 930.355 569.842 933.927 562.634 935.02C554.498 936.202 549.492 933.452 548.176 927.319L536.548 929.016C539.126 941.323 548.618 946.822 563.399 944.645C578.321 942.429 586.102 934.143 584.368 922.39C583.013 913.24 577.718 909.166 566.695 908.676L557.379 908.271C548.627 907.839 545.924 906.537 545.288 902.314C544.627 897.95 548.123 894.603 554.244 893.707C561.804 892.608 566.478 895.153 567.73 900.962L578.851 899.309Z" stroke="white" stroke-width="1.18868" stroke-miterlimit="10"/>
<path d="M605.865 916.979L609.849 909.213L635.747 928.59L649.593 924.454L615.135 899.826L630.391 868.83L616.686 872.9L602.053 904.22L594.643 879.492L583.057 882.942L599.9 939.292L611.472 935.842L605.865 916.979Z" fill="white"/>
<path d="M605.865 916.979L609.849 909.213L635.747 928.59L649.593 924.454L615.135 899.826L630.391 868.83L616.686 872.9L602.053 904.22L594.643 879.492L583.057 882.942L599.9 939.292L611.472 935.842L605.865 916.979Z" stroke="white" stroke-width="1.19425" stroke-miterlimit="10"/>
<path d="M691.181 893.435L699.643 902.624L710.992 897.443L667.896 852.319L655.696 857.899L661.194 920.229L672.432 915.088L671.107 902.644L691.181 893.435ZM683.949 885.609L669.973 892.014L667.361 867.871L683.949 885.609Z" fill="white"/>
<path d="M691.181 893.435L699.643 902.624L710.992 897.443L667.896 852.319L655.696 857.899L661.194 920.229L672.432 915.088L671.107 902.644L691.181 893.435ZM683.949 885.609L669.973 892.014L667.361 867.871L683.949 885.609Z" stroke="white" stroke-width="1.19723" stroke-miterlimit="10"/>
<path d="M780.382 819.978L796.941 840.968L806.472 833.47L769.953 787.179L760.366 794.761L774.045 812.074L755.773 826.505L742.076 809.188L732.577 816.705L769.083 862.95L778.596 855.437L762.023 834.445L780.382 819.978Z" fill="white"/>
<path d="M780.382 819.978L796.941 840.968L806.472 833.47L769.953 787.179L760.366 794.761L774.045 812.074L755.773 826.505L742.076 809.188L732.577 816.705L769.083 862.95L778.596 855.437L762.023 834.445L780.382 819.978Z" stroke="white" stroke-width="1.19659" stroke-miterlimit="10"/>
<path d="M781.906 752.707L775.783 759.143L782.902 765.914L789.024 759.504L781.906 752.707ZM792.236 741.848L786.11 748.298L793.247 755.07L799.368 748.663L792.236 741.848ZM794.534 760.641C788.845 766.582 786.192 773.357 786.62 780.687C787.1 788.385 791.011 796.224 797.377 802.291C803.728 808.339 811.787 811.897 819.428 811.965C826.928 812.069 833.41 809.121 839.172 803.028C844.98 796.975 847.585 790.339 847.117 782.897C846.717 775.481 842.716 767.316 836.676 761.599C830.038 755.26 822.035 751.761 814.324 751.634C806.755 751.557 800.369 754.507 794.534 760.641ZM802.066 767.703C808.912 760.5 819.053 761.5 828.296 770.289C836.989 778.572 838.367 788.914 831.71 795.925C824.968 802.991 814.632 802.054 805.69 793.556C796.792 785.013 795.325 774.755 802.066 767.703Z" fill="white"/>
<path d="M781.906 752.707L775.783 759.143L782.902 765.914L789.024 759.504L781.906 752.707ZM792.236 741.848L786.11 748.298L793.247 755.07L799.368 748.663L792.236 741.848ZM794.534 760.641C788.845 766.582 786.192 773.357 786.62 780.687C787.1 788.385 791.011 796.224 797.377 802.291C803.728 808.339 811.787 811.897 819.428 811.965C826.928 812.069 833.41 809.121 839.172 803.028C844.98 796.975 847.585 790.339 847.117 782.897C846.717 775.481 842.716 767.316 836.676 761.599C830.038 755.26 822.035 751.761 814.324 751.634C806.755 751.557 800.369 754.507 794.534 760.641V760.641ZM802.066 767.703C808.912 760.5 819.053 761.5 828.296 770.289C836.989 778.572 838.367 788.914 831.71 795.925C824.968 802.991 814.632 802.054 805.69 793.556C796.792 785.013 795.325 774.755 802.066 767.703Z" stroke="white" stroke-width="1.19299" stroke-miterlimit="10"/>
<path d="M866.85 709.819L854.516 730.051L863.188 735.318L870.182 723.814C872.852 725.817 874.14 727.558 875.028 730.176C876.573 734.52 876.057 739.428 873.598 743.419C868.477 751.815 857.5 753.36 847.117 747.041C836.25 740.411 832.896 731.114 838.278 722.305C840.473 718.714 843.338 716.306 846.761 715.226C848.878 714.536 850.535 714.481 853.701 715.194L859.628 705.414C848.509 700.379 836.801 704.807 829.37 717C820.515 731.529 825.218 747.957 840.918 757.498C856.222 766.832 873.451 763.651 881.748 750.023C885.873 743.213 886.252 737.192 882.916 729.859L890.32 732.625L894.081 726.424L866.85 709.819Z" fill="white"/>
<path d="M866.85 709.819L854.516 730.051L863.188 735.318L870.182 723.814C872.852 725.817 874.14 727.558 875.028 730.176C876.573 734.52 876.057 739.428 873.598 743.419C868.477 751.815 857.5 753.36 847.117 747.041C836.25 740.411 832.896 731.114 838.278 722.305C840.473 718.714 843.338 716.306 846.761 715.226C848.878 714.536 850.535 714.481 853.701 715.194L859.628 705.414C848.509 700.379 836.801 704.807 829.37 717C820.515 731.529 825.218 747.957 840.918 757.498C856.222 766.832 873.451 763.651 881.748 750.023C885.873 743.213 886.252 737.192 882.916 729.859L890.32 732.625L894.081 726.424L866.85 709.819Z" stroke="white" stroke-width="1.1992" stroke-miterlimit="10"/>
<path d="M882.733 653.176C877.883 650.77 874.14 650.295 869.942 651.477C864.294 653.104 859.289 657.938 855.52 665.571C849.282 678.272 851.616 688.54 861.934 693.623C870.131 697.661 876.145 695.498 883.476 685.73L888.595 679.057C893.529 672.494 896.911 670.785 901.161 672.9C905.594 675.073 906.297 680.461 903.046 687.066C899.379 694.476 894.237 697.081 888.383 694.66L883.164 705.24C894.817 710.163 904.78 705.45 911.476 691.95C918.159 678.292 915.75 667.099 905.018 661.804C896.683 657.694 890.234 659.749 883.533 668.622L877.829 676.12C872.506 683.136 869.873 684.613 866.023 682.735C862.005 680.766 861.219 675.936 863.996 670.37C867.394 663.489 872.198 661.044 877.733 663.331L882.733 653.176Z" fill="white"/>
<path d="M882.733 653.176C877.883 650.77 874.14 650.295 869.942 651.477C864.294 653.104 859.289 657.938 855.52 665.571C849.282 678.272 851.616 688.54 861.934 693.623C870.131 697.661 876.145 695.498 883.476 685.73L888.595 679.057C893.529 672.494 896.911 670.785 901.161 672.9C905.594 675.073 906.297 680.461 903.046 687.066C899.379 694.476 894.237 697.081 888.383 694.66L883.164 705.24C894.817 710.163 904.78 705.45 911.476 691.95C918.159 678.292 915.75 667.099 905.018 661.804C896.683 657.694 890.234 659.749 883.533 668.622L877.829 676.12C872.506 683.136 869.873 684.613 866.023 682.735C862.005 680.766 861.219 675.936 863.996 670.37C867.394 663.489 872.198 661.044 877.733 663.331L882.733 653.176Z" stroke="white" stroke-width="1.19778" stroke-miterlimit="10"/>
<path d="M911.156 635.388L907.003 627.711L937.628 617.241L942.015 603.471L902.198 618.026L885.181 587.936L880.854 601.553L898.454 631.307L873.834 623.46L870.148 635.019L926.248 652.905L929.89 641.359L911.156 635.388Z" fill="white"/>
<path d="M911.156 635.388L907.003 627.711L937.628 617.241L942.015 603.471L902.198 618.026L885.181 587.936L880.854 601.553L898.454 631.307L873.834 623.46L870.148 635.019L926.248 652.905L929.89 641.359L911.156 635.388Z" stroke="white" stroke-width="1.19509" stroke-miterlimit="10"/>
<path d="M889.413 558.341C888.227 566.445 889.982 573.544 894.561 579.253C899.388 585.266 907.066 589.402 915.753 590.675C924.458 591.972 933.1 590.231 939.338 585.874C945.516 581.64 949.093 575.492 950.287 567.179C951.52 558.893 949.872 551.98 945.181 546.168C940.56 540.371 932.565 536.019 924.364 534.816C915.283 533.477 906.756 535.239 900.406 539.594C894.17 543.88 890.634 549.961 889.413 558.341ZM899.64 559.767C901.081 549.946 909.946 544.897 922.546 546.757C934.438 548.519 941.536 556.116 940.101 565.7C938.694 575.325 929.727 580.539 917.532 578.73C905.346 576.949 898.204 569.405 899.64 559.767Z" fill="white"/>
<path d="M889.413 558.341C888.227 566.445 889.982 573.544 894.561 579.253C899.388 585.266 907.066 589.402 915.753 590.675C924.458 591.972 933.1 590.231 939.338 585.874C945.516 581.64 949.093 575.492 950.287 567.179C951.52 558.893 949.872 551.98 945.181 546.168C940.56 540.371 932.565 536.019 924.364 534.816C915.283 533.477 906.756 535.239 900.406 539.594C894.17 543.88 890.634 549.961 889.413 558.341V558.341ZM899.64 559.767C901.081 549.946 909.946 544.897 922.546 546.757C934.438 548.519 941.536 556.116 940.101 565.7C938.694 575.325 929.727 580.539 917.532 578.73C905.346 576.949 898.204 569.405 899.64 559.767V559.767Z" stroke="white" stroke-width="1.19179" stroke-miterlimit="10"/>
<path d="M897.613 511.295L897.547 523.409L956.405 523.724L956.612 483.416L946.533 483.368L946.364 511.551L897.613 511.295Z" fill="white"/>
<path d="M897.613 511.295L897.547 523.409L956.405 523.724L956.612 483.416L946.533 483.368L946.364 511.551L897.613 511.295Z" stroke="white" stroke-width="1.19532" stroke-miterlimit="10"/>
<path d="M940.588 434.207L951.873 428.742L950.198 416.362L894.445 444.535L896.236 457.834L957.541 470.675L955.888 458.435L943.566 456.087L940.588 434.207ZM931.005 438.828L933.074 454.069L909.164 449.579L931.005 438.828Z" fill="white"/>
<path d="M940.588 434.207L951.873 428.742L950.198 416.362L894.445 444.535L896.236 457.834L957.541 470.675L955.888 458.435L943.566 456.087L940.588 434.207ZM931.005 438.828L933.074 454.069L909.164 449.579L931.005 438.828Z" stroke="white" stroke-width="1.19849" stroke-miterlimit="10"/>
<path d="M108.247 281.283L124.082 297.742L113.133 318.077L134.405 308.127L150.551 325.057L147.259 302.257L168.124 292.336L145.178 288.111L141.639 265.093L130.659 285.542L108.247 281.283Z" stroke="white" stroke-width="1.19186" stroke-miterlimit="10"/>
<path d="M130.616 285.706L141.552 265.302L145.079 288.248L168.013 292.405L147.19 302.324L150.512 325.056L134.392 308.238L113.19 318.175L124.081 297.882L108.274 281.452L130.616 285.706Z" fill="white"/>
<path d="M244.336 203.028L262.422 188.718C269.462 183.175 272.594 178.038 272.752 171.803C273.021 164.587 270.035 156.772 264.37 149.574C258.774 142.493 251.854 137.758 244.712 136.274C238.645 134.997 233.016 136.861 225.901 142.499L207.831 156.766L244.336 203.028ZM247.59 187.57L223.609 157.166L232.166 150.412C239.35 144.732 246.853 146.958 254.908 157.189C262.925 167.346 263.33 175.139 256.161 180.805L247.59 187.57Z" fill="white"/>
<path d="M244.336 203.028L262.422 188.718C269.462 183.175 272.594 178.038 272.752 171.803C273.021 164.587 270.035 156.772 264.37 149.574C258.774 142.493 251.854 137.758 244.712 136.274C238.645 134.997 233.016 136.861 225.901 142.499L207.831 156.766L244.336 203.028ZM247.59 187.57L223.609 157.166L232.166 150.412C239.35 144.732 246.853 146.958 254.908 157.189C262.925 167.346 263.33 175.139 256.161 180.805L247.59 187.57Z" stroke="white" stroke-width="1.19659" stroke-miterlimit="10"/>
<path d="M320.906 139.718L329.772 148.397L340.73 142.673L295.828 100.097L284.019 106.248L292.53 167.703L303.414 162.059L301.482 149.769L320.906 139.718ZM313.365 132.304L299.841 139.324L296.068 115.528L313.365 132.304Z" fill="white"/>
<path d="M320.906 139.718L329.772 148.397L340.73 142.673L295.828 100.097L284.019 106.248L292.53 167.703L303.414 162.059L301.482 149.769L320.906 139.718ZM313.365 132.304L299.841 139.324L296.068 115.528L313.365 132.304Z" stroke="white" stroke-width="1.18747" stroke-miterlimit="10"/>
<path d="M354.404 85.0399L370.551 79.2103L367.144 69.7545L322.881 85.6153L326.285 95.0818L343.025 89.0986L359.436 134.879L370.815 130.821L354.404 85.0399Z" fill="white"/>
<path d="M354.404 85.0399L370.551 79.2103L367.144 69.7545L322.881 85.6153L326.285 95.0819L343.025 89.0986L359.436 134.879L370.815 130.821L354.404 85.0399Z" stroke="white" stroke-width="1.19179" stroke-miterlimit="10"/>
<path d="M425.861 105.014L431.937 115.823L444.061 113.398L412.727 59.9733L399.647 62.5888L390.753 124.104L402.805 121.675L404.339 109.304L425.861 105.014ZM420.652 95.8355L405.685 98.8231L408.676 74.876L420.652 95.8355Z" fill="white"/>
<path d="M425.861 105.014L431.937 115.823L444.061 113.398L412.727 59.9733L399.647 62.5888L390.753 124.104L402.805 121.675L404.339 109.304L425.861 105.014ZM420.652 95.8355L405.685 98.8231L408.676 74.876L420.652 95.8355Z" stroke="white" stroke-width="1.18868" stroke-miterlimit="10"/>
<path d="M475.43 61.3998L492.657 60.6018L492.199 50.4921L444.97 52.6328L445.428 62.7425L463.301 61.9322L465.483 110.788L477.599 110.212L475.43 61.3998Z" fill="white"/>
<path d="M475.43 61.3998L492.657 60.6018L492.199 50.4921L444.97 52.6328L445.428 62.7425L463.301 61.9322L465.483 110.788L477.599 110.212L475.43 61.3998Z" stroke="white" stroke-width="1.19801" stroke-miterlimit="10"/>
<path d="M524.933 82.3555L553.066 85.0326L554.008 74.9584L525.906 72.282L527.155 58.9919L557.538 61.8661L558.494 51.7957L516.038 47.7753L510.425 106.484L554.336 110.682L555.292 100.611L523.469 97.6038L524.933 82.3555Z" fill="white"/>
<path d="M524.933 82.3555L553.066 85.0326L554.008 74.9584L525.906 72.282L527.155 58.9919L557.538 61.8661L558.494 51.7957L516.038 47.7753L510.425 106.484L554.336 110.682L555.292 100.611L523.469 97.6038L524.933 82.3555Z" stroke="white" stroke-width="1.19801" stroke-miterlimit="10"/>
<path d="M583.631 96.3453L590.995 91.7792L603.238 121.566L617.174 125.075L600.317 86.4335L629.143 67.7436L615.393 64.2394L586.886 83.5009L593.197 58.6005L581.537 55.6411L567.124 112.375L578.802 115.335L583.631 96.3453Z" fill="white"/>
<path d="M583.631 96.3453L590.995 91.7792L603.238 121.566L617.174 125.075L600.317 86.4335L629.143 67.7436L615.393 64.2394L586.886 83.5009L593.197 58.6005L581.537 55.6411L567.124 112.375L578.802 115.335L583.631 96.3453Z" stroke="white" stroke-width="1.18868" stroke-miterlimit="10"/>
<path d="M663.453 146.724L674.593 151.494L697.772 97.3224L686.606 92.552L670.878 129.426L665.146 83.3849L653.685 78.5065L630.55 132.679L641.691 137.409L657.714 99.9537L663.453 146.724Z" fill="white"/>
<path d="M663.453 146.724L674.593 151.494L697.772 97.3224L686.606 92.552L670.878 129.426L665.146 83.3849L653.685 78.5065L630.55 132.679L641.691 137.409L657.715 99.9537L663.453 146.724Z" stroke="white" stroke-width="1.19616" stroke-miterlimit="10"/>
<path d="M731.315 115.702L720.932 109.379L690.188 159.812L700.589 166.135L731.315 115.702Z" fill="white"/>
<path d="M731.315 115.702L720.932 109.379L690.188 159.812L700.589 166.135L731.315 115.702Z" stroke="white" stroke-width="1.1992" stroke-miterlimit="10"/>
<path d="M737.058 163.944L745.732 162.624L745.218 195.074L756.7 203.916L756.49 161.382L790.643 155.6L779.252 146.857L745.224 153.356L761.001 132.832L751.356 125.436L715.438 172.23L725.066 179.586L737.058 163.944Z" fill="white"/>
<path d="M737.058 163.944L745.732 162.624L745.218 195.074L756.7 203.916L756.49 161.382L790.643 155.6L779.252 146.857L745.224 153.356L761.001 132.832L751.356 125.436L715.438 172.23L725.066 179.586L737.058 163.944Z" stroke="white" stroke-width="1.19759" stroke-miterlimit="10"/>
<path d="M885.542 275.828L863.015 280.541L851.467 260.306L848.584 283.793L825.554 288.536L846.754 297.909L844.064 321.049L859.93 303.685L881.499 312.955L869.927 292.677L885.542 275.828Z" stroke="white" stroke-width="1.20105" stroke-miterlimit="10"/>
<path d="M870.065 292.641L881.68 312.963L860.067 303.72L844.175 321.126L846.866 297.943L825.576 288.569L848.697 283.799L851.509 260.242L863.125 280.518L885.682 275.763L870.065 292.641Z" fill="white"/>
<path d="M131.802 487.734C136.08 283.672 305.523 122.601 510.673 127.606C712.258 132.916 873.328 302.37 867.242 506.387C863.012 709.119 693.559 870.148 491.93 866.605C286.825 859.833 125.764 690.42 131.802 487.734Z" fill="#080808"/>
<path d="M131.802 487.734C136.08 283.672 305.523 122.601 510.673 127.606C712.257 132.916 873.328 302.37 867.242 506.387C863.012 709.119 693.559 870.148 491.93 866.605C286.825 859.833 125.764 690.42 131.802 487.734Z" stroke="#080808" stroke-width="0.663938" stroke-miterlimit="3.86"/>
<path d="M386.182 599.904C384.959 599.904 383.968 600.895 383.968 602.118V606.187C383.968 607.392 384.944 608.369 386.149 608.369H393.848C396.021 608.369 397.782 610.13 397.782 612.303C397.782 614.475 396.021 616.237 393.848 616.237H386.149C384.944 616.237 383.968 617.213 383.968 618.418V623.202C383.968 624.425 384.959 625.416 386.182 625.416H395.509C397.764 625.416 399.592 627.244 399.592 629.499C399.592 631.755 397.764 633.583 395.509 633.583H385.46C378.939 633.583 373.652 628.296 373.652 621.774V603.546C373.652 597.025 378.939 591.738 385.46 591.738H395.509C397.764 591.738 399.592 593.566 399.592 595.821C399.592 598.076 397.764 599.904 395.509 599.904H386.182Z" fill="white"/>
<path d="M421.612 634C418.515 634 415.74 633.503 413.287 632.51C410.834 631.516 408.863 630.046 407.375 628.099C406.561 627.004 405.964 625.785 405.582 624.439C405.071 622.638 406.63 621.065 408.503 621.065H413.068C414.769 621.065 416.044 622.472 417.013 623.871C417.21 624.155 417.436 624.412 417.691 624.641C418.616 625.436 419.822 625.834 421.31 625.834C422.838 625.834 424.045 625.496 424.93 624.82C425.814 624.105 426.257 623.131 426.257 621.899C426.257 620.866 425.895 620.012 425.171 619.336C424.487 618.661 423.623 618.104 422.577 617.667C421.572 617.23 420.124 616.733 418.234 616.177C415.499 615.343 413.267 614.508 411.537 613.674C409.808 612.839 408.32 611.607 407.073 609.978C405.827 608.349 405.203 606.223 405.203 603.6C405.203 599.706 406.631 596.666 409.486 594.48C412.342 592.255 416.062 591.142 420.647 591.142C425.312 591.142 429.072 592.255 431.927 594.48C433.889 595.981 435.224 597.895 435.933 600.221C436.487 602.04 434.918 603.66 433.017 603.66H428.481C426.724 603.66 425.421 602.087 424.197 600.825C424.087 600.711 423.969 600.603 423.844 600.5C422.919 599.706 421.732 599.308 420.285 599.308C419.038 599.308 418.032 599.646 417.268 600.321C416.504 600.957 416.122 601.891 416.122 603.123C416.122 604.474 416.766 605.527 418.053 606.282C419.34 607.037 421.35 607.852 424.085 608.726C426.82 609.64 429.032 610.514 430.721 611.349C432.45 612.183 433.938 613.395 435.185 614.985C436.432 616.575 437.055 618.621 437.055 621.125C437.055 623.509 436.432 625.675 435.185 627.622C433.978 629.569 432.209 631.119 429.876 632.271C427.544 633.424 424.789 634 421.612 634Z" fill="white"/>
<path d="M469.785 591.738C472.04 591.738 473.868 593.566 473.868 595.821C473.868 598.076 472.04 599.904 469.785 599.904H462.647V628.425C462.647 631.273 460.338 633.583 457.489 633.583C454.641 633.583 452.332 631.273 452.332 628.425V599.904H445.194C442.939 599.904 441.111 598.076 441.111 595.821C441.111 593.566 442.939 591.738 445.194 591.738H469.785Z" fill="white"/>
<path d="M490.441 627.858C490.441 626.327 493.589 623.084 492.311 623.926C496.253 620.707 499.349 618.065 501.601 615.998C503.894 613.932 505.824 611.766 507.393 609.501C508.961 607.236 509.745 605.03 509.745 602.885C509.745 601.255 509.363 599.984 508.599 599.07C507.835 598.156 506.689 597.699 505.161 597.699C503.632 597.699 502.426 598.275 501.541 599.427C501.52 599.455 501.5 599.482 501.48 599.51C499.885 601.708 498.073 604.196 495.357 604.196C492.595 604.196 490.27 601.881 491.011 599.22C491.368 597.939 491.862 596.776 492.492 595.732C493.9 593.467 495.73 591.798 497.982 590.725C500.274 589.652 502.808 589.115 505.583 589.115C510.369 589.115 513.968 590.327 516.381 592.751C518.834 595.175 520.061 598.335 520.061 602.229C520.061 606.481 518.593 610.435 515.657 614.091C512.721 617.707 508.981 621.244 504.437 624.701H516.582C518.87 624.701 520.725 626.556 520.725 628.844C520.725 631.132 518.87 632.987 516.582 632.987H495.534C492.721 632.987 490.441 630.67 490.441 627.858Z" fill="white"/>
<path d="M525.266 611.23C525.266 604.395 526.594 599.01 529.248 595.076C531.942 591.142 536.266 589.175 542.218 589.175C548.17 589.175 552.473 591.142 555.127 595.076C557.822 599.01 559.169 604.395 559.169 611.23C559.169 618.144 557.822 623.569 555.127 627.503C552.473 631.437 548.17 633.404 542.218 633.404C536.266 633.404 531.942 631.437 529.248 627.503C526.594 623.569 525.266 618.144 525.266 611.23ZM549.035 611.23C549.035 607.216 548.592 604.136 547.707 601.991C546.823 599.805 544.993 598.712 542.218 598.712C539.443 598.712 537.613 599.805 536.728 601.991C535.843 604.136 535.401 607.216 535.401 611.23C535.401 613.932 535.562 616.177 535.884 617.965C536.205 619.714 536.849 621.144 537.814 622.257C538.82 623.33 540.287 623.867 542.218 623.867C544.148 623.867 545.596 623.33 546.561 622.257C547.567 621.144 548.23 619.714 548.552 617.965C548.874 616.177 549.035 613.932 549.035 611.23Z" fill="white"/>
<path d="M564.257 627.858C564.257 626.327 567.406 623.084 566.127 623.926C570.069 620.707 573.165 618.065 575.418 615.998C577.71 613.932 579.64 611.766 581.209 609.501C582.777 607.236 583.561 605.03 583.561 602.885C583.561 601.255 583.179 599.984 582.415 599.07C581.651 598.156 580.505 597.699 578.977 597.699C577.449 597.699 576.242 598.275 575.357 599.427C575.337 599.455 575.316 599.482 575.296 599.51C573.701 601.708 571.889 604.196 569.173 604.196C566.411 604.196 564.086 601.881 564.827 599.22C565.184 597.939 565.678 596.776 566.308 595.732C567.716 593.467 569.546 591.798 571.798 590.725C574.09 589.652 576.624 589.115 579.399 589.115C584.185 589.115 587.784 590.327 590.197 592.751C592.651 595.175 593.877 598.335 593.877 602.229C593.877 606.481 592.409 610.435 589.473 614.091C586.538 617.707 582.797 621.244 578.253 624.701H590.398C592.686 624.701 594.541 626.556 594.541 628.844C594.541 631.132 592.686 632.987 590.398 632.987H569.35C566.537 632.987 564.257 630.67 564.257 627.858Z" fill="white"/>
<path d="M599.083 611.23C599.083 604.395 600.41 599.01 603.064 595.076C605.759 591.142 610.082 589.175 616.034 589.175C621.986 589.175 626.289 591.142 628.944 595.076C631.638 599.01 632.985 604.395 632.985 611.23C632.985 618.144 631.638 623.569 628.944 627.503C626.289 631.437 621.986 633.404 616.034 633.404C610.082 633.404 605.759 631.437 603.064 627.503C600.41 623.569 599.083 618.144 599.083 611.23ZM622.851 611.23C622.851 607.216 622.408 604.136 621.524 601.991C620.639 599.805 618.809 598.712 616.034 598.712C613.259 598.712 611.429 599.805 610.544 601.991C609.66 604.136 609.217 607.216 609.217 611.23C609.217 613.932 609.378 616.177 609.7 617.965C610.022 619.714 610.665 621.144 611.63 622.257C612.636 623.33 614.104 623.867 616.034 623.867C617.964 623.867 619.412 623.33 620.377 622.257C621.383 621.144 622.046 619.714 622.368 617.965C622.69 616.177 622.851 613.932 622.851 611.23Z" fill="white"/>
<path fill-rule="evenodd" clip-rule="evenodd" d="M257.82 424.472C268.474 418.824 280.924 416 295.172 416H328.096C337.878 416 345.809 423.931 345.809 433.713V533.447C345.809 543.23 337.878 551.16 328.096 551.16H295.172C281.053 551.16 268.666 548.336 258.013 542.689C247.231 537.041 238.952 529.083 233.175 518.814C227.271 508.546 224.319 496.801 224.319 483.58C224.319 470.231 227.271 458.486 233.175 448.346C238.952 438.077 247.166 430.119 257.82 424.472ZM268.217 512.46C275.148 519.263 284.839 522.665 297.29 522.665H308.65C310.989 522.665 312.885 520.768 312.885 518.429V448.346C312.885 446.007 310.989 444.11 308.65 444.11H297.29C284.839 444.11 275.148 447.576 268.217 454.507C261.286 461.438 257.82 471.129 257.82 483.58C257.82 496.031 261.286 505.658 268.217 512.46ZM445.271 547.516C447.019 549.812 449.739 551.16 452.625 551.16H469.241C476.958 551.16 481.276 542.262 476.501 536.2L433.99 482.232L474.52 430.974C479.311 424.914 474.996 416 467.271 416H452.245C449.357 416 446.634 417.351 444.887 419.651L402.607 475.301V425.242C402.607 420.138 398.469 416 393.365 416H378.925C373.821 416 369.683 420.138 369.683 425.242V541.918C369.683 547.022 373.821 551.16 378.925 551.16H393.365C398.469 551.16 402.607 547.022 402.607 541.918V491.474L445.271 547.516ZM534.967 536.142C534.415 537.11 533.949 538.139 533.582 539.223L533.24 540.234C531.028 546.765 524.899 551.16 518.003 551.16C506.851 551.16 499.082 540.087 502.876 529.6L537.494 433.924C541.386 423.166 551.601 416 563.04 416C574.48 416 584.694 423.166 588.587 433.924L623.117 529.359C626.954 539.964 619.099 551.16 607.821 551.16C600.849 551.16 594.651 546.716 592.414 540.112L592.113 539.223C591.746 538.139 591.281 537.11 590.728 536.142H591.1L575.504 489.934L574.558 487.139C574.472 486.781 574.369 486.424 574.248 486.067C574.123 485.696 573.984 485.337 573.832 484.992L562.797 452.389L534.687 536.142H534.967ZM721.478 547.516C723.225 549.812 725.945 551.16 728.831 551.16H745.447C753.164 551.16 757.482 542.262 752.707 536.2L710.196 482.232L750.726 430.974C755.518 424.914 751.202 416 743.477 416H728.452C725.563 416 722.84 417.351 721.093 419.651L678.813 475.301V425.242C678.813 420.138 674.675 416 669.571 416H655.131C650.027 416 645.889 420.138 645.889 425.242V541.918C645.889 547.022 650.027 551.16 655.131 551.16H669.571C674.675 551.16 678.813 547.022 678.813 541.918V491.474L721.478 547.516Z" fill="white"/>
<mask id="mask0_38_556" style="mask-type:alpha" maskUnits="userSpaceOnUse" x="131" y="127" width="737" height="740">
<path d="M131.547 497.15C130.649 293.044 295.954 127.729 501.165 127.531C702.819 127.729 868.134 293.044 867.223 497.15C868.134 699.924 702.819 865.198 501.165 866.768C295.954 865.198 130.649 699.924 131.547 497.15Z" fill="#FF0000"/>
</mask>
<g mask="url(#mask0_38_556)">
<path fill-rule="evenodd" clip-rule="evenodd" d="M274.458 197.329C345.977 263.229 451.978 178.811 492.208 120.702C552.658 33.0061 724.644 -117.226 928.984 -16.5888C1184.41 109.208 1153.76 436.79 1041.37 609.201C928.984 781.613 688.884 1082.38 499.232 1187.1C470.764 1166.55 436.258 1139.94 398.321 1108.51C414.542 1109.4 429.08 1104.11 437.292 1087.48C457.726 1046.1 410.046 992.764 383.652 971.266C346.616 941.253 290.422 930.398 263.603 950.193C252.026 958.738 251.827 970.394 255.903 981.088C117.55 847.485 -25.0175 678.155 -81.2204 516.61C-198.077 180.727 -42.2682 -10.8418 188.252 -51.0711C211.351 -55.1022 233.048 -56.5373 253.379 -55.8247C235.618 -52.2434 220.085 -47.3581 208.048 -40.854C132.28 0.0849609 191.575 29.9149 239.908 54.2306C242.086 55.3262 244.242 56.4107 246.362 57.4844C285.697 77.4075 286.591 102.822 266.796 117.509C250.377 129.691 236.145 157.994 274.458 197.329ZM962.189 415.079C974.747 378.255 1010.85 303.331 1054.78 298.222C1109.7 291.836 1098.2 429.127 1056.7 512.14C1015.19 595.153 957.719 603.454 949.418 533.851C942.777 478.169 955.165 431.469 962.189 415.079ZM237.422 356.97C217.839 364.419 167.18 378.297 121.203 374.211C63.7329 369.102 -31.4127 433.597 -36.5212 507.031C-41.6297 580.466 10.0938 683.274 105.878 670.503C127.075 667.677 144.582 664.256 159.251 661.39C210.863 651.307 227.325 648.09 245.723 701.793C269.35 770.757 311.495 814.179 402.809 809.709C494.123 805.24 552.232 835.891 515.834 930.398C513.058 937.736 509.958 945.012 506.907 952.172C490.315 991.118 475.193 1026.61 521.581 1049.81C576.498 1077.27 634.607 1001.28 646.101 944.446C647.092 939.546 648.092 934.451 649.118 929.231C659.982 873.906 673.615 804.491 708.041 803.324C744.41 802.091 742.696 841.917 741.959 859.04C741.932 859.655 741.907 860.241 741.885 860.794C741.246 876.758 739.522 971.697 809.573 881.867C863.85 812.264 898.971 761.179 914.935 727.974C915.255 727.308 915.579 726.635 915.907 725.955C936.004 684.203 969.323 614.983 897.694 577.912C825.959 540.786 762.319 454.031 879.176 321.21C996.032 188.389 934.731 54.9301 852.356 26.8334C769.982 -1.26332 640.354 21.0863 660.149 90.0509C664.448 105.029 669.41 117.748 673.746 128.863C689.374 168.922 696.868 188.132 635.884 217.125C601.222 233.603 572.248 229.73 542.495 225.752C505.377 220.789 467.045 215.665 414.942 249.691C385.25 269.082 363.608 284.448 345.672 297.182C306.903 324.708 285.445 339.943 237.422 356.97Z" fill="url(#paint1_radial_38_556)"/>
<path fill-rule="evenodd" clip-rule="evenodd" d="M274.458 197.329C345.977 263.229 451.978 178.811 492.208 120.702C552.658 33.0061 724.644 -117.226 928.984 -16.5888C1184.41 109.208 1153.76 436.79 1041.37 609.201C928.984 781.613 688.884 1082.38 499.232 1187.1C470.764 1166.55 436.258 1139.94 398.321 1108.51C414.542 1109.4 429.08 1104.11 437.292 1087.48C457.726 1046.1 410.046 992.764 383.652 971.266C346.616 941.253 290.422 930.398 263.603 950.193C252.026 958.738 251.827 970.394 255.903 981.088C117.55 847.485 -25.0175 678.155 -81.2204 516.61C-198.077 180.727 -42.2682 -10.8418 188.252 -51.0711C211.351 -55.1022 233.048 -56.5373 253.379 -55.8247C235.618 -52.2434 220.085 -47.3581 208.048 -40.854C132.28 0.0849609 191.575 29.9149 239.908 54.2306C242.086 55.3262 244.242 56.4107 246.362 57.4844C285.697 77.4075 286.591 102.822 266.796 117.509C250.377 129.691 236.145 157.994 274.458 197.329ZM962.189 415.079C974.747 378.255 1010.85 303.331 1054.78 298.222C1109.7 291.836 1098.2 429.127 1056.7 512.14C1015.19 595.153 957.719 603.454 949.418 533.851C942.777 478.169 955.165 431.469 962.189 415.079ZM237.422 356.97C217.839 364.419 167.18 378.297 121.203 374.211C63.7329 369.102 -31.4127 433.597 -36.5212 507.031C-41.6297 580.466 10.0938 683.274 105.878 670.503C127.075 667.677 144.582 664.256 159.251 661.39C210.863 651.307 227.325 648.09 245.723 701.793C269.35 770.757 311.495 814.179 402.809 809.709C494.123 805.24 552.232 835.891 515.834 930.398C513.058 937.736 509.958 945.012 506.907 952.172C490.315 991.118 475.193 1026.61 521.581 1049.81C576.498 1077.27 634.607 1001.28 646.101 944.446C647.092 939.546 648.092 934.451 649.118 929.231C659.982 873.906 673.615 804.491 708.041 803.324C744.41 802.091 742.696 841.917 741.959 859.04C741.932 859.655 741.907 860.241 741.885 860.794C741.246 876.758 739.522 971.697 809.573 881.867C863.85 812.264 898.971 761.179 914.935 727.974C915.255 727.308 915.579 726.635 915.907 725.955C936.004 684.203 969.323 614.983 897.694 577.912C825.959 540.786 762.319 454.031 879.176 321.21C996.032 188.389 934.731 54.9301 852.356 26.8334C769.982 -1.26332 640.354 21.0863 660.149 90.0509C664.448 105.029 669.41 117.748 673.746 128.863C689.374 168.922 696.868 188.132 635.884 217.125C601.222 233.603 572.248 229.73 542.495 225.752C505.377 220.789 467.045 215.665 414.942 249.691C385.25 269.082 363.608 284.448 345.672 297.182C306.903 324.708 285.445 339.943 237.422 356.97Z" fill="url(#paint2_linear_38_556)"/>
<path fill-rule="evenodd" clip-rule="evenodd" d="M274.458 197.329C345.977 263.229 451.978 178.811 492.208 120.702C552.658 33.0061 724.644 -117.226 928.984 -16.5888C1184.41 109.208 1153.76 436.79 1041.37 609.201C928.984 781.613 688.884 1082.38 499.232 1187.1C470.764 1166.55 436.258 1139.94 398.321 1108.51C414.542 1109.4 429.08 1104.11 437.292 1087.48C457.726 1046.1 410.046 992.764 383.652 971.266C346.616 941.253 290.422 930.398 263.603 950.193C252.026 958.738 251.827 970.394 255.903 981.088C117.55 847.485 -25.0175 678.155 -81.2204 516.61C-198.077 180.727 -42.2682 -10.8418 188.252 -51.0711C211.351 -55.1022 233.048 -56.5373 253.379 -55.8247C235.618 -52.2434 220.085 -47.3581 208.048 -40.854C132.28 0.0849609 191.575 29.9149 239.908 54.2306C242.086 55.3262 244.242 56.4107 246.362 57.4844C285.697 77.4075 286.591 102.822 266.796 117.509C250.377 129.691 236.145 157.994 274.458 197.329ZM962.189 415.079C974.747 378.255 1010.85 303.331 1054.78 298.222C1109.7 291.836 1098.2 429.127 1056.7 512.14C1015.19 595.153 957.719 603.454 949.418 533.851C942.777 478.169 955.165 431.469 962.189 415.079ZM237.422 356.97C217.839 364.419 167.18 378.297 121.203 374.211C63.7329 369.102 -31.4127 433.597 -36.5212 507.031C-41.6297 580.466 10.0938 683.274 105.878 670.503C127.075 667.677 144.582 664.256 159.251 661.39C210.863 651.307 227.325 648.09 245.723 701.793C269.35 770.757 311.495 814.179 402.809 809.709C494.123 805.24 552.232 835.891 515.834 930.398C513.058 937.736 509.958 945.012 506.907 952.172C490.315 991.118 475.193 1026.61 521.581 1049.81C576.498 1077.27 634.607 1001.28 646.101 944.446C647.092 939.546 648.092 934.451 649.118 929.231C659.982 873.906 673.615 804.491 708.041 803.324C744.41 802.091 742.696 841.917 741.959 859.04C741.932 859.655 741.907 860.241 741.885 860.794C741.246 876.758 739.522 971.697 809.573 881.867C863.85 812.264 898.971 761.179 914.935 727.974C915.255 727.308 915.579 726.635 915.907 725.955C936.004 684.203 969.323 614.983 897.694 577.912C825.959 540.786 762.319 454.031 879.176 321.21C996.032 188.389 934.731 54.9301 852.356 26.8334C769.982 -1.26332 640.354 21.0863 660.149 90.0509C664.448 105.029 669.41 117.748 673.746 128.863C689.374 168.922 696.868 188.132 635.884 217.125C601.222 233.603 572.248 229.73 542.495 225.752C505.377 220.789 467.045 215.665 414.942 249.691C385.25 269.082 363.608 284.448 345.672 297.182C306.903 324.708 285.445 339.943 237.422 356.97Z" fill="url(#paint3_linear_38_556)"/>
<path fill-rule="evenodd" clip-rule="evenodd" d="M274.458 197.329C345.977 263.229 451.978 178.811 492.208 120.702C552.658 33.0061 724.644 -117.226 928.984 -16.5888C1184.41 109.208 1153.76 436.79 1041.37 609.201C928.984 781.613 688.884 1082.38 499.232 1187.1C470.764 1166.55 436.258 1139.94 398.321 1108.51C414.542 1109.4 429.08 1104.11 437.292 1087.48C457.726 1046.1 410.046 992.764 383.652 971.266C346.616 941.253 290.422 930.398 263.603 950.193C252.026 958.738 251.827 970.394 255.903 981.088C117.55 847.485 -25.0175 678.155 -81.2204 516.61C-198.077 180.727 -42.2682 -10.8418 188.252 -51.0711C211.351 -55.1022 233.048 -56.5373 253.379 -55.8247C235.618 -52.2434 220.085 -47.3581 208.048 -40.854C132.28 0.0849609 191.575 29.9149 239.908 54.2306C242.086 55.3262 244.242 56.4107 246.362 57.4844C285.697 77.4075 286.591 102.822 266.796 117.509C250.377 129.691 236.145 157.994 274.458 197.329ZM962.189 415.079C974.747 378.255 1010.85 303.331 1054.78 298.222C1109.7 291.836 1098.2 429.127 1056.7 512.14C1015.19 595.153 957.719 603.454 949.418 533.851C942.777 478.169 955.165 431.469 962.189 415.079ZM237.422 356.97C217.839 364.419 167.18 378.297 121.203 374.211C63.7329 369.102 -31.4127 433.597 -36.5212 507.031C-41.6297 580.466 10.0938 683.274 105.878 670.503C127.075 667.677 144.582 664.256 159.251 661.39C210.863 651.307 227.325 648.09 245.723 701.793C269.35 770.757 311.495 814.179 402.809 809.709C494.123 805.24 552.232 835.891 515.834 930.398C513.058 937.736 509.958 945.012 506.907 952.172C490.315 991.118 475.193 1026.61 521.581 1049.81C576.498 1077.27 634.607 1001.28 646.101 944.446C647.092 939.546 648.092 934.451 649.118 929.231C659.982 873.906 673.615 804.491 708.041 803.324C744.41 802.091 742.696 841.917 741.959 859.04C741.932 859.655 741.907 860.241 741.885 860.794C741.246 876.758 739.522 971.697 809.573 881.867C863.85 812.264 898.971 761.179 914.935 727.974C915.255 727.308 915.579 726.635 915.907 725.955C936.004 684.203 969.323 614.983 897.694 577.912C825.959 540.786 762.319 454.031 879.176 321.21C996.032 188.389 934.731 54.9301 852.356 26.8334C769.982 -1.26332 640.354 21.0863 660.149 90.0509C664.448 105.029 669.41 117.748 673.746 128.863C689.374 168.922 696.868 188.132 635.884 217.125C601.222 233.603 572.248 229.73 542.495 225.752C505.377 220.789 467.045 215.665 414.942 249.691C385.25 269.082 363.608 284.448 345.672 297.182C306.903 324.708 285.445 339.943 237.422 356.97Z" fill="url(#paint4_radial_38_556)" fill-opacity="0.25" style="mix-blend-mode:overlay"/>
<path fill-rule="evenodd" clip-rule="evenodd" d="M274.458 197.329C345.977 263.229 451.978 178.811 492.208 120.702C552.658 33.0061 724.644 -117.226 928.984 -16.5888C1184.41 109.208 1153.76 436.79 1041.37 609.201C928.984 781.613 688.884 1082.38 499.232 1187.1C470.764 1166.55 436.258 1139.94 398.321 1108.51C414.542 1109.4 429.08 1104.11 437.292 1087.48C457.726 1046.1 410.046 992.764 383.652 971.266C346.616 941.253 290.422 930.398 263.603 950.193C252.026 958.738 251.827 970.394 255.903 981.088C117.55 847.485 -25.0175 678.155 -81.2204 516.61C-198.077 180.727 -42.2682 -10.8418 188.252 -51.0711C211.351 -55.1022 233.048 -56.5373 253.379 -55.8247C235.618 -52.2434 220.085 -47.3581 208.048 -40.854C132.28 0.0849609 191.575 29.9149 239.908 54.2306C242.086 55.3262 244.242 56.4107 246.362 57.4844C285.697 77.4075 286.591 102.822 266.796 117.509C250.377 129.691 236.145 157.994 274.458 197.329ZM962.189 415.079C974.747 378.255 1010.85 303.331 1054.78 298.222C1109.7 291.836 1098.2 429.127 1056.7 512.14C1015.19 595.153 957.719 603.454 949.418 533.851C942.777 478.169 955.165 431.469 962.189 415.079ZM237.422 356.97C217.839 364.419 167.18 378.297 121.203 374.211C63.7329 369.102 -31.4127 433.597 -36.5212 507.031C-41.6297 580.466 10.0938 683.274 105.878 670.503C127.075 667.677 144.582 664.256 159.251 661.39C210.863 651.307 227.325 648.09 245.723 701.793C269.35 770.757 311.495 814.179 402.809 809.709C494.123 805.24 552.232 835.891 515.834 930.398C513.058 937.736 509.958 945.012 506.907 952.172C490.315 991.118 475.193 1026.61 521.581 1049.81C576.498 1077.27 634.607 1001.28 646.101 944.446C647.092 939.546 648.092 934.451 649.118 929.231C659.982 873.906 673.615 804.491 708.041 803.324C744.41 802.091 742.696 841.917 741.959 859.04C741.932 859.655 741.907 860.241 741.885 860.794C741.246 876.758 739.522 971.697 809.573 881.867C863.85 812.264 898.971 761.179 914.935 727.974C915.255 727.308 915.579 726.635 915.907 725.955C936.004 684.203 969.323 614.983 897.694 577.912C825.959 540.786 762.319 454.031 879.176 321.21C996.032 188.389 934.731 54.9301 852.356 26.8334C769.982 -1.26332 640.354 21.0863 660.149 90.0509C664.448 105.029 669.41 117.748 673.746 128.863C689.374 168.922 696.868 188.132 635.884 217.125C601.222 233.603 572.248 229.73 542.495 225.752C505.377 220.789 467.045 215.665 414.942 249.691C385.25 269.082 363.608 284.448 345.672 297.182C306.903 324.708 285.445 339.943 237.422 356.97Z" fill="url(#paint5_radial_38_556)" style="mix-blend-mode:soft-light"/>
</g>
<defs>
<linearGradient id="paint0_linear_38_556" x1="490.56" y1="992.215" x2="515.399" y2="12.8387" gradientUnits="userSpaceOnUse">
<stop stop-color="#F7A038"/>
<stop offset="1" stop-color="#F57226"/>
</linearGradient>
<radialGradient id="paint1_radial_38_556" cx="0" cy="0" r="1" gradientUnits="userSpaceOnUse" gradientTransform="translate(566.919 535.767) rotate(141.29) scale(1145.66 1148.19)">
<stop stop-color="white"/>
<stop offset="1" stop-color="#FFA800"/>
</radialGradient>
<linearGradient id="paint2_linear_38_556" x1="1189.52" y1="-188.362" x2="-25.027" y2="1143.04" gradientUnits="userSpaceOnUse">
<stop stop-color="#F67126"/>
<stop offset="1" stop-color="#F6A326" stop-opacity="0.65"/>
</linearGradient>
<linearGradient id="paint3_linear_38_556" x1="1189.52" y1="-188.362" x2="-25.027" y2="1143.04" gradientUnits="userSpaceOnUse">
<stop stop-color="#F67227"/>
<stop offset="1" stop-color="#F6A326" stop-opacity="0.65"/>
</linearGradient>
<radialGradient id="paint4_radial_38_556" cx="0" cy="0" r="1" gradientUnits="userSpaceOnUse" gradientTransform="translate(566.919 535.767) rotate(139.448) scale(320.197 555.563)">
<stop stop-opacity="0"/>
<stop offset="0.651042" stop-opacity="0.0633333"/>
<stop offset="1" stop-opacity="0.38"/>
</radialGradient>
<radialGradient id="paint5_radial_38_556" cx="0" cy="0" r="1" gradientUnits="userSpaceOnUse" gradientTransform="translate(501.786 483.405) rotate(117.124) scale(263.311 456.862)">
<stop stop-color="white" stop-opacity="0"/>
<stop offset="0.651042" stop-color="white" stop-opacity="0.35"/>
<stop offset="1" stop-color="white" stop-opacity="0"/>
</radialGradient>
</defs>
</svg>
