<svg width="65" height="65" viewBox="0 0 65 65" fill="none" xmlns="http://www.w3.org/2000/svg">
<path d="M1.00856 31.9608C1.4596 14.6705 15.7904 1.04962 32.8957 1.42534C50.2008 1.92235 63.8211 16.2522 63.4253 33.5438C62.9484 50.661 48.6192 64.281 31.3127 63.8421C14.2089 63.4083 0.586906 49.0793 1.00856 31.9608Z" fill="#080808" stroke="url(#paint0_linear_104_2)" stroke-width="0.674692" stroke-miterlimit="3.86"/>
<path d="M6.08151 29.4551C6.40448 29.4768 6.61717 29.4419 6.84831 29.3137C7.26515 29.0875 7.54138 28.661 7.62252 28.1046C7.77589 27.0611 7.12493 26.3001 5.9274 26.124C4.73876 25.949 3.89848 26.4864 3.7464 27.5148C3.61136 28.4346 4.05405 29.1266 4.89511 29.2983L5.00509 28.5566C4.53971 28.4418 4.3133 28.1012 4.38336 27.6291C4.46976 27.0415 4.99781 26.7646 5.80538 26.8832C6.62268 27.0051 7.05764 27.4378 6.96923 28.0345C6.93033 28.2998 6.80717 28.5039 6.60854 28.6195C6.49508 28.6882 6.3926 28.7124 6.18751 28.7296L6.08151 29.4551Z" fill="white"/>
<path d="M6.08151 29.4551C6.40448 29.4768 6.61717 29.4419 6.84831 29.3137C7.26515 29.0875 7.54138 28.661 7.62252 28.1046C7.77589 27.0611 7.12493 26.3001 5.9274 26.124C4.73876 25.949 3.89848 26.4864 3.7464 27.5148C3.61136 28.4346 4.05405 29.1266 4.89511 29.2983L5.00509 28.5566C4.53971 28.4418 4.3133 28.1012 4.38336 27.6291C4.46976 27.0415 4.99781 26.7646 5.80538 26.8832C6.62268 27.0051 7.05764 27.4378 6.96923 28.0345C6.93033 28.2998 6.80717 28.5039 6.60854 28.6195C6.49509 28.6882 6.3926 28.7124 6.18751 28.7296L6.08151 29.4551Z" stroke="white" stroke-width="0.0756937" stroke-miterlimit="10"/>
<path d="M5.26953 32.356L3.56642 32.3467L3.56292 33.1187L7.31496 33.1388L7.31857 32.3624L5.91302 32.3545L5.92202 30.872L7.32755 30.8808L7.33107 30.1079L3.57901 30.0887L3.57377 30.8589L5.27865 30.8691L5.26953 32.356Z" fill="white"/>
<path d="M5.26953 32.356L3.56642 32.3467L3.56292 33.1187L7.31496 33.1388L7.31857 32.3624L5.91302 32.3545L5.92202 30.872L7.32755 30.8808L7.33107 30.1079L3.57901 30.0887L3.57377 30.8589L5.27865 30.8691L5.26953 32.356Z" stroke="white" stroke-width="0.0759177" stroke-miterlimit="10"/>
<path d="M4.57566 36.3144L3.85732 36.66L3.96428 37.4463L7.51746 35.6535L7.40226 34.8043L3.49437 33.9866L3.60055 34.7676L4.3859 34.9172L4.57566 36.3144ZM5.18643 36.0172L5.05469 35.0458L6.57832 35.332L5.18643 36.0172Z" fill="white"/>
<path d="M4.57566 36.3144L3.85732 36.66L3.96428 37.4463L7.51746 35.6535L7.40226 34.8043L3.49437 33.9866L3.60055 34.7676L4.3859 34.9172L4.57566 36.3144ZM5.18643 36.0172L5.05469 35.0458L6.57832 35.332L5.18643 36.0172Z" stroke="white" stroke-width="0.0761188" stroke-miterlimit="10"/>
<path d="M7.99948 38.26L7.81756 37.5045L4.1552 38.3876L4.76007 40.8946L5.38684 40.7424L4.9648 38.989L7.99948 38.26Z" fill="white"/>
<path d="M7.99948 38.26L7.81756 37.5045L4.1552 38.3876L4.76007 40.8946L5.38684 40.7424L4.9648 38.989L7.99948 38.26Z" stroke="white" stroke-width="0.0762247" stroke-miterlimit="10"/>
<path d="M8.00949 41.4009L5.54008 43.0997L5.82217 43.8165L8.78283 43.3626L6.0657 44.4331L6.34956 45.1506L9.83584 43.7753L9.41016 42.6947L6.39338 43.1769L8.91979 41.4507L8.49656 40.3794L5.01029 41.7538L5.29234 42.4725L8.00949 41.4009Z" fill="white"/>
<path d="M8.00949 41.4009L5.54008 43.0997L5.82217 43.8165L8.78283 43.3626L6.0657 44.4331L6.34956 45.1506L9.83584 43.7753L9.41016 42.6947L6.39338 43.1769L8.91979 41.4507L8.49656 40.3794L5.01029 41.7538L5.29234 42.4725L8.00949 41.4009Z" stroke="white" stroke-width="0.0758462" stroke-miterlimit="10"/>
<path d="M8.83736 45.7288L9.80514 47.2469L10.3475 46.8987L9.37965 45.3834L10.0964 44.9253L11.1416 46.5631L11.6848 46.2177L10.2236 43.9276L7.05779 45.95L8.56798 48.3164L9.11212 47.9683L8.01618 46.2532L8.83736 45.7288Z" fill="white"/>
<path d="M8.83736 45.7288L9.80514 47.2469L10.3475 46.8987L9.37965 45.3834L10.0964 44.9253L11.1416 46.5631L11.6848 46.2177L10.2236 43.9276L7.05779 45.95L8.56798 48.3164L9.11212 47.9683L8.01618 46.2532L8.83736 45.7288Z" stroke="white" stroke-width="0.075998" stroke-miterlimit="10"/>
<path d="M10.7205 48.8942L11.2603 49.5988C11.4643 49.865 11.4461 50.0611 11.1955 50.2512C11.1717 50.2703 11.1307 50.3034 11.0735 50.3403C10.9935 50.3937 10.9187 50.4524 10.8749 50.4872C10.597 50.6991 10.5189 50.7838 10.4345 50.9721L10.9406 51.6328L11.0509 51.5452C11.032 51.4107 11.0654 51.3267 11.1966 51.2282C12.0641 50.5371 12.0921 50.4886 11.9647 49.9829C12.3527 50.2181 12.7231 50.2008 13.0878 49.9195C13.3248 49.7379 13.4794 49.4888 13.5172 49.2332C13.5528 48.993 13.474 48.754 13.2794 48.499L12.0518 46.8993L9.06688 49.1874L9.53751 49.7999L10.7205 48.8942ZM11.2327 48.5006L12.01 47.9063L12.5785 48.6464C12.7134 48.8214 12.7534 48.9073 12.7484 49.0289C12.7435 49.1512 12.6701 49.2655 12.5307 49.3709C12.3876 49.4817 12.2406 49.5299 12.1259 49.5064C12.0182 49.4858 11.935 49.4194 11.8011 49.2435L11.2327 48.5006Z" fill="white"/>
<path d="M10.7205 48.8942L11.2603 49.5988C11.4643 49.865 11.4461 50.0611 11.1955 50.2512C11.1717 50.2703 11.1307 50.3034 11.0735 50.3403C10.9935 50.3937 10.9187 50.4524 10.8749 50.4872C10.597 50.6991 10.5189 50.7838 10.4345 50.9721L10.9406 51.6328L11.0509 51.5452C11.032 51.4107 11.0654 51.3267 11.1966 51.2282C12.0641 50.5371 12.0921 50.4886 11.9647 49.9829C12.3527 50.2181 12.7231 50.2008 13.0878 49.9195C13.3248 49.7379 13.4794 49.4888 13.5172 49.2332C13.5528 48.993 13.474 48.754 13.2794 48.499L12.0518 46.8993L9.06688 49.1874L9.53751 49.7999L10.7205 48.8942ZM11.2327 48.5006L12.01 47.9063L12.5785 48.6464C12.7134 48.8214 12.7534 48.9073 12.7484 49.0289C12.7435 49.1512 12.6701 49.2655 12.5307 49.3709C12.3876 49.4817 12.2406 49.5299 12.1259 49.5064C12.0182 49.4858 11.935 49.4194 11.8011 49.2435L11.2327 48.5006Z" stroke="white" stroke-width="0.0761039" stroke-miterlimit="10"/>
<path d="M15.5321 52.3941C15.7699 52.1455 15.8701 51.9291 15.8771 51.6522C15.8866 51.277 15.6875 50.8833 15.2975 50.5115C14.6472 49.8917 13.9803 49.8363 13.478 50.3669C13.0768 50.7857 13.0932 51.1929 13.5456 51.821L13.8535 52.2577C14.1582 52.6828 14.1971 52.917 13.9886 53.137C13.771 53.3638 13.4321 53.3034 13.0934 52.9802C12.7148 52.6203 12.6542 52.2568 12.9123 51.9506L12.3686 51.4319C11.85 52.0443 11.9467 52.7384 12.6388 53.3976C13.3377 54.066 14.0627 54.1308 14.5868 53.5811C14.9944 53.1535 14.992 52.7245 14.582 52.1483L14.236 51.6641C13.9115 51.2064 13.8707 51.0186 14.0581 50.8195C14.2536 50.6163 14.5591 50.6597 14.8461 50.9333C15.1996 51.2685 15.2544 51.6051 15.012 51.8984L15.5321 52.3941Z" fill="white"/>
<path d="M15.5321 52.3941C15.7699 52.1455 15.8701 51.9291 15.8771 51.6522C15.8866 51.277 15.6875 50.8833 15.2975 50.5115C14.6472 49.8917 13.9803 49.8363 13.478 50.3669C13.0768 50.7857 13.0932 51.1929 13.5456 51.821L13.8535 52.2577C14.1582 52.6828 14.1971 52.917 13.9886 53.137C13.771 53.3638 13.4321 53.3034 13.0934 52.9802C12.7148 52.6203 12.6542 52.2568 12.9123 51.9506L12.3686 51.4319C11.85 52.0443 11.9467 52.7384 12.6388 53.3976C13.3377 54.066 14.0627 54.1308 14.5868 53.5811C14.9944 53.1535 14.992 52.7245 14.582 52.1483L14.236 51.6641C13.9115 51.2064 13.8707 51.0186 14.0581 50.8195C14.2536 50.6163 14.5591 50.6597 14.8461 50.9333C15.1996 51.2685 15.2544 51.6051 15.012 51.8984L15.5321 52.3941Z" stroke="white" stroke-width="0.07577" stroke-miterlimit="10"/>
<path d="M20.4639 54.9368L21.4489 55.4221L21.7344 54.844L19.0326 53.5135L18.7471 54.0917L19.7702 54.5949L18.3937 57.3894L19.0874 57.7304L20.4639 54.9368Z" fill="white"/>
<path d="M20.4639 54.9368L21.4489 55.4221L21.7344 54.844L19.0326 53.5135L18.7471 54.0917L19.7702 54.5949L18.3937 57.3894L19.0874 57.7304L20.4639 54.9368Z" stroke="white" stroke-width="0.0760736" stroke-miterlimit="10"/>
<path d="M22.3766 57.4356L24.0674 58.0737L24.2953 57.4664L22.6045 56.8319L22.9054 56.0334L24.7309 56.7187L24.9579 56.1141L22.4059 55.1539L21.0784 58.686L23.7174 59.6779L23.9464 59.0715L22.0315 58.3518L22.3766 57.4356Z" fill="white"/>
<path d="M22.3766 57.4356L24.0674 58.0737L24.2953 57.4664L22.6045 56.8319L22.9054 56.0334L24.7309 56.7187L24.9579 56.1141L22.4059 55.1539L21.0784 58.686L23.7174 59.6779L23.9464 59.0715L22.0315 58.3518L22.3766 57.4356Z" stroke="white" stroke-width="0.076334" stroke-miterlimit="10"/>
<path d="M25.6871 59.006L26.142 58.6895L27.019 60.5438L27.9172 60.7248L26.7172 58.3172L28.4933 57.0333L27.6042 56.8561L25.8539 58.1773L26.1735 56.5696L25.4212 56.4209L24.6903 60.0799L25.4426 60.2304L25.6871 59.006Z" fill="white"/>
<path d="M25.6871 59.006L26.142 58.6895L27.019 60.5438L27.9172 60.7248L26.7172 58.3172L28.4933 57.0333L27.6042 56.8561L25.8539 58.1773L26.1735 56.5696L25.4212 56.4209L24.6903 60.0799L25.4426 60.2304L25.6871 59.006Z" stroke="white" stroke-width="0.075496" stroke-miterlimit="10"/>
<path d="M30.8146 60.935L31.5875 60.9788L31.7933 57.2305L31.0231 57.1886L30.8807 59.7365L29.5372 57.1063L28.7449 57.062L28.538 60.8103L29.3091 60.8513L29.4516 58.2614L30.8146 60.935Z" fill="white"/>
<path d="M30.8146 60.935L31.5875 60.9788L31.7933 57.2305L31.0231 57.1886L30.8807 59.7365L29.5372 57.1063L28.7449 57.062L28.538 60.8103L29.3091 60.8513L29.4516 58.2614L30.8146 60.935Z" stroke="white" stroke-width="0.0759373" stroke-miterlimit="10"/>
<path d="M33.4559 57.3216L32.6837 57.3583L32.8502 61.1133L33.6241 61.0793L33.4559 57.3216Z" fill="white"/>
<path d="M33.4559 57.3216L32.6837 57.3583L32.8502 61.1133L33.6241 61.0793L33.4559 57.3216Z" stroke="white" stroke-width="0.0760884" stroke-miterlimit="10"/>
<path d="M37.0554 57.924C37.0061 57.5858 36.8971 57.3749 36.6851 57.1997C36.3962 56.9627 35.9651 56.8758 35.433 56.9543C34.5477 57.0856 34.0974 57.5746 34.2043 58.295C34.2879 58.8664 34.6171 59.1026 35.3867 59.1337L35.9177 59.1579C36.4411 59.1802 36.6482 59.2944 36.6914 59.5931C36.7373 59.9026 36.4813 60.1303 36.0219 60.1999C35.5034 60.2753 35.1844 60.1 35.1005 59.7092L34.3595 59.8173C34.5237 60.6016 35.1287 60.9521 36.0707 60.8133C37.0216 60.6721 37.5175 60.144 37.4071 59.395C37.3207 58.8119 36.9832 58.5522 36.2807 58.521L35.687 58.4952C35.1292 58.4677 34.957 58.3847 34.9165 58.1155C34.8743 57.8374 35.0971 57.6241 35.4872 57.567C35.969 57.497 36.2669 57.6592 36.3467 58.0294L37.0554 57.924Z" fill="white"/>
<path d="M37.0554 57.924C37.0061 57.5858 36.8971 57.3749 36.6851 57.1997C36.3962 56.9627 35.9651 56.8758 35.433 56.9543C34.5477 57.0856 34.0974 57.5746 34.2043 58.295C34.2879 58.8664 34.6171 59.1026 35.3867 59.1337L35.9177 59.1579C36.4411 59.1802 36.6482 59.2944 36.6914 59.5931C36.7373 59.9026 36.4813 60.1303 36.0219 60.1999C35.5034 60.2753 35.1844 60.1 35.1005 59.7092L34.3595 59.8173C34.5237 60.6016 35.1287 60.9521 36.0707 60.8133C37.0216 60.6721 37.5175 60.144 37.4071 59.395C37.3207 58.8119 36.9832 58.5522 36.2807 58.521L35.687 58.4952C35.1292 58.4677 34.957 58.3847 34.9165 58.1155C34.8743 57.8374 35.0971 57.6241 35.4872 57.567C35.969 57.497 36.2669 57.6592 36.3467 58.0294L37.0554 57.924Z" stroke="white" stroke-width="0.075496" stroke-miterlimit="10"/>
<path d="M38.7768 59.0501L39.0307 58.5552L40.6812 59.7901L41.5637 59.5265L39.3676 57.9569L40.3399 55.9815L39.4665 56.2409L38.5339 58.2369L38.0616 56.661L37.3232 56.8809L38.3967 60.4721L39.1341 60.2522L38.7768 59.0501Z" fill="white"/>
<path d="M38.7768 59.0501L39.0307 58.5552L40.6812 59.7901L41.5637 59.5265L39.3676 57.9569L40.3399 55.9815L39.4665 56.2409L38.5339 58.2369L38.0616 56.661L37.3232 56.8809L38.3967 60.4721L39.1341 60.2522L38.7768 59.0501Z" stroke="white" stroke-width="0.0758496" stroke-miterlimit="10"/>
<path d="M44.214 57.5497L44.7533 58.1353L45.4766 57.8051L42.73 54.9293L41.9525 55.2849L42.3029 59.2573L43.0191 58.9296L42.9346 58.1365L44.214 57.5497ZM43.7531 57.0509L42.8624 57.4591L42.696 55.9204L43.7531 57.0509Z" fill="white"/>
<path d="M44.214 57.5497L44.7533 58.1353L45.4766 57.8051L42.73 54.9293L41.9525 55.2849L42.3029 59.2573L43.0191 58.9296L42.9346 58.1365L44.214 57.5497ZM43.7531 57.0509L42.8624 57.4591L42.696 55.9204L43.7531 57.0509Z" stroke="white" stroke-width="0.0760392" stroke-miterlimit="10"/>
<path d="M49.8992 52.8681L50.9545 54.2058L51.5619 53.7279L49.2345 50.7778L48.6235 51.261L49.4953 52.3643L48.3308 53.284L47.4579 52.1804L46.8525 52.6595L49.1791 55.6068L49.7853 55.1279L48.7291 53.7901L49.8992 52.8681Z" fill="white"/>
<path d="M49.8992 52.8681L50.9545 54.2058L51.5619 53.7279L49.2345 50.7778L48.6235 51.261L49.4953 52.3643L48.3308 53.284L47.4579 52.1804L46.8525 52.6595L49.1791 55.6068L49.7853 55.1279L48.7291 53.7901L49.8992 52.8681Z" stroke="white" stroke-width="0.075998" stroke-miterlimit="10"/>
<path d="M49.9962 48.5808L49.606 48.991L50.0597 49.4225L50.4499 49.014L49.9962 48.5808ZM50.6546 47.8887L50.2641 48.2998L50.719 48.7314L51.1091 48.3231L50.6546 47.8887ZM50.801 49.0865C50.4384 49.4651 50.2694 49.8968 50.2967 50.364C50.3272 50.8546 50.5765 51.3542 50.9822 51.7408C51.387 52.1263 51.9005 52.353 52.3875 52.3574C52.8655 52.364 53.2786 52.1761 53.6458 51.7878C54.016 51.4021 54.182 50.9792 54.1522 50.5048C54.1267 50.0322 53.8717 49.5119 53.4868 49.1475C53.0637 48.7435 52.5537 48.5205 52.0622 48.5124C51.5799 48.5075 51.1729 48.6955 50.801 49.0865ZM51.281 49.5365C51.7173 49.0775 52.3636 49.1412 52.9527 49.7013C53.5067 50.2292 53.5945 50.8883 53.1703 51.3351C52.7406 51.7854 52.0819 51.7257 51.512 51.1841C50.9449 50.6397 50.8514 49.986 51.281 49.5365Z" fill="white"/>
<path d="M49.9962 48.5808L49.606 48.991L50.0597 49.4225L50.4499 49.014L49.9962 48.5808ZM50.6546 47.8887L50.2641 48.2998L50.719 48.7314L51.1091 48.3231L50.6546 47.8887ZM50.801 49.0865C50.4384 49.4651 50.2694 49.8968 50.2967 50.364C50.3272 50.8546 50.5765 51.3542 50.9822 51.7408C51.387 52.1263 51.9005 52.353 52.3875 52.3574C52.8655 52.364 53.2786 52.1761 53.6458 51.7878C54.016 51.4021 54.182 50.9792 54.1522 50.5048C54.1267 50.0322 53.8717 49.5119 53.4868 49.1475C53.0637 48.7435 52.5537 48.5205 52.0622 48.5124C51.5799 48.5075 51.1729 48.6955 50.801 49.0865V49.0865ZM51.281 49.5365C51.7173 49.0775 52.3636 49.1412 52.9527 49.7013C53.5067 50.2292 53.5945 50.8883 53.1703 51.3351C52.7406 51.7854 52.0819 51.7257 51.512 51.1841C50.9449 50.6397 50.8514 49.986 51.281 49.5365Z" stroke="white" stroke-width="0.07577" stroke-miterlimit="10"/>
<path d="M55.4099 45.8478L54.6239 47.1372L55.1765 47.4728L55.6223 46.7397C55.7925 46.8673 55.8745 46.9783 55.9311 47.1452C56.0296 47.422 55.9967 47.7348 55.84 47.9891C55.5136 48.5242 54.814 48.6227 54.1523 48.2199C53.4598 47.7974 53.246 47.2049 53.589 46.6435C53.7289 46.4146 53.9115 46.2612 54.1296 46.1923C54.2646 46.1484 54.3701 46.1449 54.5719 46.1903L54.9497 45.5671C54.241 45.2462 53.4949 45.5283 53.0213 46.3054C52.457 47.2314 52.7566 48.2783 53.7573 48.8864C54.7326 49.4813 55.8306 49.2785 56.3594 48.41C56.6223 47.976 56.6464 47.5923 56.4338 47.125L56.9057 47.3012L57.1454 46.906L55.4099 45.8478Z" fill="white"/>
<path d="M55.4099 45.8478L54.6239 47.1372L55.1765 47.4728L55.6223 46.7397C55.7925 46.8673 55.8745 46.9783 55.9311 47.1452C56.0296 47.422 55.9967 47.7348 55.84 47.9891C55.5136 48.5242 54.814 48.6227 54.1523 48.2199C53.4598 47.7974 53.246 47.2049 53.589 46.6435C53.7289 46.4146 53.9115 46.2612 54.1296 46.1923C54.2646 46.1484 54.3701 46.1449 54.5719 46.1903L54.9497 45.567C54.241 45.2462 53.4949 45.5283 53.0213 46.3054C52.457 47.2314 52.7566 48.2783 53.7573 48.8864C54.7326 49.4813 55.8306 49.2785 56.3594 48.41C56.6223 47.976 56.6464 47.5923 56.4338 47.125L56.9057 47.3012L57.1454 46.906L55.4099 45.8478Z" stroke="white" stroke-width="0.076164" stroke-miterlimit="10"/>
<path d="M56.422 42.2379C56.1129 42.0845 55.8744 42.0542 55.6069 42.1296C55.2469 42.2332 54.9279 42.5413 54.6877 43.0278C54.2902 43.8372 54.439 44.4917 55.0965 44.8156C55.6189 45.073 56.0022 44.9351 56.4694 44.3125L56.7957 43.8873C57.1101 43.469 57.3256 43.3601 57.5965 43.4949C57.879 43.6333 57.9238 43.9767 57.7166 44.3977C57.4829 44.8699 57.1552 45.036 56.7821 44.8817L56.4495 45.5559C57.1922 45.8697 57.8271 45.5694 58.2539 44.709C58.6798 43.8385 58.5263 43.1252 57.8423 42.7877C57.3111 42.5258 56.9001 42.6568 56.473 43.2223L56.1095 43.7001C55.7703 44.1472 55.6025 44.2414 55.3571 44.1217C55.1011 43.9962 55.051 43.6884 55.2279 43.3337C55.4445 42.8951 55.7506 42.7393 56.1034 42.885L56.422 42.2379Z" fill="white"/>
<path d="M56.422 42.2379C56.1129 42.0845 55.8744 42.0542 55.6069 42.1296C55.2469 42.2332 54.9279 42.5413 54.6877 43.0278C54.2902 43.8372 54.439 44.4917 55.0965 44.8156C55.6189 45.073 56.0022 44.9351 56.4694 44.3125L56.7957 43.8873C57.1101 43.469 57.3256 43.3601 57.5965 43.4949C57.879 43.6333 57.9238 43.9767 57.7166 44.3977C57.4829 44.8699 57.1552 45.036 56.7821 44.8817L56.4495 45.5559C57.1922 45.8697 57.8271 45.5694 58.2539 44.709C58.6798 43.8385 58.5263 43.1252 57.8423 42.7877C57.3111 42.5258 56.9001 42.6568 56.473 43.2223L56.1095 43.7001C55.7703 44.1472 55.6025 44.2414 55.3571 44.1217C55.1011 43.9962 55.051 43.6884 55.2279 43.3337C55.4445 42.8951 55.7506 42.7393 56.1034 42.885L56.422 42.2379Z" stroke="white" stroke-width="0.0760736" stroke-miterlimit="10"/>
<path d="M58.2333 41.1041L57.9687 40.6149L59.9204 39.9476L60.2 39.07L57.6624 39.9977L56.5779 38.08L56.3022 38.9478L57.4239 40.8441L55.8547 40.344L55.6199 41.0806L59.1952 42.2205L59.4273 41.4847L58.2333 41.1041Z" fill="white"/>
<path d="M58.2333 41.1041L57.9687 40.6149L59.9204 39.9476L60.2 39.07L57.6624 39.9977L56.5779 38.08L56.3022 38.9478L57.4239 40.8441L55.8547 40.344L55.6199 41.0806L59.1952 42.2205L59.4273 41.4847L58.2333 41.1041Z" stroke="white" stroke-width="0.0759029" stroke-miterlimit="10"/>
<path d="M56.8477 36.1939C56.7721 36.7105 56.884 37.1628 57.1758 37.5267C57.4834 37.9099 57.9727 38.1735 58.5264 38.2546C59.0811 38.3373 59.6319 38.2264 60.0295 37.9486C60.4232 37.6788 60.6511 37.287 60.7273 36.7572C60.8059 36.2291 60.7008 35.7886 60.4018 35.4181C60.1074 35.0487 59.5978 34.7713 59.0751 34.6947C58.4964 34.6093 57.953 34.7216 57.5483 34.9992C57.1508 35.2723 56.9255 35.6599 56.8477 36.1939ZM57.4995 36.2848C57.5913 35.6589 58.1563 35.3372 58.9593 35.4557C59.7172 35.568 60.1695 36.0522 60.0781 36.663C59.9884 37.2764 59.4169 37.6087 58.6397 37.4934C57.8631 37.3799 57.4079 36.8991 57.4995 36.2848Z" fill="white"/>
<path d="M56.8477 36.1939C56.7721 36.7105 56.884 37.1628 57.1758 37.5267C57.4834 37.9099 57.9727 38.1735 58.5264 38.2546C59.0811 38.3373 59.6319 38.2264 60.0295 37.9486C60.4232 37.6788 60.6511 37.287 60.7273 36.7572C60.8059 36.2291 60.7008 35.7886 60.4018 35.4181C60.1074 35.0487 59.5978 34.7713 59.0751 34.6947C58.4964 34.6093 57.953 34.7216 57.5483 34.9992C57.1508 35.2723 56.9255 35.6599 56.8477 36.1939V36.1939ZM57.4995 36.2848C57.5913 35.6589 58.1563 35.3372 58.9593 35.4557C59.7172 35.568 60.1695 36.0522 60.0781 36.663C59.9884 37.2764 59.4169 37.6087 58.6397 37.4934C57.8631 37.3799 57.4079 36.8991 57.4995 36.2848V36.2848Z" stroke="white" stroke-width="0.0756937" stroke-miterlimit="10"/>
<path d="M57.3704 33.1956L57.3661 33.9677L61.1172 33.9878L61.1304 31.4189L60.4881 31.4158L60.4773 33.212L57.3704 33.1956Z" fill="white"/>
<path d="M57.3704 33.1956L57.3661 33.9677L61.1172 33.9878L61.1304 31.4189L60.4881 31.4158L60.4773 33.212L57.3704 33.1956Z" stroke="white" stroke-width="0.0759177" stroke-miterlimit="10"/>
<path d="M60.1091 28.2825L60.8283 27.9342L60.7215 27.1452L57.1683 28.9407L57.2825 29.7883L61.1895 30.6067L61.0841 29.8266L60.2988 29.6769L60.1091 28.2825ZM59.4983 28.577L59.6302 29.5483L58.1064 29.2621L59.4983 28.577Z" fill="white"/>
<path d="M60.1091 28.2825L60.8283 27.9342L60.7215 27.1452L57.1683 28.9407L57.2825 29.7883L61.1895 30.6067L61.0841 29.8266L60.2988 29.6769L60.1091 28.2825ZM59.4983 28.577L59.6302 29.5483L58.1064 29.2621L59.4983 28.577Z" stroke="white" stroke-width="0.0761188" stroke-miterlimit="10"/>
<path d="M7.06312 18.5365L8.07229 19.5854L7.37453 20.8814L8.73023 20.2473L9.7592 21.3262L9.54941 19.8732L10.8792 19.2409L9.41677 18.9716L9.19124 17.5046L8.49149 18.8079L7.06312 18.5365Z" stroke="white" stroke-width="0.0756978" stroke-miterlimit="10"/>
<path d="M8.48871 18.8183L9.18569 17.518L9.41046 18.9803L10.872 19.2453L9.545 19.8774L9.75669 21.3261L8.72932 20.2543L7.37811 20.8876L8.07223 19.5943L7.0648 18.5472L8.48871 18.8183Z" fill="white"/>
<path d="M15.7362 13.5494L16.8888 12.6374C17.3375 12.2841 17.5371 11.9568 17.5471 11.5594C17.5643 11.0995 17.374 10.6014 17.0129 10.1427C16.6563 9.69142 16.2153 9.38968 15.7601 9.29509C15.3735 9.21368 15.0147 9.33247 14.5613 9.69183L13.4097 10.6011L15.7362 13.5494ZM15.9435 12.5643L14.4152 10.6266L14.9606 10.1961C15.4184 9.83413 15.8966 9.97598 16.4099 10.628C16.9208 11.2754 16.9467 11.772 16.4898 12.1331L15.9435 12.5643Z" fill="white"/>
<path d="M15.7362 13.5494L16.8888 12.6374C17.3375 12.2841 17.5371 11.9568 17.5471 11.5594C17.5643 11.0995 17.374 10.6014 17.0129 10.1427C16.6563 9.69143 16.2153 9.38968 15.7601 9.29509C15.3735 9.21368 15.0147 9.33247 14.5613 9.69183L13.4097 10.6011L15.7362 13.5494ZM15.9435 12.5643L14.4152 10.6266L14.9606 10.1961C15.4184 9.83413 15.8966 9.97598 16.4099 10.628C16.9208 11.2754 16.9467 11.772 16.4898 12.1331L15.9435 12.5643Z" stroke="white" stroke-width="0.075998" stroke-miterlimit="10"/>
<path d="M20.616 9.51452L21.1811 10.0676L21.8794 9.70282L19.0178 6.9894L18.2652 7.38144L18.8076 11.298L19.5012 10.9383L19.3781 10.1551L20.616 9.51452ZM20.1354 9.04202L19.2735 9.48939L19.0331 7.97287L20.1354 9.04202Z" fill="white"/>
<path d="M20.616 9.51452L21.1811 10.0676L21.8794 9.70282L19.0178 6.9894L18.2652 7.38144L18.8076 11.298L19.5012 10.9383L19.3781 10.1551L20.616 9.51452ZM20.1354 9.04202L19.2735 9.48939L19.0331 7.97287L20.1354 9.04202Z" stroke="white" stroke-width="0.0754191" stroke-miterlimit="10"/>
<path d="M22.7509 6.02977L23.78 5.65824L23.5628 5.05561L20.7419 6.06644L20.9588 6.66975L22.0257 6.28843L23.0716 9.20609L23.7967 8.94742L22.7509 6.02977Z" fill="white"/>
<path d="M22.7509 6.02977L23.78 5.65824L23.5628 5.05561L20.7419 6.06644L20.9588 6.66975L22.0257 6.28843L23.0716 9.20609L23.7967 8.94742L22.7509 6.02977Z" stroke="white" stroke-width="0.0756937" stroke-miterlimit="10"/>
<path d="M27.3048 7.30263L27.6921 7.99148L28.4647 7.83697L26.4678 4.43214L25.6342 4.59882L25.0674 8.51929L25.8354 8.36444L25.9332 7.57601L27.3048 7.30263ZM26.9729 6.71768L26.019 6.90808L26.2097 5.3819L26.9729 6.71768Z" fill="white"/>
<path d="M27.3048 7.30263L27.6921 7.99148L28.4647 7.83697L26.4678 4.43214L25.6342 4.59882L25.0674 8.51929L25.8354 8.36444L25.9332 7.57601L27.3048 7.30263ZM26.9729 6.71768L26.019 6.90808L26.2097 5.3819L26.9729 6.71768Z" stroke="white" stroke-width="0.075496" stroke-miterlimit="10"/>
<path d="M30.464 4.52299L31.5619 4.47214L31.5327 3.82783L28.5228 3.96426L28.552 4.60857L29.691 4.55693L29.8301 7.67053L30.6022 7.63383L30.464 4.52299Z" fill="white"/>
<path d="M30.464 4.52299L31.5619 4.47214L31.5327 3.82783L28.5228 3.96426L28.552 4.60857L29.691 4.55693L29.8301 7.67053L30.6022 7.63383L30.464 4.52299Z" stroke="white" stroke-width="0.0760884" stroke-miterlimit="10"/>
<path d="M33.6188 5.85861L35.4118 6.02923L35.4718 5.38718L33.6808 5.21662L33.7604 4.36962L35.6968 4.5528L35.7577 3.911L33.052 3.65477L32.6942 7.39637L35.4927 7.66388L35.5536 7.02208L33.5255 6.8304L33.6188 5.85861Z" fill="white"/>
<path d="M33.6188 5.85861L35.4118 6.02923L35.4718 5.38718L33.6808 5.21662L33.7604 4.36962L35.6968 4.5528L35.7577 3.911L33.052 3.65477L32.6942 7.39637L35.4927 7.66388L35.5536 7.02208L33.5255 6.8304L33.6188 5.85861Z" stroke="white" stroke-width="0.0760884" stroke-miterlimit="10"/>
<path d="M37.3598 6.75042L37.8291 6.45941L38.6093 8.35774L39.4975 8.58137L38.4232 6.11873L40.2603 4.9276L39.384 4.70428L37.5672 5.93183L37.9694 4.3449L37.2263 4.1563L36.3078 7.77203L37.052 7.96066L37.3598 6.75042Z" fill="white"/>
<path d="M37.3598 6.75042L37.8291 6.45941L38.6093 8.35774L39.4975 8.58137L38.4232 6.11873L40.2603 4.9276L39.384 4.70428L37.5672 5.93183L37.9694 4.3449L37.2263 4.1563L36.3078 7.77203L37.052 7.96066L37.3598 6.75042Z" stroke="white" stroke-width="0.075496" stroke-miterlimit="10"/>
<path d="M42.4471 9.9608L43.1571 10.2648L44.6343 6.8124L43.9227 6.50837L42.9203 8.8584L42.555 5.92414L41.8246 5.61324L40.3501 9.0657L41.0602 9.36716L42.0814 6.98009L42.4471 9.9608Z" fill="white"/>
<path d="M42.4471 9.9608L43.1571 10.2648L44.6343 6.8124L43.9227 6.50837L42.9203 8.8584L42.555 5.92414L41.8246 5.61324L40.3501 9.0657L41.0602 9.36716L42.0814 6.98009L42.4471 9.9608Z" stroke="white" stroke-width="0.075971" stroke-miterlimit="10"/>
<path d="M46.7717 7.98382L46.11 7.58085L44.1507 10.795L44.8135 11.198L46.7717 7.98382Z" fill="white"/>
<path d="M46.7717 7.98382L46.11 7.58085L44.1507 10.795L44.8135 11.198L46.7717 7.98382Z" stroke="white" stroke-width="0.076164" stroke-miterlimit="10"/>
<path d="M47.1378 11.0583L47.6906 10.9742L47.6578 13.0423L48.3896 13.6058L48.3762 10.8951L50.5528 10.5266L49.8268 9.96936L47.6582 10.3836L48.6637 9.07552L48.049 8.60419L45.7599 11.5864L46.3735 12.0552L47.1378 11.0583Z" fill="white"/>
<path d="M47.1378 11.0583L47.6906 10.9742L47.6578 13.0423L48.3896 13.6058L48.3762 10.8951L50.5528 10.5266L49.8268 9.96936L47.6582 10.3836L48.6637 9.07552L48.049 8.60419L45.7599 11.5864L46.3735 12.0552L47.1378 11.0583Z" stroke="white" stroke-width="0.0760621" stroke-miterlimit="10"/>
<path d="M56.601 18.1888L55.1653 18.4892L54.4293 17.1996L54.2456 18.6965L52.7778 18.9987L54.129 19.5961L53.9575 21.0708L54.9687 19.9642L56.3433 20.555L55.6058 19.2626L56.601 18.1888Z" stroke="white" stroke-width="0.0762814" stroke-miterlimit="10"/>
<path d="M55.6147 19.2604L56.3549 20.5556L54.9775 19.9665L53.9647 21.0758L54.1362 19.5983L52.7794 19.0009L54.2529 18.6969L54.4321 17.1956L55.1724 18.4878L56.61 18.1847L55.6147 19.2604Z" fill="white"/>
<path d="M8.56428 31.6938C8.83693 18.6887 19.6357 8.42347 32.7101 8.74249C45.5573 9.08091 55.8225 19.8804 55.4347 32.8826C55.1651 45.8029 44.3657 56.0655 31.5156 55.8397C18.4441 55.4081 8.17947 44.6112 8.56428 31.6938Z" fill="#080808"/>
<path d="M8.56428 31.6938C8.83693 18.6887 19.6357 8.42347 32.7101 8.74249C45.5573 9.08091 55.8225 19.8804 55.4347 32.8826C55.1651 45.8029 44.3657 56.0655 31.5156 55.8397C18.4441 55.4081 8.17947 44.6112 8.56428 31.6938Z" stroke="#080808" stroke-width="0.0421683" stroke-miterlimit="3.86"/>
<path d="M24.7753 38.8426C24.6977 38.8426 24.6347 38.9056 24.6347 38.9832V39.243C24.6347 39.3198 24.697 39.3821 24.7737 39.3821H25.2644C25.4029 39.3821 25.5151 39.4943 25.5151 39.6328C25.5151 39.7713 25.4029 39.8835 25.2644 39.8835H24.7737C24.697 39.8835 24.6347 39.9458 24.6347 40.0225V40.3279C24.6347 40.4056 24.6977 40.4685 24.7753 40.4685H25.3703C25.514 40.4685 25.6305 40.585 25.6305 40.7288C25.6305 40.8725 25.514 40.989 25.3703 40.989H24.7273C24.3131 40.989 23.9773 40.6532 23.9773 40.239V39.0721C23.9773 38.658 24.3131 38.3222 24.7273 38.3222H25.3703C25.514 38.3222 25.6305 38.4387 25.6305 38.5824C25.6305 38.7261 25.514 38.8426 25.3703 38.8426H24.7753Z" fill="white"/>
<path d="M27.0338 41.0156C26.8365 41.0156 26.6596 40.9839 26.5033 40.9206C26.3469 40.8573 26.2213 40.7636 26.1265 40.6395C26.0745 40.5696 26.0363 40.4916 26.012 40.4056C25.9797 40.2911 26.0787 40.1912 26.1976 40.1912H26.4899C26.598 40.1912 26.679 40.2805 26.7404 40.3695C26.753 40.3878 26.7675 40.4044 26.7839 40.4192C26.8429 40.4698 26.9198 40.4951 27.0146 40.4951C27.112 40.4951 27.1889 40.4736 27.2453 40.4305C27.3017 40.385 27.3298 40.3229 27.3298 40.2444C27.3298 40.1786 27.3068 40.1241 27.2606 40.0811C27.2171 40.038 27.162 40.0025 27.0953 39.9747C27.0313 39.9468 26.939 39.9152 26.8185 39.8797C26.6442 39.8265 26.502 39.7733 26.3918 39.7202C26.2816 39.667 26.1867 39.5885 26.1073 39.4846C26.0278 39.3808 25.9881 39.2453 25.9881 39.0782C25.9881 38.83 26.0791 38.6362 26.261 38.4969C26.443 38.3551 26.6801 38.2842 26.9723 38.2842C27.2696 38.2842 27.5093 38.3551 27.6912 38.4969C27.8165 38.5928 27.9016 38.715 27.9467 38.8636C27.9818 38.9791 27.8822 39.082 27.7614 39.082H27.4709C27.3593 39.082 27.2765 38.9821 27.1991 38.9018C27.1919 38.8943 27.1843 38.8873 27.1761 38.8806C27.1171 38.83 27.0415 38.8046 26.9492 38.8046C26.8698 38.8046 26.8057 38.8262 26.757 38.8692C26.7083 38.9097 26.684 38.9693 26.684 39.0478C26.684 39.1339 26.725 39.201 26.807 39.2491C26.889 39.2972 27.0172 39.3491 27.1914 39.4049C27.3657 39.4631 27.5067 39.5188 27.6144 39.572C27.7246 39.6252 27.8194 39.7024 27.8989 39.8037C27.9783 39.905 28.018 40.0355 28.018 40.195C28.018 40.347 27.9783 40.485 27.8989 40.6091C27.822 40.7332 27.7092 40.832 27.5605 40.9054C27.4119 40.9789 27.2363 41.0156 27.0338 41.0156Z" fill="white"/>
<path d="M30.1039 38.3222C30.2476 38.3222 30.3641 38.4387 30.3641 38.5824C30.3641 38.7261 30.2476 38.8426 30.1039 38.8426H29.649V40.6603C29.649 40.8418 29.5019 40.989 29.3203 40.989C29.1388 40.989 28.9916 40.8418 28.9916 40.6603V38.8426H28.5367C28.393 38.8426 28.2765 38.7261 28.2765 38.5824C28.2765 38.4387 28.393 38.3222 28.5367 38.3222H30.1039Z" fill="white"/>
<path d="M31.4204 40.6241C31.4204 40.5266 31.621 40.3199 31.5396 40.3736C31.7908 40.1684 31.9881 40 32.1316 39.8683C32.2777 39.7366 32.4008 39.5986 32.5007 39.4542C32.6007 39.3099 32.6507 39.1693 32.6507 39.0326C32.6507 38.9287 32.6263 38.8477 32.5776 38.7894C32.5289 38.7312 32.4559 38.7021 32.3585 38.7021C32.2611 38.7021 32.1842 38.7388 32.1278 38.8122C32.1265 38.814 32.1252 38.8157 32.1239 38.8175C32.0223 38.9576 31.9067 39.1161 31.7337 39.1161C31.5576 39.1161 31.4095 38.9686 31.4567 38.799C31.4795 38.7174 31.5109 38.6433 31.5511 38.5767C31.6408 38.4323 31.7574 38.326 31.901 38.2576C32.0471 38.1892 32.2085 38.155 32.3854 38.155C32.6904 38.155 32.9198 38.2323 33.0736 38.3868C33.2299 38.5412 33.3081 38.7426 33.3081 38.9908C33.3081 39.2618 33.2145 39.5138 33.0274 39.7468C32.8403 39.9772 32.602 40.2026 32.3123 40.423H33.0864C33.2322 40.423 33.3504 40.5412 33.3504 40.687C33.3504 40.8328 33.2322 40.951 33.0864 40.951H31.745C31.5657 40.951 31.4204 40.8034 31.4204 40.6241Z" fill="white"/>
<path d="M33.6398 39.5644C33.6398 39.1288 33.7244 38.7856 33.8936 38.5349C34.0653 38.2842 34.3408 38.1588 34.7202 38.1588C35.0995 38.1588 35.3738 38.2842 35.5429 38.5349C35.7146 38.7856 35.8005 39.1288 35.8005 39.5644C35.8005 40.0051 35.7146 40.3508 35.5429 40.6015C35.3738 40.8522 35.0995 40.9776 34.7202 40.9776C34.3408 40.9776 34.0653 40.8522 33.8936 40.6015C33.7244 40.3508 33.6398 40.0051 33.6398 39.5644ZM35.1546 39.5644C35.1546 39.3086 35.1264 39.1123 35.07 38.9756C35.0136 38.8363 34.897 38.7666 34.7202 38.7666C34.5433 38.7666 34.4267 38.8363 34.3703 38.9756C34.3139 39.1123 34.2857 39.3086 34.2857 39.5644C34.2857 39.7366 34.296 39.8797 34.3165 39.9937C34.337 40.1051 34.378 40.1963 34.4395 40.2672C34.5036 40.3356 34.5971 40.3698 34.7202 40.3698C34.8432 40.3698 34.9355 40.3356 34.997 40.2672C35.0611 40.1963 35.1033 40.1051 35.1239 39.9937C35.1444 39.8797 35.1546 39.7366 35.1546 39.5644Z" fill="white"/>
<path d="M36.1248 40.6241C36.1248 40.5266 36.3254 40.3199 36.244 40.3736C36.4951 40.1684 36.6925 40 36.836 39.8683C36.9821 39.7366 37.1051 39.5986 37.2051 39.4542C37.3051 39.3099 37.355 39.1693 37.355 39.0326C37.355 38.9287 37.3307 38.8477 37.282 38.7894C37.2333 38.7312 37.1603 38.7021 37.0629 38.7021C36.9655 38.7021 36.8886 38.7388 36.8322 38.8122C36.8309 38.814 36.8296 38.8157 36.8283 38.8175C36.7267 38.9576 36.6111 39.1161 36.438 39.1161C36.262 39.1161 36.1139 38.9686 36.1611 38.799C36.1838 38.7174 36.2153 38.6433 36.2555 38.5767C36.3452 38.4323 36.4618 38.326 36.6053 38.2576C36.7514 38.1892 36.9129 38.155 37.0898 38.155C37.3948 38.155 37.6242 38.2323 37.778 38.3868C37.9343 38.5412 38.0125 38.7426 38.0125 38.9908C38.0125 39.2618 37.9189 39.5138 37.7318 39.7468C37.5447 39.9772 37.3063 40.2026 37.0167 40.423H37.7907C37.9366 40.423 38.0548 40.5412 38.0548 40.687C38.0548 40.8328 37.9366 40.951 37.7907 40.951H36.4493C36.2701 40.951 36.1248 40.8034 36.1248 40.6241Z" fill="white"/>
<path d="M38.3442 39.5644C38.3442 39.1288 38.4288 38.7856 38.598 38.5349C38.7697 38.2842 39.0452 38.1588 39.4246 38.1588C39.8039 38.1588 40.0781 38.2842 40.2473 38.5349C40.419 38.7856 40.5049 39.1288 40.5049 39.5644C40.5049 40.0051 40.419 40.3508 40.2473 40.6015C40.0781 40.8522 39.8039 40.9776 39.4246 40.9776C39.0452 40.9776 38.7697 40.8522 38.598 40.6015C38.4288 40.3508 38.3442 40.0051 38.3442 39.5644ZM39.859 39.5644C39.859 39.3086 39.8308 39.1123 39.7744 38.9756C39.718 38.8363 39.6014 38.7666 39.4246 38.7666C39.2477 38.7666 39.1311 38.8363 39.0747 38.9756C39.0183 39.1123 38.9901 39.3086 38.9901 39.5644C38.9901 39.7366 39.0004 39.8797 39.0209 39.9937C39.0414 40.1051 39.0824 40.1963 39.1439 40.2672C39.208 40.3356 39.3015 40.3698 39.4246 40.3698C39.5476 40.3698 39.6399 40.3356 39.7014 40.2672C39.7654 40.1963 39.8077 40.1051 39.8282 39.9937C39.8487 39.8797 39.859 39.7366 39.859 39.5644Z" fill="white"/>
<path fill-rule="evenodd" clip-rule="evenodd" d="M16.5955 27.6622C17.2745 27.3023 18.068 27.1223 18.976 27.1223H21.0781C21.6995 27.1223 22.2031 27.626 22.2031 28.2473V34.6112C22.2031 35.2325 21.6995 35.7362 21.0781 35.7362H18.976C18.0762 35.7362 17.2868 35.5562 16.6078 35.1963C15.9206 34.8364 15.393 34.3292 15.0249 33.6748C14.6486 33.0203 14.4604 32.2718 14.4604 31.4293C14.4604 30.5785 14.6486 29.83 15.0249 29.1838C15.393 28.5293 15.9165 28.0222 16.5955 27.6622ZM17.2581 33.2698C17.6999 33.7034 18.3175 33.9202 19.111 33.9202H19.8359C19.9844 33.9202 20.1049 33.7997 20.1049 33.6512V29.1828C20.1049 29.0343 19.9844 28.9138 19.8359 28.9138H19.111C18.3175 28.9138 17.6999 29.1347 17.2581 29.5764C16.8164 30.0182 16.5955 30.6358 16.5955 31.4293C16.5955 32.2228 16.8164 32.8363 17.2581 33.2698ZM28.5426 35.5048C28.6536 35.6506 28.8264 35.7362 29.0096 35.7362H30.0738C30.5639 35.7362 30.8381 35.1711 30.5349 34.786L27.823 31.3434L30.4086 28.0733C30.7129 27.6885 30.4388 27.1223 29.9482 27.1223H28.9855C28.802 27.1223 28.6291 27.2081 28.5181 27.3542L25.8229 30.9016V27.7093C25.8229 27.3851 25.5602 27.1223 25.236 27.1223H24.3117C23.9875 27.1223 23.7247 27.3851 23.7247 27.7093V35.1493C23.7247 35.4734 23.9875 35.7362 24.3117 35.7362H25.236C25.5602 35.7362 25.8229 35.4734 25.8229 35.1493V31.9324L28.5426 35.5048ZM34.2583 34.7793C34.2232 34.8409 34.1935 34.9065 34.1702 34.9754L34.1483 35.0399C34.0073 35.4561 33.6168 35.7362 33.1773 35.7362C32.4665 35.7362 31.9714 35.0305 32.2132 34.3622L34.4194 28.2646C34.6675 27.579 35.3185 27.1223 36.0475 27.1223C36.7766 27.1223 37.4276 27.579 37.6756 28.2646L39.8763 34.3468C40.1208 35.0226 39.6202 35.7362 38.9015 35.7362C38.4571 35.7362 38.0621 35.453 37.9196 35.0321L37.9004 34.9754C37.877 34.9065 37.8474 34.8409 37.8122 34.7793H37.8358L36.8419 31.8344L36.7818 31.6568C36.7763 31.6338 36.7696 31.6107 36.7618 31.5878C36.7538 31.5639 36.7448 31.5408 36.735 31.5185L36.032 29.4416L34.2405 34.7793H34.2583ZM46.1455 35.5048C46.2565 35.6506 46.4293 35.7362 46.6126 35.7362H47.6767C48.1668 35.7362 48.4411 35.1711 48.1378 34.786L45.426 31.3434L48.0116 28.0733C48.3159 27.6885 48.0418 27.1223 47.5511 27.1223H46.5884C46.4049 27.1223 46.232 27.2081 46.121 27.3542L43.4259 30.9016V27.7093C43.4259 27.3851 43.1631 27.1223 42.8389 27.1223H41.9146C41.5904 27.1223 41.3276 27.3851 41.3276 27.7093V35.1493C41.3276 35.4734 41.5904 35.7362 41.9146 35.7362H42.8389C43.1631 35.7362 43.4259 35.4734 43.4259 35.1493V31.9324L46.1455 35.5048Z" fill="white"/>
<mask id="mask0_104_2" style="mask-type:alpha" maskUnits="userSpaceOnUse" x="8" y="8" width="48" height="48">
<path d="M8.54808 32.2939C8.49091 19.2861 19.026 8.75033 32.1042 8.73775C44.9559 8.75033 55.4916 19.2861 55.4335 32.2939C55.4916 45.2169 44.9559 55.75 32.1042 55.8501C19.026 55.75 8.49091 45.2169 8.54808 32.2939Z" fill="#FF0000"/>
</mask>
<g mask="url(#mask0_104_2)">
<path fill-rule="evenodd" clip-rule="evenodd" d="M17.6555 13.1864C22.2135 17.3862 28.9691 12.0062 31.5329 8.30282L31.5329 8.30244L31.533 8.30266C35.3856 2.71372 46.3464 -6.86074 59.3692 -0.447021C75.6477 7.57013 73.6943 28.4473 66.5318 39.4353C59.3692 50.4232 44.0675 69.5911 31.9807 76.2653C30.1664 74.9558 27.9673 73.2598 25.5495 71.257C26.5833 71.3137 27.5097 70.9765 28.0331 69.9167C29.3354 67.2796 26.2967 63.8801 24.6146 62.51C22.2542 60.5973 18.673 59.9054 16.9637 61.167C16.2259 61.7116 16.2132 62.4544 16.473 63.1359C7.65561 54.6213 -1.43031 43.8297 -5.01217 33.5343C-12.4596 12.1281 -2.5297 -0.0807581 12.1616 -2.64462C13.6339 -2.90156 15.0169 -2.99301 16.3128 -2.94755C15.1806 -2.7193 14.1904 -2.40791 13.4231 -1.99331C8.59436 0.615769 12.3733 2.51686 15.4536 4.06653L15.454 4.06671L15.4552 4.06733L15.4569 4.06817C15.5945 4.13744 15.7308 4.206 15.8649 4.2739C18.3718 5.54362 18.4287 7.16333 17.1672 8.09934C16.1208 8.87568 15.2137 10.6795 17.6555 13.1864ZM61.4854 27.0638C62.2857 24.7169 64.5864 19.9419 67.3863 19.6164C70.8862 19.2094 70.1536 27.9591 67.5084 33.2496C64.8631 38.5401 61.2005 39.0691 60.6714 34.6333C60.2482 31.0845 61.0377 28.1083 61.4854 27.0638ZM15.295 23.3604C14.047 23.8352 10.8184 24.7197 7.88829 24.4592C4.22563 24.1336 -1.8381 28.2439 -2.16367 32.924C-2.48924 37.6041 0.807152 44.1562 6.91158 43.3422C8.26252 43.1621 9.37826 42.9441 10.3131 42.7615C13.6024 42.1188 14.6515 41.9138 15.8241 45.3364C17.3298 49.7315 20.0158 52.4989 25.8353 52.214C31.6549 51.9291 35.3582 53.8826 33.0385 59.9056C32.8616 60.3733 32.664 60.837 32.4696 61.2933C31.4122 63.7754 30.4484 66.0376 33.4048 67.5158C36.9047 69.2657 40.608 64.4229 41.3406 60.8009C41.4037 60.4886 41.4675 60.1639 41.5328 59.8313C42.2253 56.3054 43.094 51.8814 45.2881 51.8071C47.6059 51.7285 47.4967 54.2666 47.4497 55.3579C47.448 55.3971 47.4464 55.4344 47.445 55.4697C47.4043 56.4871 47.2944 62.5377 51.7588 56.8127C55.218 52.3768 57.4563 49.1211 58.4737 47.0049C58.4941 46.9625 58.5147 46.9196 58.5356 46.8762C59.8164 44.2153 61.9399 39.8039 57.3749 37.4413C52.8032 35.0752 48.7473 29.5462 56.1947 21.0814C63.6421 12.6166 59.7353 4.11111 54.4854 2.32047C49.2356 0.529842 40.9743 1.95421 42.2359 6.3494C42.5099 7.30398 42.8261 8.11459 43.1025 8.82291C44.0984 11.3759 44.576 12.6002 40.6894 14.4479C38.4804 15.4982 36.6339 15.2513 34.7376 14.9978C32.3721 14.6815 29.9292 14.3549 26.6085 16.5234C24.7162 17.7592 23.337 18.7385 22.1939 19.5501C19.7231 21.3043 18.3556 22.2753 15.295 23.3604Z" fill="url(#paint1_radial_104_2)"/>
<path fill-rule="evenodd" clip-rule="evenodd" d="M17.6555 13.1864C22.2135 17.3862 28.9691 12.0062 31.5329 8.30282L31.5329 8.30244L31.533 8.30266C35.3856 2.71372 46.3464 -6.86074 59.3692 -0.447021C75.6477 7.57013 73.6943 28.4473 66.5318 39.4353C59.3692 50.4232 44.0675 69.5911 31.9807 76.2653C30.1664 74.9558 27.9673 73.2598 25.5495 71.257C26.5833 71.3137 27.5097 70.9765 28.0331 69.9167C29.3354 67.2796 26.2967 63.8801 24.6146 62.51C22.2542 60.5973 18.673 59.9054 16.9637 61.167C16.2259 61.7116 16.2132 62.4544 16.473 63.1359C7.65561 54.6213 -1.43031 43.8297 -5.01217 33.5343C-12.4596 12.1281 -2.5297 -0.0807581 12.1616 -2.64462C13.6339 -2.90156 15.0169 -2.99301 16.3128 -2.94755C15.1806 -2.7193 14.1904 -2.40791 13.4231 -1.99331C8.59436 0.615769 12.3733 2.51686 15.4536 4.06653L15.454 4.06671L15.4552 4.06733L15.4569 4.06817C15.5945 4.13744 15.7308 4.206 15.8649 4.2739C18.3718 5.54362 18.4287 7.16333 17.1672 8.09934C16.1208 8.87568 15.2137 10.6795 17.6555 13.1864ZM61.4854 27.0638C62.2857 24.7169 64.5864 19.9419 67.3863 19.6164C70.8862 19.2094 70.1536 27.9591 67.5084 33.2496C64.8631 38.5401 61.2005 39.0691 60.6714 34.6333C60.2482 31.0845 61.0377 28.1083 61.4854 27.0638ZM15.295 23.3604C14.047 23.8352 10.8184 24.7197 7.88829 24.4592C4.22563 24.1336 -1.8381 28.2439 -2.16367 32.924C-2.48924 37.6041 0.807152 44.1562 6.91158 43.3422C8.26252 43.1621 9.37826 42.9441 10.3131 42.7615C13.6024 42.1188 14.6515 41.9138 15.8241 45.3364C17.3298 49.7315 20.0158 52.4989 25.8353 52.214C31.6549 51.9291 35.3582 53.8826 33.0385 59.9056C32.8616 60.3733 32.664 60.837 32.4696 61.2933C31.4122 63.7754 30.4484 66.0376 33.4048 67.5158C36.9047 69.2657 40.608 64.4229 41.3406 60.8009C41.4037 60.4886 41.4675 60.1639 41.5328 59.8313C42.2253 56.3054 43.094 51.8814 45.2881 51.8071C47.6059 51.7285 47.4967 54.2666 47.4497 55.3579C47.448 55.3971 47.4464 55.4344 47.445 55.4697C47.4043 56.4871 47.2944 62.5377 51.7588 56.8127C55.218 52.3768 57.4563 49.1211 58.4737 47.0049C58.4941 46.9625 58.5147 46.9196 58.5356 46.8762C59.8164 44.2153 61.9399 39.8039 57.3749 37.4413C52.8032 35.0752 48.7473 29.5462 56.1947 21.0814C63.6421 12.6166 59.7353 4.11111 54.4854 2.32047C49.2356 0.529842 40.9743 1.95421 42.2359 6.3494C42.5099 7.30398 42.8261 8.11459 43.1025 8.82291C44.0984 11.3759 44.576 12.6002 40.6894 14.4479C38.4804 15.4982 36.6339 15.2513 34.7376 14.9978C32.3721 14.6815 29.9292 14.3549 26.6085 16.5234C24.7162 17.7592 23.337 18.7385 22.1939 19.5501C19.7231 21.3043 18.3556 22.2753 15.295 23.3604Z" fill="url(#paint2_linear_104_2)"/>
<path fill-rule="evenodd" clip-rule="evenodd" d="M17.6555 13.1864C22.2135 17.3862 28.9691 12.0062 31.5329 8.30282L31.5329 8.30244L31.533 8.30266C35.3856 2.71372 46.3464 -6.86074 59.3692 -0.447021C75.6477 7.57013 73.6943 28.4473 66.5318 39.4353C59.3692 50.4232 44.0675 69.5911 31.9807 76.2653C30.1664 74.9558 27.9673 73.2598 25.5495 71.257C26.5833 71.3137 27.5097 70.9765 28.0331 69.9167C29.3354 67.2796 26.2967 63.8801 24.6146 62.51C22.2542 60.5973 18.673 59.9054 16.9637 61.167C16.2259 61.7116 16.2132 62.4544 16.473 63.1359C7.65561 54.6213 -1.43031 43.8297 -5.01217 33.5343C-12.4596 12.1281 -2.5297 -0.0807581 12.1616 -2.64462C13.6339 -2.90156 15.0169 -2.99301 16.3128 -2.94755C15.1806 -2.7193 14.1904 -2.40791 13.4231 -1.99331C8.59436 0.615769 12.3733 2.51686 15.4536 4.06653L15.454 4.06671L15.4552 4.06733L15.4569 4.06817C15.5945 4.13744 15.7308 4.206 15.8649 4.2739C18.3718 5.54362 18.4287 7.16333 17.1672 8.09934C16.1208 8.87568 15.2137 10.6795 17.6555 13.1864ZM61.4854 27.0638C62.2857 24.7169 64.5864 19.9419 67.3863 19.6164C70.8862 19.2094 70.1536 27.9591 67.5084 33.2496C64.8631 38.5401 61.2005 39.0691 60.6714 34.6333C60.2482 31.0845 61.0377 28.1083 61.4854 27.0638ZM15.295 23.3604C14.047 23.8352 10.8184 24.7197 7.88829 24.4592C4.22563 24.1336 -1.8381 28.2439 -2.16367 32.924C-2.48924 37.6041 0.807152 44.1562 6.91158 43.3422C8.26252 43.1621 9.37826 42.9441 10.3131 42.7615C13.6024 42.1188 14.6515 41.9138 15.8241 45.3364C17.3298 49.7315 20.0158 52.4989 25.8353 52.214C31.6549 51.9291 35.3582 53.8826 33.0385 59.9056C32.8616 60.3733 32.664 60.837 32.4696 61.2933C31.4122 63.7754 30.4484 66.0376 33.4048 67.5158C36.9047 69.2657 40.608 64.4229 41.3406 60.8009C41.4037 60.4886 41.4675 60.1639 41.5328 59.8313C42.2253 56.3054 43.094 51.8814 45.2881 51.8071C47.6059 51.7285 47.4967 54.2666 47.4497 55.3579C47.448 55.3971 47.4464 55.4344 47.445 55.4697C47.4043 56.4871 47.2944 62.5377 51.7588 56.8127C55.218 52.3768 57.4563 49.1211 58.4737 47.0049C58.4941 46.9625 58.5147 46.9196 58.5356 46.8762C59.8164 44.2153 61.9399 39.8039 57.3749 37.4413C52.8032 35.0752 48.7473 29.5462 56.1947 21.0814C63.6421 12.6166 59.7353 4.11111 54.4854 2.32047C49.2356 0.529842 40.9743 1.95421 42.2359 6.3494C42.5099 7.30398 42.8261 8.11459 43.1025 8.82291C44.0984 11.3759 44.576 12.6002 40.6894 14.4479C38.4804 15.4982 36.6339 15.2513 34.7376 14.9978C32.3721 14.6815 29.9292 14.3549 26.6085 16.5234C24.7162 17.7592 23.337 18.7385 22.1939 19.5501C19.7231 21.3043 18.3556 22.2753 15.295 23.3604Z" fill="url(#paint3_linear_104_2)"/>
<path fill-rule="evenodd" clip-rule="evenodd" d="M17.6555 13.1864C22.2135 17.3862 28.9691 12.0062 31.5329 8.30282L31.5329 8.30244L31.533 8.30266C35.3856 2.71372 46.3464 -6.86074 59.3692 -0.447021C75.6477 7.57013 73.6943 28.4473 66.5318 39.4353C59.3692 50.4232 44.0675 69.5911 31.9807 76.2653C30.1664 74.9558 27.9673 73.2598 25.5495 71.257C26.5833 71.3137 27.5097 70.9765 28.0331 69.9167C29.3354 67.2796 26.2967 63.8801 24.6146 62.51C22.2542 60.5973 18.673 59.9054 16.9637 61.167C16.2259 61.7116 16.2132 62.4544 16.473 63.1359C7.65561 54.6213 -1.43031 43.8297 -5.01217 33.5343C-12.4596 12.1281 -2.5297 -0.0807581 12.1616 -2.64462C13.6339 -2.90156 15.0169 -2.99301 16.3128 -2.94755C15.1806 -2.7193 14.1904 -2.40791 13.4231 -1.99331C8.59436 0.615769 12.3733 2.51686 15.4536 4.06653L15.454 4.06671L15.4552 4.06733L15.4569 4.06817C15.5945 4.13744 15.7308 4.206 15.8649 4.2739C18.3718 5.54362 18.4287 7.16333 17.1672 8.09934C16.1208 8.87568 15.2137 10.6795 17.6555 13.1864ZM61.4854 27.0638C62.2857 24.7169 64.5864 19.9419 67.3863 19.6164C70.8862 19.2094 70.1536 27.9591 67.5084 33.2496C64.8631 38.5401 61.2005 39.0691 60.6714 34.6333C60.2482 31.0845 61.0377 28.1083 61.4854 27.0638ZM15.295 23.3604C14.047 23.8352 10.8184 24.7197 7.88829 24.4592C4.22563 24.1336 -1.8381 28.2439 -2.16367 32.924C-2.48924 37.6041 0.807152 44.1562 6.91158 43.3422C8.26252 43.1621 9.37826 42.9441 10.3131 42.7615C13.6024 42.1188 14.6515 41.9138 15.8241 45.3364C17.3298 49.7315 20.0158 52.4989 25.8353 52.214C31.6549 51.9291 35.3582 53.8826 33.0385 59.9056C32.8616 60.3733 32.664 60.837 32.4696 61.2933C31.4122 63.7754 30.4484 66.0376 33.4048 67.5158C36.9047 69.2657 40.608 64.4229 41.3406 60.8009C41.4037 60.4886 41.4675 60.1639 41.5328 59.8313C42.2253 56.3054 43.094 51.8814 45.2881 51.8071C47.6059 51.7285 47.4967 54.2666 47.4497 55.3579C47.448 55.3971 47.4464 55.4344 47.445 55.4697C47.4043 56.4871 47.2944 62.5377 51.7588 56.8127C55.218 52.3768 57.4563 49.1211 58.4737 47.0049C58.4941 46.9625 58.5147 46.9196 58.5356 46.8762C59.8164 44.2153 61.9399 39.8039 57.3749 37.4413C52.8032 35.0752 48.7473 29.5462 56.1947 21.0814C63.6421 12.6166 59.7353 4.11111 54.4854 2.32047C49.2356 0.529842 40.9743 1.95421 42.2359 6.3494C42.5099 7.30398 42.8261 8.11459 43.1025 8.82291C44.0984 11.3759 44.576 12.6002 40.6894 14.4479C38.4804 15.4982 36.6339 15.2513 34.7376 14.9978C32.3721 14.6815 29.9292 14.3549 26.6085 16.5234C24.7162 17.7592 23.337 18.7385 22.1939 19.5501C19.7231 21.3043 18.3556 22.2753 15.295 23.3604Z" fill="url(#paint4_radial_104_2)" fill-opacity="0.25" style="mix-blend-mode:overlay"/>
<path fill-rule="evenodd" clip-rule="evenodd" d="M17.6555 13.1864C22.2135 17.3862 28.9691 12.0062 31.5329 8.30282L31.5329 8.30244L31.533 8.30266C35.3856 2.71372 46.3464 -6.86074 59.3692 -0.447021C75.6477 7.57013 73.6943 28.4473 66.5318 39.4353C59.3692 50.4232 44.0675 69.5911 31.9807 76.2653C30.1664 74.9558 27.9673 73.2598 25.5495 71.257C26.5833 71.3137 27.5097 70.9765 28.0331 69.9167C29.3354 67.2796 26.2967 63.8801 24.6146 62.51C22.2542 60.5973 18.673 59.9054 16.9637 61.167C16.2259 61.7116 16.2132 62.4544 16.473 63.1359C7.65561 54.6213 -1.43031 43.8297 -5.01217 33.5343C-12.4596 12.1281 -2.5297 -0.0807581 12.1616 -2.64462C13.6339 -2.90156 15.0169 -2.99301 16.3128 -2.94755C15.1806 -2.7193 14.1904 -2.40791 13.4231 -1.99331C8.59436 0.615769 12.3733 2.51686 15.4536 4.06653L15.454 4.06671L15.4552 4.06733L15.4569 4.06817C15.5945 4.13744 15.7308 4.206 15.8649 4.2739C18.3718 5.54362 18.4287 7.16333 17.1672 8.09934C16.1208 8.87568 15.2137 10.6795 17.6555 13.1864ZM61.4854 27.0638C62.2857 24.7169 64.5864 19.9419 67.3863 19.6164C70.8862 19.2094 70.1536 27.9591 67.5084 33.2496C64.8631 38.5401 61.2005 39.0691 60.6714 34.6333C60.2482 31.0845 61.0377 28.1083 61.4854 27.0638ZM15.295 23.3604C14.047 23.8352 10.8184 24.7197 7.88829 24.4592C4.22563 24.1336 -1.8381 28.2439 -2.16367 32.924C-2.48924 37.6041 0.807152 44.1562 6.91158 43.3422C8.26252 43.1621 9.37826 42.9441 10.3131 42.7615C13.6024 42.1188 14.6515 41.9138 15.8241 45.3364C17.3298 49.7315 20.0158 52.4989 25.8353 52.214C31.6549 51.9291 35.3582 53.8826 33.0385 59.9056C32.8616 60.3733 32.664 60.837 32.4696 61.2933C31.4122 63.7754 30.4484 66.0376 33.4048 67.5158C36.9047 69.2657 40.608 64.4229 41.3406 60.8009C41.4037 60.4886 41.4675 60.1639 41.5328 59.8313C42.2253 56.3054 43.094 51.8814 45.2881 51.8071C47.6059 51.7285 47.4967 54.2666 47.4497 55.3579C47.448 55.3971 47.4464 55.4344 47.445 55.4697C47.4043 56.4871 47.2944 62.5377 51.7588 56.8127C55.218 52.3768 57.4563 49.1211 58.4737 47.0049C58.4941 46.9625 58.5147 46.9196 58.5356 46.8762C59.8164 44.2153 61.9399 39.8039 57.3749 37.4413C52.8032 35.0752 48.7473 29.5462 56.1947 21.0814C63.6421 12.6166 59.7353 4.11111 54.4854 2.32047C49.2356 0.529842 40.9743 1.95421 42.2359 6.3494C42.5099 7.30398 42.8261 8.11459 43.1025 8.82291C44.0984 11.3759 44.576 12.6002 40.6894 14.4479C38.4804 15.4982 36.6339 15.2513 34.7376 14.9978C32.3721 14.6815 29.9292 14.3549 26.6085 16.5234C24.7162 17.7592 23.337 18.7385 22.1939 19.5501C19.7231 21.3043 18.3556 22.2753 15.295 23.3604Z" fill="url(#paint5_radial_104_2)" style="mix-blend-mode:soft-light"/>
</g>
<defs>
<linearGradient id="paint0_linear_104_2" x1="31.4283" y1="63.845" x2="33.0114" y2="1.42827" gradientUnits="userSpaceOnUse">
<stop stop-color="#F7A038"/>
<stop offset="1" stop-color="#F57226"/>
</linearGradient>
<radialGradient id="paint1_radial_104_2" cx="0" cy="0" r="1" gradientUnits="userSpaceOnUse" gradientTransform="translate(36.2945 34.7552) rotate(141.29) scale(73.0141 73.1754)">
<stop stop-color="white"/>
<stop offset="1" stop-color="#FFA800"/>
</radialGradient>
<linearGradient id="paint2_linear_104_2" x1="75.9733" y1="-11.3943" x2="-1.4309" y2="73.4573" gradientUnits="userSpaceOnUse">
<stop stop-color="#F67126"/>
<stop offset="1" stop-color="#F6A326" stop-opacity="0.65"/>
</linearGradient>
<linearGradient id="paint3_linear_104_2" x1="75.9733" y1="-11.3943" x2="-1.4309" y2="73.4573" gradientUnits="userSpaceOnUse">
<stop stop-color="#F67227"/>
<stop offset="1" stop-color="#F6A326" stop-opacity="0.65"/>
</linearGradient>
<radialGradient id="paint4_radial_104_2" cx="0" cy="0" r="1" gradientUnits="userSpaceOnUse" gradientTransform="translate(36.2945 34.7552) rotate(139.448) scale(20.4065 35.4066)">
<stop stop-opacity="0"/>
<stop offset="0.651042" stop-opacity="0.0633333"/>
<stop offset="1" stop-opacity="0.38"/>
</radialGradient>
<radialGradient id="paint5_radial_104_2" cx="0" cy="0" r="1" gradientUnits="userSpaceOnUse" gradientTransform="translate(32.1435 31.4181) rotate(117.124) scale(16.7811 29.1163)">
<stop stop-color="white" stop-opacity="0"/>
<stop offset="0.651042" stop-color="white" stop-opacity="0.35"/>
<stop offset="1" stop-color="white" stop-opacity="0"/>
</radialGradient>
</defs>
</svg>
