<svg width="3153" height="1296" viewBox="0 0 3153 1296" fill="none" xmlns="http://www.w3.org/2000/svg">
<path d="M961.957 1092.95C954.69 1092.95 948.799 1098.84 948.799 1106.11V1130.29C948.799 1137.45 954.603 1143.25 961.762 1143.25H1007.52C1020.43 1143.25 1030.9 1153.72 1030.9 1166.64C1030.9 1179.55 1020.43 1190.02 1007.52 1190.02H961.762C954.603 1190.02 948.799 1195.82 948.799 1202.98V1231.41C948.799 1238.68 954.69 1244.57 961.957 1244.57H1017.39C1030.79 1244.57 1041.65 1255.43 1041.65 1268.84C1041.65 1282.24 1030.79 1293.1 1017.39 1293.1H957.67C918.912 1293.1 887.493 1261.68 887.493 1222.93V1114.6C887.493 1075.84 918.912 1044.42 957.67 1044.42H1017.39C1030.79 1044.42 1041.65 1055.28 1041.65 1068.68C1041.65 1082.09 1030.79 1092.95 1017.39 1092.95H961.957Z" fill="#080808"/>
<path d="M1172.52 1295.58C1154.12 1295.58 1137.62 1292.63 1123.04 1286.73C1108.46 1280.82 1096.75 1272.08 1087.91 1260.51C1083.07 1254.01 1079.52 1246.76 1077.25 1238.77C1074.21 1228.06 1083.48 1218.71 1094.61 1218.71H1121.74C1131.85 1218.71 1139.43 1227.07 1145.19 1235.38C1146.36 1237.07 1147.7 1238.6 1149.22 1239.97C1154.71 1244.69 1161.88 1247.05 1170.73 1247.05C1179.81 1247.05 1186.98 1245.04 1192.24 1241.03C1197.5 1236.78 1200.12 1230.99 1200.12 1223.67C1200.12 1217.53 1197.97 1212.45 1193.67 1208.44C1189.61 1204.42 1184.47 1201.12 1178.26 1198.52C1172.28 1195.92 1163.68 1192.97 1152.44 1189.66C1136.19 1184.7 1122.92 1179.74 1112.65 1174.78C1102.37 1169.82 1093.53 1162.5 1086.12 1152.82C1078.71 1143.14 1075 1130.5 1075 1114.91C1075 1091.77 1083.49 1073.7 1100.46 1060.71C1117.43 1047.49 1139.54 1040.88 1166.78 1040.88C1194.51 1040.88 1216.86 1047.49 1233.83 1060.71C1245.48 1069.64 1253.42 1081.01 1257.63 1094.84C1260.92 1105.64 1251.6 1115.27 1240.3 1115.27H1213.34C1202.9 1115.27 1195.15 1105.92 1187.89 1098.42C1187.23 1097.75 1186.53 1097.1 1185.78 1096.49C1180.29 1091.77 1173.24 1089.41 1164.63 1089.41C1157.22 1089.41 1151.25 1091.42 1146.71 1095.43C1142.16 1099.21 1139.89 1104.76 1139.89 1112.08C1139.89 1120.11 1143.72 1126.37 1151.37 1130.86C1159.01 1135.34 1170.97 1140.18 1187.22 1145.38C1203.47 1150.81 1216.62 1156.01 1226.66 1160.97C1236.93 1165.93 1245.78 1173.13 1253.19 1182.58C1260.59 1192.02 1264.3 1204.19 1264.3 1219.06C1264.3 1233.23 1260.59 1246.11 1253.19 1257.68C1246.01 1269.25 1235.5 1278.46 1221.64 1285.31C1207.77 1292.16 1191.4 1295.58 1172.52 1295.58Z" fill="#080808"/>
<path d="M1458.81 1044.42C1472.21 1044.42 1483.08 1055.28 1483.08 1068.68C1483.08 1082.09 1472.21 1092.95 1458.81 1092.95H1416.39V1262.45C1416.39 1279.38 1402.67 1293.1 1385.74 1293.1C1368.81 1293.1 1355.09 1279.38 1355.09 1262.45V1092.95H1312.67C1299.27 1092.95 1288.4 1082.09 1288.4 1068.68C1288.4 1055.28 1299.27 1044.42 1312.67 1044.42H1458.81Z" fill="#080808"/>
<path d="M1581.58 1259.08C1581.58 1249.98 1600.29 1230.71 1592.69 1235.71C1616.11 1216.58 1634.52 1200.88 1647.9 1188.6C1661.52 1176.32 1673 1163.45 1682.32 1149.99C1691.64 1136.52 1696.3 1123.42 1696.3 1110.66C1696.3 1100.98 1694.03 1093.42 1689.49 1087.99C1684.95 1082.56 1678.14 1079.84 1669.05 1079.84C1659.97 1079.84 1652.8 1083.27 1647.54 1090.12C1647.42 1090.28 1647.3 1090.44 1647.18 1090.61C1637.7 1103.67 1626.93 1118.46 1610.79 1118.46C1594.37 1118.46 1580.56 1104.7 1584.96 1088.89C1587.08 1081.27 1590.02 1074.36 1593.77 1068.15C1602.13 1054.69 1613.01 1044.77 1626.39 1038.4C1640.01 1032.02 1655.07 1028.83 1671.56 1028.83C1700.01 1028.83 1721.4 1036.03 1735.74 1050.44C1750.32 1064.85 1757.61 1083.62 1757.61 1106.77C1757.61 1132.04 1748.88 1155.54 1731.44 1177.26C1713.99 1198.75 1691.76 1219.77 1664.75 1240.32H1736.93C1750.53 1240.32 1761.55 1251.34 1761.55 1264.94C1761.55 1278.54 1750.53 1289.56 1736.93 1289.56H1611.84C1595.13 1289.56 1581.58 1275.8 1581.58 1259.08Z" fill="#080808"/>
<path d="M1788.54 1160.26C1788.54 1119.64 1796.43 1087.64 1812.21 1064.26C1828.22 1040.88 1853.91 1029.19 1889.29 1029.19C1924.66 1029.19 1950.23 1040.88 1966.01 1064.26C1982.02 1087.64 1990.03 1119.64 1990.03 1160.26C1990.03 1201.35 1982.02 1233.59 1966.01 1256.97C1950.23 1280.35 1924.66 1292.04 1889.29 1292.04C1853.91 1292.04 1828.22 1280.35 1812.21 1256.97C1796.43 1233.59 1788.54 1201.35 1788.54 1160.26ZM1929.8 1160.26C1929.8 1136.41 1927.17 1118.1 1921.91 1105.35C1916.65 1092.36 1905.78 1085.87 1889.29 1085.87C1872.79 1085.87 1861.92 1092.36 1856.66 1105.35C1851.4 1118.1 1848.77 1136.41 1848.77 1160.26C1848.77 1176.32 1849.73 1189.66 1851.64 1200.29C1853.55 1210.68 1857.38 1219.18 1863.11 1225.8C1869.09 1232.17 1877.81 1235.36 1889.29 1235.36C1900.76 1235.36 1909.36 1232.17 1915.1 1225.8C1921.07 1219.18 1925.02 1210.68 1926.93 1200.29C1928.84 1189.66 1929.8 1176.32 1929.8 1160.26Z" fill="#080808"/>
<path d="M2020.27 1259.08C2020.27 1249.98 2038.98 1230.71 2031.38 1235.71C2054.81 1216.58 2073.21 1200.88 2086.59 1188.6C2100.22 1176.32 2111.69 1163.45 2121.01 1149.99C2130.33 1136.52 2134.99 1123.42 2134.99 1110.66C2134.99 1100.98 2132.72 1093.42 2128.18 1087.99C2123.64 1082.56 2116.83 1079.84 2107.75 1079.84C2098.66 1079.84 2091.49 1083.27 2086.24 1090.12C2086.11 1090.28 2085.99 1090.44 2085.87 1090.61C2076.4 1103.67 2065.62 1118.46 2049.48 1118.46C2033.07 1118.46 2019.25 1104.7 2023.66 1088.89C2025.78 1081.27 2028.71 1074.36 2032.46 1068.15C2040.82 1054.69 2051.7 1044.77 2065.08 1038.4C2078.71 1032.02 2093.76 1028.83 2110.26 1028.83C2138.7 1028.83 2160.09 1036.03 2174.43 1050.44C2189.01 1064.85 2196.3 1083.62 2196.3 1106.77C2196.3 1132.04 2187.58 1155.54 2170.13 1177.26C2152.68 1198.75 2130.45 1219.77 2103.44 1240.32H2175.62C2189.22 1240.32 2200.24 1251.34 2200.24 1264.94C2200.24 1278.54 2189.22 1289.56 2175.62 1289.56H2050.54C2033.82 1289.56 2020.27 1275.8 2020.27 1259.08Z" fill="#080808"/>
<path d="M2227.24 1160.26C2227.24 1119.64 2235.12 1087.64 2250.9 1064.26C2266.91 1040.88 2292.61 1029.19 2327.98 1029.19C2363.35 1029.19 2388.93 1040.88 2404.7 1064.26C2420.72 1087.64 2428.72 1119.64 2428.72 1160.26C2428.72 1201.35 2420.72 1233.59 2404.7 1256.97C2388.93 1280.35 2363.35 1292.04 2327.98 1292.04C2292.61 1292.04 2266.91 1280.35 2250.9 1256.97C2235.12 1233.59 2227.24 1201.35 2227.24 1160.26ZM2368.49 1160.26C2368.49 1136.41 2365.86 1118.1 2360.6 1105.35C2355.35 1092.36 2344.47 1085.87 2327.98 1085.87C2311.49 1085.87 2300.61 1092.36 2295.35 1105.35C2290.1 1118.1 2287.47 1136.41 2287.47 1160.26C2287.47 1176.32 2288.42 1189.66 2290.33 1200.29C2292.25 1210.68 2296.07 1219.18 2301.81 1225.8C2307.78 1232.17 2316.51 1235.36 2327.98 1235.36C2339.45 1235.36 2348.06 1232.17 2353.79 1225.8C2359.77 1219.18 2363.71 1210.68 2365.62 1200.29C2367.54 1189.66 2368.49 1176.32 2368.49 1160.26Z" fill="#080808"/>
<path fill-rule="evenodd" clip-rule="evenodd" d="M199.099 50.3469C262.414 16.7823 336.409 0 421.084 0H616.75C674.89 0 722.021 47.1315 722.021 105.271V697.992C722.021 756.131 674.89 803.263 616.75 803.263H421.084C337.172 803.263 263.559 786.48 200.244 752.916C136.166 719.351 86.9629 672.055 52.6354 611.029C17.5451 550.002 0 480.203 0 401.631C0 322.297 17.5451 252.498 52.6354 192.234C86.9629 131.207 135.784 83.9116 199.099 50.3469ZM260.889 573.269C302.082 613.699 359.676 633.914 433.67 633.914H501.181C515.084 633.914 526.354 622.643 526.354 608.74V192.234C526.354 178.331 515.084 167.06 501.181 167.06H433.67C359.676 167.06 302.082 187.657 260.889 228.85C219.696 270.043 199.099 327.637 199.099 401.631C199.099 475.626 219.696 532.839 260.889 573.269ZM1313.13 781.608C1323.52 795.253 1339.68 803.263 1356.83 803.263H1455.58C1501.45 803.263 1527.11 750.379 1498.73 714.352L1246.09 393.622L1486.96 88.9897C1515.43 52.9783 1489.78 0 1443.88 0H1354.58C1337.41 0 1321.23 8.02751 1310.84 21.6976L1059.57 352.429V54.924C1059.57 24.5903 1034.98 0 1004.65 0H918.832C888.498 0 863.908 24.5904 863.908 54.924V748.339C863.908 778.672 888.498 803.263 918.832 803.263H1004.65C1034.98 803.263 1059.57 778.672 1059.57 748.339V448.546L1313.13 781.608ZM1846.2 714.011C1842.92 719.759 1840.15 725.879 1837.97 732.319L1835.93 738.329C1822.78 777.144 1786.36 803.263 1745.38 803.263C1679.1 803.263 1632.93 737.457 1655.48 675.13L1861.21 106.522C1884.35 42.5905 1945.05 0 2013.04 0C2081.03 0 2141.73 42.5906 2164.86 106.522L2370.08 673.698C2392.88 736.721 2346.19 803.263 2279.17 803.263C2237.73 803.263 2200.9 776.852 2187.61 737.603L2185.82 732.319C2183.64 725.879 2180.87 719.759 2177.59 714.011H2179.79L2087.11 439.391L2081.49 422.788C2080.98 420.662 2080.37 418.535 2079.65 416.411C2078.9 414.203 2078.07 412.07 2077.17 410.013L2011.59 216.262L1844.53 714.011H1846.2ZM2954.64 781.608C2965.02 795.253 2981.19 803.263 2998.34 803.263H3097.09C3142.95 803.263 3168.61 750.379 3140.23 714.352L2887.59 393.622L3128.46 88.9897C3156.94 52.9783 3131.29 0 3085.38 0H2996.08C2978.92 0 2962.73 8.02751 2952.35 21.6976L2701.08 352.429V54.924C2701.08 24.5903 2676.49 0 2646.16 0H2560.34C2530 0 2505.41 24.5904 2505.41 54.924V748.339C2505.41 778.672 2530 803.263 2560.34 803.263H2646.16C2676.49 803.263 2701.08 778.672 2701.08 748.339V448.546L2954.64 781.608Z" fill="#080808"/>
</svg>
